NotoAmalgamated-DisplayBoldCondensedItalic.ufo
<glyph name="quotedbl" format="2">
  <advance width="445"/>
  <unicode hex="0022"/>
  <outline>
    <contour>
      <point x="299" y="456" type="line"/>
      <point x="433" y="456" type="line"/>
      <point x="505" y="714" type="line"/>
      <point x="336" y="714" type="line"/>
    </contour>
    <contour>
      <point x="92" y="456" type="line"/>
      <point x="226" y="456" type="line"/>
      <point x="298" y="714" type="line"/>
      <point x="129" y="714" type="line"/>
    </contour>
  </outline>
</glyph>
<glyph name="numbersign" format="2">
  <advance width="521"/>
  <unicode hex="0023"/>
  <outline>
    <contour>
      <point x="21" y="0" type="line"/>
      <point x="138" y="0" type="line"/>
      <point x="198" y="191" type="line"/>
      <point x="258" y="191" type="line"/>
      <point x="199" y="0" type="line"/>
      <point x="316" y="0" type="line"/>
      <point x="376" y="191" type="line"/>
      <point x="473" y="191" type="line"/>
      <point x="494" y="305" type="line"/>
      <point x="411" y="305" type="line"/>
      <point x="443" y="407" type="line"/>
      <point x="534" y="407" type="line"/>
      <point x="556" y="524" type="line"/>
      <point x="479" y="524" type="line"/>
      <point x="539" y="714" type="line"/>
      <point x="420" y="714" type="line"/>
      <point x="361" y="524" type="line"/>
      <point x="301" y="524" type="line"/>
      <point x="362" y="714" type="line"/>
      <point x="244" y="714" type="line"/>
      <point x="184" y="524" type="line"/>
      <point x="89" y="524" type="line"/>
      <point x="67" y="407" type="line"/>
      <point x="149" y="407" type="line"/>
      <point x="116" y="305" type="line"/>
      <point x="26" y="305" type="line"/>
      <point x="5" y="191" type="line"/>
      <point x="81" y="191" type="line"/>
    </contour>
    <contour>
      <point x="234" y="305" type="line"/>
      <point x="266" y="407" type="line"/>
      <point x="326" y="407" type="line"/>
      <point x="294" y="305" type="line"/>
    </contour>
  </outline>
</glyph>
<glyph name="dollar" format="2">
  <advance width="468"/>
  <unicode hex="0024"/>
  <outline>
    <contour>
      <point x="161" y="35" type="curve"/>
      <point x="141" y="-59" type="line"/>
      <point x="191" y="-58" type="line"/>
      <point x="211" y="35" type="line"/>
      <point x="314" y="45"/>
      <point x="415" y="116"/>
      <point x="415" y="265" type="curve" smooth="yes"/>
      <point x="415" y="362"/>
      <point x="348" y="402"/>
      <point x="296" y="434" type="curve"/>
      <point x="321" y="556" type="line"/>
      <point x="353" y="551"/>
      <point x="384" y="534"/>
      <point x="418" y="506" type="curve"/>
      <point x="489" y="644" type="line"/>
      <point x="456" y="667"/>
      <point x="420" y="686"/>
      <point x="350" y="691" type="curve"/>
      <point x="364" y="759" type="line"/>
      <point x="314" y="759" type="line"/>
      <point x="300" y="691" type="line"/>
      <point x="202" y="685"/>
      <point x="96" y="624"/>
      <point x="96" y="470" type="curve" smooth="yes"/>
      <point x="96" y="378"/>
      <point x="164" y="332"/>
      <point x="217" y="302" type="curve"/>
      <point x="190" y="171" type="line"/>
      <point x="143" y="177"/>
      <point x="90" y="208"/>
      <point x="49" y="246" type="curve"/>
      <point x="14" y="83" type="line"/>
      <point x="49" y="58"/>
      <point x="90" y="38"/>
    </contour>
    <contour>
      <point x="242" y="176" type="curve"/>
      <point x="261" y="272" type="line"/>
      <point x="271" y="261"/>
      <point x="277" y="248"/>
      <point x="277" y="231" type="curve" smooth="yes"/>
      <point x="277" y="203"/>
      <point x="262" y="185"/>
    </contour>
    <contour>
      <point x="271" y="555" type="curve"/>
      <point x="252" y="464" type="line"/>
      <point x="240" y="474"/>
      <point x="233" y="486"/>
      <point x="233" y="500" type="curve" smooth="yes"/>
      <point x="233" y="526"/>
      <point x="244" y="547"/>
    </contour>
  </outline>
</glyph>
<glyph name="ampersand" format="2">
  <advance width="593"/>
  <unicode hex="0026"/>
  <outline>
    <contour>
      <point x="165" y="-10" type="curve" smooth="yes"/>
      <point x="227" y="-10"/>
      <point x="267" y="3"/>
      <point x="324" y="37" type="curve"/>
      <point x="340" y="0" type="line"/>
      <point x="541" y="0" type="line"/>
      <point x="465" y="151" type="line"/>
      <point x="515" y="216"/>
      <point x="569" y="316"/>
      <point x="600" y="401" type="curve"/>
      <point x="433" y="401" type="line"/>
      <point x="419" y="359"/>
      <point x="404" y="326"/>
      <point x="392" y="301" type="curve"/>
      <point x="355" y="375" type="line"/>
      <point x="440" y="437"/>
      <point x="497" y="508"/>
      <point x="497" y="591" type="curve" smooth="yes"/>
      <point x="497" y="683"/>
      <point x="420" y="723"/>
      <point x="343" y="723" type="curve" smooth="yes"/>
      <point x="219" y="723"/>
      <point x="133" y="630"/>
      <point x="133" y="515" type="curve" smooth="yes"/>
      <point x="133" y="464"/>
      <point x="143" y="428"/>
      <point x="159" y="394" type="curve"/>
      <point x="64" y="339"/>
      <point x="3" y="251"/>
      <point x="3" y="151" type="curve" smooth="yes"/>
      <point x="3" y="50"/>
      <point x="66" y="-10"/>
    </contour>
    <contour>
      <point x="209" y="133" type="curve" smooth="yes"/>
      <point x="187" y="133"/>
      <point x="173" y="150"/>
      <point x="173" y="180" type="curve" smooth="yes"/>
      <point x="173" y="224"/>
      <point x="187" y="263"/>
      <point x="211" y="287" type="curve"/>
      <point x="269" y="157" type="line"/>
      <point x="246" y="141"/>
      <point x="229" y="133"/>
    </contour>
    <contour>
      <point x="300" y="479" type="curve"/>
      <point x="292" y="498"/>
      <point x="288" y="517"/>
      <point x="288" y="541" type="curve" smooth="yes"/>
      <point x="288" y="565"/>
      <point x="298" y="605"/>
      <point x="322" y="605" type="curve" smooth="yes"/>
      <point x="343" y="605"/>
      <point x="346" y="584"/>
      <point x="346" y="568" type="curve" smooth="yes"/>
      <point x="346" y="537"/>
      <point x="324" y="501"/>
    </contour>
  </outline>
</glyph>
<glyph name="parenleft" format="2">
  <advance width="278"/>
  <unicode hex="0028"/>
  <outline>
    <contour>
      <point x="40" y="-158" type="curve"/>
      <point x="176" y="-158" type="line"/>
      <point x="160" y="-88"/>
      <point x="156" y="-17"/>
      <point x="156" y="64" type="curve" smooth="yes"/>
      <point x="156" y="299"/>
      <point x="258" y="578"/>
      <point x="366" y="734" type="curve"/>
      <point x="231" y="734" type="line"/>
      <point x="103" y="588"/>
      <point x="11" y="278"/>
      <point x="11" y="65" type="curve" smooth="yes"/>
      <point x="11" y="-8"/>
      <point x="19" y="-108"/>
    </contour>
  </outline>
</glyph>
<glyph name="parenright" format="2">
  <advance width="278"/>
  <unicode hex="0029"/>
  <outline>
    <contour>
      <point x="-80" y="-158" type="curve"/>
      <point x="55" y="-158" type="line"/>
      <point x="178" y="-17"/>
      <point x="274" y="280"/>
      <point x="274" y="516" type="curve" smooth="yes"/>
      <point x="274" y="596"/>
      <point x="270" y="667"/>
      <point x="246" y="734" type="curve"/>
      <point x="109" y="734" type="line"/>
      <point x="126" y="671"/>
      <point x="129" y="590"/>
      <point x="129" y="513" type="curve" smooth="yes"/>
      <point x="129" y="276"/>
      <point x="27" y="-2"/>
    </contour>
  </outline>
</glyph>
<glyph name="asterisk" format="2">
  <advance width="437"/>
  <unicode hex="002A"/>
  <outline>
    <contour>
      <point x="308" y="302" type="line"/>
      <point x="434" y="381" type="line"/>
      <point x="351" y="501" type="line"/>
      <point x="480" y="505" type="line"/>
      <point x="465" y="650" type="line"/>
      <point x="340" y="610" type="line"/>
      <point x="374" y="753" type="line"/>
      <point x="229" y="770" type="line"/>
      <point x="228" y="623" type="line"/>
      <point x="117" y="691" type="line"/>
      <point x="67" y="554" type="line"/>
      <point x="192" y="519" type="line"/>
      <point x="84" y="422" type="line"/>
      <point x="188" y="316" type="line"/>
      <point x="263" y="435" type="line"/>
    </contour>
  </outline>
</glyph>
<glyph name="plus" format="2">
  <advance width="489"/>
  <unicode hex="002B"/>
  <outline>
    <contour>
      <point x="332" y="418" type="line"/>
      <point x="332" y="597" type="line"/>
      <point x="197" y="597" type="line"/>
      <point x="197" y="418" type="line"/>
      <point x="53" y="418" type="line"/>
      <point x="53" y="287" type="line"/>
      <point x="197" y="287" type="line"/>
      <point x="197" y="111" type="line"/>
      <point x="332" y="111" type="line"/>
      <point x="332" y="287" type="line"/>
      <point x="476" y="287" type="line"/>
      <point x="476" y="418" type="line"/>
    </contour>
  </outline>
</glyph>
<glyph name="comma" format="2">
  <advance width="258"/>
  <unicode hex="002C"/>
  <outline>
    <contour>
      <point x="-59" y="-139" type="curve"/>
      <point x="74" y="-139" type="line"/>
      <point x="116" y="-64"/>
      <point x="155" y="28"/>
      <point x="191" y="136" type="curve"/>
      <point x="189" y="146" type="line"/>
      <point x="33" y="146" type="line"/>
      <point x="10" y="60"/>
      <point x="-28" y="-52"/>
    </contour>
  </outline>
</glyph>
<glyph name="hyphen" format="2">
  <advance width="302"/>
  <unicode hex="002D"/>
  <outline>
    <contour>
      <point x="9" y="192" type="line"/>
      <point x="260" y="192" type="line"/>
      <point x="293" y="344" type="line"/>
      <point x="42" y="344" type="line"/>
    </contour>
  </outline>
</glyph>
<glyph name="period" format="2">
  <advance width="258"/>
  <unicode hex="002E"/>
  <outline>
    <contour>
      <point x="74" y="-12" type="curve" smooth="yes"/>
      <point x="129" y="-12"/>
      <point x="182" y="35"/>
      <point x="182" y="108" type="curve" smooth="yes"/>
      <point x="182" y="150"/>
      <point x="155" y="175"/>
      <point x="110" y="175" type="curve" smooth="yes"/>
      <point x="36" y="175"/>
      <point x="-4" y="118"/>
      <point x="-4" y="56" type="curve" smooth="yes"/>
      <point x="-4" y="11"/>
      <point x="23" y="-12"/>
    </contour>
  </outline>
</glyph>
<glyph name="zero" format="2">
  <advance width="468"/>
  <unicode hex="0030"/>
  <outline>
    <contour>
      <point x="187" y="-10" type="curve" smooth="yes"/>
      <point x="380" y="-10"/>
      <point x="472" y="317"/>
      <point x="472" y="517" type="curve" smooth="yes"/>
      <point x="472" y="662"/>
      <point x="423" y="724"/>
      <point x="317" y="724" type="curve" smooth="yes"/>
      <point x="105" y="724"/>
      <point x="33" y="348"/>
      <point x="33" y="190" type="curve" smooth="yes"/>
      <point x="33" y="52"/>
      <point x="81" y="-10"/>
    </contour>
    <contour>
      <point x="207" y="137" type="curve" smooth="yes"/>
      <point x="192" y="137"/>
      <point x="187" y="153"/>
      <point x="187" y="184" type="curve" smooth="yes"/>
      <point x="187" y="258"/>
      <point x="247" y="577"/>
      <point x="299" y="577" type="curve" smooth="yes"/>
      <point x="314" y="577"/>
      <point x="319" y="561"/>
      <point x="319" y="528" type="curve" smooth="yes"/>
      <point x="319" y="435"/>
      <point x="256" y="137"/>
    </contour>
  </outline>
</glyph>
<glyph name="one" format="2">
  <advance width="468"/>
  <unicode hex="0031"/>
  <outline>
    <contour>
      <point x="235" y="376" type="curve" smooth="yes"/>
      <point x="157" y="0" type="line"/>
      <point x="321" y="0" type="line"/>
      <point x="473" y="714" type="line"/>
      <point x="327" y="714" type="line"/>
      <point x="88" y="487" type="line"/>
      <point x="162" y="384" type="line"/>
      <point x="227" y="447" type="line" smooth="yes"/>
      <point x="240" y="459"/>
      <point x="252" y="473"/>
      <point x="262" y="487" type="curve"/>
      <point x="252" y="449"/>
      <point x="245" y="422"/>
    </contour>
  </outline>
</glyph>
<glyph name="two" format="2">
  <advance width="468"/>
  <unicode hex="0032"/>
  <outline>
    <contour>
      <point x="-27" y="0" type="line"/>
      <point x="357" y="0" type="line"/>
      <point x="389" y="146" type="line"/>
      <point x="196" y="146" type="line"/>
      <point x="195" y="149" type="line"/>
      <point x="311" y="271" type="line" smooth="yes"/>
      <point x="401" y="365"/>
      <point x="466" y="459"/>
      <point x="466" y="573" type="curve" smooth="yes"/>
      <point x="466" y="662"/>
      <point x="401" y="724"/>
      <point x="310" y="724" type="curve" smooth="yes"/>
      <point x="233" y="724"/>
      <point x="165" y="690"/>
      <point x="98" y="609" type="curve"/>
      <point x="150" y="494" type="line"/>
      <point x="183" y="528"/>
      <point x="232" y="578"/>
      <point x="268" y="578" type="curve" smooth="yes"/>
      <point x="288" y="578"/>
      <point x="295" y="562"/>
      <point x="295" y="537" type="curve" smooth="yes"/>
      <point x="295" y="468"/>
      <point x="233" y="387"/>
      <point x="171" y="315" type="curve" smooth="yes"/>
      <point x="-2" y="116" type="line"/>
    </contour>
  </outline>
</glyph>
<glyph name="three" format="2">
  <advance width="468"/>
  <unicode hex="0033"/>
  <outline>
    <contour>
      <point x="143" y="-10" type="curve" smooth="yes"/>
      <point x="303" y="-10"/>
      <point x="416" y="95"/>
      <point x="416" y="240" type="curve" smooth="yes"/>
      <point x="416" y="311"/>
      <point x="383" y="356"/>
      <point x="318" y="373" type="curve"/>
      <point x="318" y="376" type="line"/>
      <point x="412" y="411"/>
      <point x="476" y="486"/>
      <point x="476" y="584" type="curve" smooth="yes"/>
      <point x="476" y="688"/>
      <point x="394" y="724"/>
      <point x="308" y="724" type="curve" smooth="yes"/>
      <point x="241" y="724"/>
      <point x="186" y="710"/>
      <point x="118" y="660" type="curve"/>
      <point x="147" y="533" type="line"/>
      <point x="195" y="567"/>
      <point x="237" y="580"/>
      <point x="264" y="580" type="curve" smooth="yes"/>
      <point x="292" y="580"/>
      <point x="304" y="567"/>
      <point x="304" y="539" type="curve" smooth="yes"/>
      <point x="304" y="467"/>
      <point x="255" y="435"/>
      <point x="185" y="435" type="curve" smooth="yes"/>
      <point x="145" y="435" type="line"/>
      <point x="115" y="296" type="line"/>
      <point x="154" y="296" type="line" smooth="yes"/>
      <point x="218" y="296"/>
      <point x="242" y="271"/>
      <point x="242" y="231" type="curve" smooth="yes"/>
      <point x="242" y="167"/>
      <point x="204" y="134"/>
      <point x="146" y="134" type="curve" smooth="yes"/>
      <point x="109" y="134"/>
      <point x="44" y="146"/>
      <point x="-1" y="184" type="curve"/>
      <point x="-2" y="28" type="line"/>
      <point x="51" y="-1"/>
      <point x="83" y="-10"/>
    </contour>
  </outline>
</glyph>
<glyph name="four" format="2">
  <advance width="468"/>
  <unicode hex="0034"/>
  <outline>
    <contour>
      <point x="169" y="0" type="line"/>
      <point x="331" y="0" type="line"/>
      <point x="359" y="138" type="line"/>
      <point x="422" y="138" type="line"/>
      <point x="452" y="275" type="line"/>
      <point x="389" y="275" type="line"/>
      <point x="482" y="714" type="line"/>
      <point x="326" y="714" type="line"/>
      <point x="22" y="270" type="line"/>
      <point x="-7" y="138" type="line"/>
      <point x="197" y="138" type="line"/>
    </contour>
    <contour>
      <point x="146" y="275" type="line"/>
      <point x="248" y="435" type="line" smooth="yes"/>
      <point x="251" y="440"/>
      <point x="255" y="448"/>
      <point x="270" y="479" type="curve"/>
      <point x="273" y="479" type="line"/>
      <point x="270" y="463"/>
      <point x="261" y="437"/>
      <point x="258" y="423" type="curve" smooth="yes"/>
      <point x="227" y="275" type="line"/>
    </contour>
  </outline>
</glyph>
<glyph name="five" format="2">
  <advance width="468"/>
  <unicode hex="0035"/>
  <outline>
    <contour>
      <point x="160" y="-10" type="curve" smooth="yes"/>
      <point x="366" y="-10"/>
      <point x="426" y="165"/>
      <point x="426" y="296" type="curve" smooth="yes"/>
      <point x="426" y="405"/>
      <point x="377" y="468"/>
      <point x="303" y="468" type="curve" smooth="yes"/>
      <point x="291" y="468"/>
      <point x="276" y="467"/>
      <point x="255" y="462" type="curve"/>
      <point x="282" y="567" type="line"/>
      <point x="454" y="567" type="line"/>
      <point x="486" y="714" type="line"/>
      <point x="172" y="714" type="line"/>
      <point x="77" y="346" type="line"/>
      <point x="121" y="308" type="line"/>
      <point x="147" y="319"/>
      <point x="170" y="327"/>
      <point x="194" y="327" type="curve" smooth="yes"/>
      <point x="233" y="327"/>
      <point x="252" y="304"/>
      <point x="252" y="262" type="curve" smooth="yes"/>
      <point x="252" y="200"/>
      <point x="218" y="134"/>
      <point x="161" y="134" type="curve" smooth="yes"/>
      <point x="110" y="134"/>
      <point x="57" y="154"/>
      <point x="21" y="186" type="curve"/>
      <point x="20" y="19" type="line"/>
      <point x="54" y="1"/>
      <point x="98" y="-10"/>
    </contour>
  </outline>
</glyph>
<glyph name="six" format="2">
  <advance width="468"/>
  <unicode hex="0036"/>
  <outline>
    <contour>
      <point x="207" y="-10" type="curve" smooth="yes"/>
      <point x="375" y="-10"/>
      <point x="445" y="177"/>
      <point x="445" y="308" type="curve" smooth="yes"/>
      <point x="445" y="405"/>
      <point x="416" y="476"/>
      <point x="335" y="476" type="curve" smooth="yes"/>
      <point x="293" y="476"/>
      <point x="256" y="453"/>
      <point x="229" y="415" type="curve"/>
      <point x="228" y="415" type="line"/>
      <point x="259" y="522"/>
      <point x="312" y="584"/>
      <point x="392" y="584" type="curve" smooth="yes"/>
      <point x="418" y="584"/>
      <point x="445" y="580"/>
      <point x="473" y="572" type="curve"/>
      <point x="504" y="715" type="line"/>
      <point x="472" y="721"/>
      <point x="439" y="724"/>
      <point x="412" y="724" type="curve" smooth="yes"/>
      <point x="313" y="724"/>
      <point x="246" y="689"/>
      <point x="192" y="635" type="curve" smooth="yes"/>
      <point x="86" y="529"/>
      <point x="33" y="344"/>
      <point x="33" y="206" type="curve" smooth="yes"/>
      <point x="33" y="73"/>
      <point x="81" y="-10"/>
    </contour>
    <contour>
      <point x="218" y="134" type="curve" smooth="yes"/>
      <point x="202" y="134"/>
      <point x="195" y="153"/>
      <point x="195" y="189" type="curve" smooth="yes"/>
      <point x="195" y="226"/>
      <point x="207" y="290"/>
      <point x="229" y="318" type="curve" smooth="yes"/>
      <point x="238" y="330"/>
      <point x="247" y="336"/>
      <point x="257" y="336" type="curve" smooth="yes"/>
      <point x="271" y="336"/>
      <point x="277" y="321"/>
      <point x="277" y="293" type="curve" smooth="yes"/>
      <point x="277" y="251"/>
      <point x="262" y="134"/>
    </contour>
  </outline>
</glyph>
<glyph name="seven" format="2">
  <advance width="468"/>
  <unicode hex="0037"/>
  <outline>
    <contour>
      <point x="26" y="0" type="line"/>
      <point x="197" y="0" type="line"/>
      <point x="499" y="603" type="line"/>
      <point x="524" y="713" type="line"/>
      <point x="134" y="713" type="line"/>
      <point x="102" y="566" type="line"/>
      <point x="325" y="566" type="line"/>
    </contour>
  </outline>
</glyph>
<glyph name="eight" format="2">
  <advance width="468"/>
  <unicode hex="0038"/>
  <outline>
    <contour>
      <point x="196" y="-10" type="curve" smooth="yes"/>
      <point x="326" y="-10"/>
      <point x="422" y="101"/>
      <point x="422" y="221" type="curve" smooth="yes"/>
      <point x="422" y="280"/>
      <point x="403" y="328"/>
      <point x="352" y="376" type="curve"/>
      <point x="434" y="426"/>
      <point x="483" y="494"/>
      <point x="483" y="579" type="curve" smooth="yes"/>
      <point x="483" y="675"/>
      <point x="419" y="724"/>
      <point x="322" y="724" type="curve" smooth="yes"/>
      <point x="186" y="724"/>
      <point x="103" y="631"/>
      <point x="103" y="506" type="curve" smooth="yes"/>
      <point x="103" y="462"/>
      <point x="119" y="412"/>
      <point x="153" y="373" type="curve"/>
      <point x="60" y="313"/>
      <point x="10" y="243"/>
      <point x="10" y="151" type="curve" smooth="yes"/>
      <point x="10" y="49"/>
      <point x="79" y="-10"/>
    </contour>
    <contour>
      <point x="201" y="122" type="curve" smooth="yes"/>
      <point x="181" y="122"/>
      <point x="169" y="138"/>
      <point x="169" y="165" type="curve" smooth="yes"/>
      <point x="169" y="218"/>
      <point x="200" y="264"/>
      <point x="235" y="292" type="curve"/>
      <point x="256" y="266"/>
      <point x="266" y="238"/>
      <point x="266" y="211" type="curve" smooth="yes"/>
      <point x="266" y="167"/>
      <point x="244" y="122"/>
    </contour>
    <contour>
      <point x="275" y="458" type="curve"/>
      <point x="265" y="473"/>
      <point x="256" y="496"/>
      <point x="256" y="517" type="curve" smooth="yes"/>
      <point x="256" y="560"/>
      <point x="273" y="592"/>
      <point x="298" y="592" type="curve" smooth="yes"/>
      <point x="315" y="592"/>
      <point x="325" y="582"/>
      <point x="325" y="555" type="curve" smooth="yes"/>
      <point x="325" y="519"/>
      <point x="310" y="486"/>
    </contour>
  </outline>
</glyph>
<glyph name="nine" format="2">
  <advance width="468"/>
  <unicode hex="0039"/>
  <outline>
    <contour>
      <point x="121" y="-10" type="curve" smooth="yes"/>
      <point x="283" y="-10"/>
      <point x="377" y="123"/>
      <point x="426" y="259" type="curve" smooth="yes"/>
      <point x="461" y="356"/>
      <point x="473" y="454"/>
      <point x="473" y="508" type="curve" smooth="yes"/>
      <point x="473" y="645"/>
      <point x="416" y="724"/>
      <point x="305" y="724" type="curve" smooth="yes"/>
      <point x="130" y="724"/>
      <point x="60" y="524"/>
      <point x="60" y="395" type="curve" smooth="yes"/>
      <point x="60" y="306"/>
      <point x="90" y="238"/>
      <point x="171" y="238" type="curve" smooth="yes"/>
      <point x="212" y="238"/>
      <point x="248" y="262"/>
      <point x="276" y="299" type="curve"/>
      <point x="278" y="299" type="line"/>
      <point x="246" y="192"/>
      <point x="193" y="130"/>
      <point x="113" y="130" type="curve" smooth="yes"/>
      <point x="79" y="130"/>
      <point x="41" y="135"/>
      <point x="13" y="145" type="curve"/>
      <point x="12" y="2" type="line"/>
      <point x="44" y="-5"/>
      <point x="75" y="-10"/>
    </contour>
    <contour>
      <point x="249" y="378" type="curve" smooth="yes"/>
      <point x="235" y="378"/>
      <point x="229" y="393"/>
      <point x="229" y="421" type="curve" smooth="yes"/>
      <point x="229" y="462"/>
      <point x="248" y="580"/>
      <point x="291" y="580" type="curve" smooth="yes"/>
      <point x="304" y="580"/>
      <point x="311" y="562"/>
      <point x="311" y="525" type="curve" smooth="yes"/>
      <point x="311" y="493"/>
      <point x="302" y="442"/>
      <point x="286" y="410" type="curve" smooth="yes"/>
      <point x="276" y="391"/>
      <point x="264" y="378"/>
    </contour>
  </outline>
</glyph>
<glyph name="colon" format="2">
  <advance width="258"/>
  <unicode hex="003A"/>
  <outline>
    <contour>
      <point x="159" y="374" type="curve" smooth="yes"/>
      <point x="215" y="374"/>
      <point x="266" y="421"/>
      <point x="266" y="494" type="curve" smooth="yes"/>
      <point x="266" y="536"/>
      <point x="239" y="561"/>
      <point x="196" y="561" type="curve" smooth="yes"/>
      <point x="121" y="561"/>
      <point x="82" y="503"/>
      <point x="82" y="442" type="curve" smooth="yes"/>
      <point x="82" y="396"/>
      <point x="108" y="374"/>
    </contour>
    <contour>
      <point x="77" y="-12" type="curve" smooth="yes"/>
      <point x="132" y="-12"/>
      <point x="185" y="35"/>
      <point x="185" y="108" type="curve" smooth="yes"/>
      <point x="185" y="150"/>
      <point x="158" y="175"/>
      <point x="113" y="175" type="curve" smooth="yes"/>
      <point x="39" y="175"/>
      <point x="-1" y="118"/>
      <point x="-1" y="56" type="curve" smooth="yes"/>
      <point x="-1" y="11"/>
      <point x="26" y="-12"/>
    </contour>
  </outline>
</glyph>
<glyph name="semicolon" format="2">
  <advance width="258"/>
  <unicode hex="003B"/>
  <outline>
    <contour>
      <point x="-59" y="-139" type="curve"/>
      <point x="73" y="-139" type="line"/>
      <point x="116" y="-64"/>
      <point x="154" y="28"/>
      <point x="191" y="136" type="curve"/>
      <point x="188" y="146" type="line"/>
      <point x="32" y="146" type="line"/>
      <point x="5" y="45"/>
      <point x="-25" y="-48"/>
    </contour>
    <contour>
      <point x="159" y="374" type="curve" smooth="yes"/>
      <point x="215" y="374"/>
      <point x="266" y="421"/>
      <point x="266" y="494" type="curve" smooth="yes"/>
      <point x="266" y="536"/>
      <point x="239" y="561"/>
      <point x="196" y="561" type="curve" smooth="yes"/>
      <point x="121" y="561"/>
      <point x="81" y="503"/>
      <point x="81" y="442" type="curve" smooth="yes"/>
      <point x="81" y="396"/>
      <point x="108" y="374"/>
    </contour>
  </outline>
</glyph>
<glyph name="question" format="2">
  <advance width="371"/>
  <unicode hex="003F"/>
  <outline>
    <contour>
      <point x="91" y="252" type="curve"/>
      <point x="230" y="252" type="line"/>
      <point x="242" y="308"/>
      <point x="245" y="319"/>
      <point x="295" y="362" type="curve" smooth="yes"/>
      <point x="359" y="417"/>
      <point x="420" y="488"/>
      <point x="420" y="587" type="curve" smooth="yes"/>
      <point x="420" y="672"/>
      <point x="368" y="724"/>
      <point x="269" y="724" type="curve" smooth="yes"/>
      <point x="209" y="724"/>
      <point x="146" y="701"/>
      <point x="83" y="653" type="curve"/>
      <point x="101" y="528" type="line"/>
      <point x="139" y="554"/>
      <point x="182" y="580"/>
      <point x="223" y="580" type="curve" smooth="yes"/>
      <point x="251" y="580"/>
      <point x="261" y="564"/>
      <point x="261" y="542" type="curve" smooth="yes"/>
      <point x="261" y="505"/>
      <point x="232" y="476"/>
      <point x="173" y="421" type="curve" smooth="yes"/>
      <point x="125" y="377"/>
      <point x="112" y="350"/>
    </contour>
    <contour>
      <point x="109" y="-12" type="curve" smooth="yes"/>
      <point x="164" y="-12"/>
      <point x="216" y="35"/>
      <point x="216" y="108" type="curve" smooth="yes"/>
      <point x="216" y="150"/>
      <point x="189" y="175"/>
      <point x="145" y="175" type="curve" smooth="yes"/>
      <point x="70" y="175"/>
      <point x="30" y="118"/>
      <point x="30" y="56" type="curve" smooth="yes"/>
      <point x="30" y="11"/>
      <point x="57" y="-12"/>
    </contour>
  </outline>
</glyph>
<glyph name="at" format="2">
  <advance width="697"/>
  <unicode hex="0040"/>
  <outline>
    <contour>
      <point x="298" y="-75" type="curve" smooth="yes"/>
      <point x="356" y="-75"/>
      <point x="433" y="-57"/>
      <point x="496" y="-27" type="curve"/>
      <point x="497" y="68" type="line"/>
      <point x="421" y="34"/>
      <point x="359" y="21"/>
      <point x="295" y="21" type="curve" smooth="yes"/>
      <point x="181" y="21"/>
      <point x="129" y="89"/>
      <point x="129" y="191" type="curve" smooth="yes"/>
      <point x="129" y="408"/>
      <point x="255" y="628"/>
      <point x="445" y="628" type="curve" smooth="yes"/>
      <point x="538" y="628"/>
      <point x="595" y="571"/>
      <point x="595" y="459" type="curve" smooth="yes"/>
      <point x="595" y="390"/>
      <point x="576" y="208"/>
      <point x="504" y="208" type="curve" smooth="yes"/>
      <point x="494" y="208"/>
      <point x="487" y="214"/>
      <point x="487" y="226" type="curve" smooth="yes"/>
      <point x="487" y="238"/>
      <point x="490" y="252"/>
      <point x="495" y="271" type="curve" smooth="yes"/>
      <point x="554" y="513" type="line"/>
      <point x="519" y="532"/>
      <point x="473" y="544"/>
      <point x="411" y="544" type="curve" smooth="yes"/>
      <point x="260" y="544"/>
      <point x="189" y="353"/>
      <point x="189" y="238" type="curve" smooth="yes"/>
      <point x="189" y="157"/>
      <point x="223" y="114"/>
      <point x="301" y="114" type="curve" smooth="yes"/>
      <point x="330" y="114"/>
      <point x="364" y="135"/>
      <point x="395" y="174" type="curve"/>
      <point x="398" y="174" type="line"/>
      <point x="409" y="136"/>
      <point x="430" y="114"/>
      <point x="492" y="114" type="curve" smooth="yes"/>
      <point x="639" y="114"/>
      <point x="701" y="312"/>
      <point x="701" y="469" type="curve" smooth="yes"/>
      <point x="701" y="625"/>
      <point x="598" y="723"/>
      <point x="454" y="723" type="curve" smooth="yes"/>
      <point x="199" y="723"/>
      <point x="22" y="466"/>
      <point x="22" y="181" type="curve" smooth="yes"/>
      <point x="22" y="20"/>
      <point x="120" y="-75"/>
    </contour>
    <contour>
      <point x="328" y="208" type="curve" smooth="yes"/>
      <point x="313" y="208"/>
      <point x="305" y="221"/>
      <point x="305" y="250" type="curve" smooth="yes"/>
      <point x="305" y="324"/>
      <point x="343" y="449"/>
      <point x="401" y="449" type="curve" smooth="yes"/>
      <point x="413" y="449"/>
      <point x="418" y="448"/>
      <point x="427" y="445" type="curve"/>
      <point x="395" y="317" type="line" smooth="yes"/>
      <point x="377" y="246"/>
      <point x="354" y="208"/>
    </contour>
  </outline>
</glyph>
<glyph name="A" format="2">
  <advance width="526"/>
  <unicode hex="0041"/>
  <anchor x="208" y="0" name="bottom"/>
  <anchor x="353" y="717" name="top"/>
  <anchor x="602" y="714" name="topright"/>
  <outline>
    <contour>
      <point x="-57" y="0" type="line"/>
      <point x="126" y="0" type="line"/>
      <point x="177" y="139" type="line"/>
      <point x="296" y="139" type="line"/>
      <point x="291" y="0" type="line"/>
      <point x="469" y="0" type="line"/>
      <point x="461" y="717" type="line"/>
      <point x="248" y="717" type="line"/>
    </contour>
    <contour>
      <point x="233" y="284" type="line"/>
      <point x="293" y="472" type="line" smooth="yes"/>
      <point x="303" y="505"/>
      <point x="312" y="533"/>
      <point x="318" y="568" type="curve"/>
      <point x="321" y="568" type="line"/>
      <point x="316" y="531"/>
      <point x="316" y="501"/>
      <point x="315" y="469" type="curve" smooth="yes"/>
      <point x="306" y="284" type="line"/>
    </contour>
  </outline>
</glyph>
<glyph name="B" format="2">
  <advance width="510"/>
  <unicode hex="0042"/>
  <anchor x="214" y="0" name="bottom"/>
  <anchor x="352" y="714" name="top"/>
  <anchor x="587" y="714" name="topright"/>
  <outline>
    <contour>
      <point x="-5" y="0" type="line"/>
      <point x="221" y="0" type="line" smooth="yes"/>
      <point x="384" y="0"/>
      <point x="468" y="119"/>
      <point x="468" y="241" type="curve" smooth="yes"/>
      <point x="468" y="304"/>
      <point x="441" y="351"/>
      <point x="399" y="370" type="curve"/>
      <point x="400" y="374" type="line"/>
      <point x="485" y="404"/>
      <point x="525" y="477"/>
      <point x="525" y="561" type="curve" smooth="yes"/>
      <point x="525" y="677"/>
      <point x="434" y="714"/>
      <point x="339" y="714" type="curve" smooth="yes"/>
      <point x="146" y="714" type="line"/>
    </contour>
    <contour>
      <point x="221" y="141" type="curve" smooth="yes"/>
      <point x="193" y="141" type="line"/>
      <point x="226" y="303" type="line"/>
      <point x="255" y="303" type="line" smooth="yes"/>
      <point x="282" y="303"/>
      <point x="296" y="285"/>
      <point x="296" y="250" type="curve" smooth="yes"/>
      <point x="296" y="193"/>
      <point x="271" y="141"/>
    </contour>
    <contour>
      <point x="280" y="436" type="curve" smooth="yes"/>
      <point x="254" y="436" type="line"/>
      <point x="283" y="576" type="line"/>
      <point x="306" y="576" type="line" smooth="yes"/>
      <point x="334" y="576"/>
      <point x="348" y="561"/>
      <point x="348" y="532" type="curve" smooth="yes"/>
      <point x="348" y="485"/>
      <point x="321" y="436"/>
    </contour>
  </outline>
</glyph>
<glyph name="C" format="2">
  <advance width="465"/>
  <unicode hex="0043"/>
  <anchor x="212" y="0" name="bottom"/>
  <anchor x="358" y="714" name="top"/>
  <anchor x="541" y="714" name="topright"/>
  <outline>
    <contour>
      <point x="222" y="-11" type="curve" smooth="yes"/>
      <point x="278" y="-11"/>
      <point x="337" y="1"/>
      <point x="387" y="27" type="curve"/>
      <point x="388" y="175" type="line"/>
      <point x="347" y="154"/>
      <point x="305" y="137"/>
      <point x="268" y="137" type="curve" smooth="yes"/>
      <point x="229" y="137"/>
      <point x="211" y="162"/>
      <point x="211" y="226" type="curve" smooth="yes"/>
      <point x="211" y="313"/>
      <point x="258" y="578"/>
      <point x="364" y="578" type="curve" smooth="yes"/>
      <point x="391" y="578"/>
      <point x="418" y="566"/>
      <point x="449" y="541" type="curve"/>
      <point x="524" y="667" type="line"/>
      <point x="483" y="700"/>
      <point x="416" y="724"/>
      <point x="357" y="724" type="curve" smooth="yes"/>
      <point x="157" y="724"/>
      <point x="34" y="453"/>
      <point x="34" y="217" type="curve" smooth="yes"/>
      <point x="34" y="79"/>
      <point x="104" y="-11"/>
    </contour>
  </outline>
</glyph>
<glyph name="D" format="2">
  <advance width="535"/>
  <unicode hex="0044"/>
  <anchor x="213" y="0" name="bottom"/>
  <anchor x="306" y="357" name="center"/>
  <anchor x="354" y="714" name="top"/>
  <anchor x="612" y="714" name="topright"/>
  <outline>
    <contour>
      <point x="-5" y="0" type="line"/>
      <point x="177" y="0" type="line" smooth="yes"/>
      <point x="429" y="0"/>
      <point x="539" y="266"/>
      <point x="539" y="488" type="curve" smooth="yes"/>
      <point x="539" y="628"/>
      <point x="459" y="714"/>
      <point x="309" y="714" type="curve" smooth="yes"/>
      <point x="146" y="714" type="line"/>
    </contour>
    <contour>
      <point x="202" y="148" type="curve" smooth="yes"/>
      <point x="194" y="148" type="line"/>
      <point x="281" y="567" type="line"/>
      <point x="294" y="567" type="line" smooth="yes"/>
      <point x="340" y="567"/>
      <point x="363" y="536"/>
      <point x="363" y="470" type="curve" smooth="yes"/>
      <point x="363" y="372"/>
      <point x="320" y="148"/>
    </contour>
  </outline>
</glyph>
<glyph name="E" format="2">
  <advance width="413"/>
  <unicode hex="0045"/>
  <anchor x="152" y="0" name="bottom"/>
  <anchor x="303" y="714" name="top"/>
  <anchor x="489" y="714" name="topright"/>
  <outline>
    <contour>
      <point x="-5" y="0" type="line"/>
      <point x="315" y="0" type="line"/>
      <point x="347" y="146" type="line"/>
      <point x="193" y="146" type="line"/>
      <point x="225" y="297" type="line"/>
      <point x="366" y="297" type="line"/>
      <point x="398" y="441" type="line"/>
      <point x="255" y="441" type="line"/>
      <point x="282" y="570" type="line"/>
      <point x="435" y="570" type="line"/>
      <point x="466" y="714" type="line"/>
      <point x="146" y="714" type="line"/>
    </contour>
  </outline>
</glyph>
<glyph name="F" format="2">
  <advance width="401"/>
  <unicode hex="0046"/>
  <anchor x="146" y="0" name="bottom"/>
  <anchor x="305" y="714" name="top"/>
  <anchor x="478" y="714" name="topright"/>
  <outline>
    <contour>
      <point x="-5" y="0" type="line"/>
      <point x="162" y="0" type="line"/>
      <point x="219" y="273" type="line"/>
      <point x="359" y="273" type="line"/>
      <point x="390" y="417" type="line"/>
      <point x="250" y="417" type="line"/>
      <point x="282" y="570" type="line"/>
      <point x="434" y="570" type="line"/>
      <point x="465" y="714" type="line"/>
      <point x="146" y="714" type="line"/>
    </contour>
  </outline>
</glyph>
<glyph name="G" format="2">
  <advance width="539"/>
  <unicode hex="0047"/>
  <anchor x="236" y="0" name="bottom"/>
  <anchor x="396" y="714" name="top"/>
  <anchor x="615" y="714" name="topright"/>
  <outline>
    <contour>
      <point x="252" y="-10" type="curve" smooth="yes"/>
      <point x="298" y="-10"/>
      <point x="372" y="5"/>
      <point x="448" y="35" type="curve"/>
      <point x="529" y="418" type="line"/>
      <point x="297" y="418" type="line"/>
      <point x="267" y="276" type="line"/>
      <point x="334" y="276" type="line"/>
      <point x="307" y="143" type="line"/>
      <point x="293" y="139"/>
      <point x="278" y="137"/>
      <point x="266" y="137" type="curve" smooth="yes"/>
      <point x="230" y="137"/>
      <point x="211" y="172"/>
      <point x="211" y="239" type="curve" smooth="yes"/>
      <point x="211" y="379"/>
      <point x="280" y="578"/>
      <point x="385" y="578" type="curve" smooth="yes"/>
      <point x="431" y="578"/>
      <point x="467" y="562"/>
      <point x="502" y="540" type="curve"/>
      <point x="566" y="671" type="line"/>
      <point x="533" y="700"/>
      <point x="462" y="724"/>
      <point x="402" y="724" type="curve" smooth="yes"/>
      <point x="148" y="724"/>
      <point x="36" y="446"/>
      <point x="36" y="221" type="curve" smooth="yes"/>
      <point x="36" y="75"/>
      <point x="104" y="-10"/>
    </contour>
  </outline>
</glyph>
<glyph name="H" format="2">
  <advance width="555"/>
  <unicode hex="0048"/>
  <anchor x="219" y="0" name="bottom"/>
  <anchor x="295" y="357" name="center"/>
  <anchor x="371" y="714" name="top"/>
  <anchor x="628" y="714" name="topright"/>
  <outline>
    <contour>
      <point x="-5" y="0" type="line"/>
      <point x="162" y="0" type="line"/>
      <point x="225" y="298" type="line"/>
      <point x="343" y="298" type="line"/>
      <point x="280" y="0" type="line"/>
      <point x="447" y="0" type="line"/>
      <point x="599" y="714" type="line"/>
      <point x="432" y="714" type="line"/>
      <point x="374" y="444" type="line"/>
      <point x="256" y="444" type="line"/>
      <point x="313" y="714" type="line"/>
      <point x="146" y="714" type="line"/>
    </contour>
  </outline>
</glyph>
<glyph name="I" format="2">
  <advance width="369"/>
  <unicode hex="0049"/>
  <anchor x="130" y="0" name="bottom"/>
  <anchor x="277" y="714" name="top"/>
  <anchor x="446" y="714" name="topright"/>
  <outline>
    <contour>
      <point x="-36" y="0" type="line"/>
      <point x="295" y="0" type="line"/>
      <point x="314" y="86" type="line"/>
      <point x="239" y="126" type="line"/>
      <point x="336" y="588" type="line"/>
      <point x="428" y="628" type="line"/>
      <point x="446" y="714" type="line"/>
      <point x="115" y="714" type="line"/>
      <point x="97" y="628" type="line"/>
      <point x="169" y="588" type="line"/>
      <point x="72" y="126" type="line"/>
      <point x="-18" y="86" type="line"/>
    </contour>
  </outline>
</glyph>
<glyph name="J" format="2">
  <advance width="272"/>
  <unicode hex="004A"/>
  <anchor x="-63" y="-224" name="bottom"/>
  <anchor x="233" y="714" name="top"/>
  <anchor x="349" y="714" name="topright"/>
  <outline>
    <contour>
      <point x="-63" y="-224" type="curve" smooth="yes"/>
      <point x="49" y="-224"/>
      <point x="132" y="-155"/>
      <point x="170" y="23" type="curve" smooth="yes"/>
      <point x="316" y="714" type="line"/>
      <point x="149" y="714" type="line"/>
      <point x="8" y="47" type="line" smooth="yes"/>
      <point x="-2" y="-2"/>
      <point x="-19" y="-80"/>
      <point x="-72" y="-80" type="curve" smooth="yes"/>
      <point x="-89" y="-80"/>
      <point x="-106" y="-75"/>
      <point x="-125" y="-66" type="curve"/>
      <point x="-156" y="-212" type="line"/>
      <point x="-131" y="-220"/>
      <point x="-105" y="-224"/>
    </contour>
  </outline>
</glyph>
<glyph name="K" format="2">
  <advance width="506"/>
  <unicode hex="004B"/>
  <anchor x="208" y="0" name="bottom"/>
  <anchor x="379" y="714" name="top"/>
  <anchor x="582" y="714" name="topright"/>
  <outline>
    <contour>
      <point x="-5" y="0" type="line"/>
      <point x="162" y="0" type="line"/>
      <point x="213" y="242" type="line"/>
      <point x="240" y="260" type="line"/>
      <point x="273" y="0" type="line"/>
      <point x="457" y="0" type="line"/>
      <point x="388" y="377" type="line"/>
      <point x="611" y="714" type="line"/>
      <point x="427" y="714" type="line"/>
      <point x="287" y="495" type="line"/>
      <point x="254" y="427" type="line"/>
      <point x="313" y="714" type="line"/>
      <point x="146" y="714" type="line"/>
    </contour>
  </outline>
</glyph>
<glyph name="L" format="2">
  <advance width="395"/>
  <unicode hex="004C"/>
  <anchor x="148" y="0" name="bottom"/>
  <anchor x="156" y="357" name="center"/>
  <anchor x="224" y="714" name="top"/>
  <anchor x="401" y="714" name="topright"/>
  <outline>
    <contour>
      <point x="-5" y="0" type="line"/>
      <point x="326" y="0" type="line"/>
      <point x="357" y="146" type="line"/>
      <point x="193" y="146" type="line"/>
      <point x="313" y="714" type="line"/>
      <point x="146" y="714" type="line"/>
    </contour>
  </outline>
</glyph>
<glyph name="M" format="2">
  <advance width="731"/>
  <unicode hex="004D"/>
  <anchor x="311" y="0" name="bottom"/>
  <anchor x="452" y="714" name="top"/>
  <anchor x="807" y="714" name="topright"/>
  <outline>
    <contour>
      <point x="-5" y="0" type="line"/>
      <point x="152" y="0" type="line"/>
      <point x="212" y="286" type="line" smooth="yes"/>
      <point x="219" y="318"/>
      <point x="224" y="354"/>
      <point x="230" y="394" type="curve"/>
      <point x="232" y="394" type="line"/>
      <point x="238" y="0" type="line"/>
      <point x="374" y="0" type="line"/>
      <point x="544" y="400" type="line"/>
      <point x="547" y="400" type="line"/>
      <point x="540" y="374"/>
      <point x="533" y="349"/>
      <point x="527" y="323" type="curve" smooth="yes"/>
      <point x="460" y="0" type="line"/>
      <point x="622" y="0" type="line"/>
      <point x="774" y="714" type="line"/>
      <point x="543" y="714" type="line"/>
      <point x="373" y="302" type="line"/>
      <point x="370" y="302" type="line"/>
      <point x="363" y="714" type="line"/>
      <point x="146" y="714" type="line"/>
    </contour>
  </outline>
</glyph>
<glyph name="N" format="2">
  <advance width="596"/>
  <unicode hex="004E"/>
  <anchor x="244" y="0" name="bottom"/>
  <anchor x="385" y="714" name="top"/>
  <anchor x="673" y="714" name="topright"/>
  <outline>
    <contour>
      <point x="-5" y="0" type="line"/>
      <point x="151" y="0" type="line"/>
      <point x="208" y="271" type="line" smooth="yes"/>
      <point x="215" y="305"/>
      <point x="223" y="359"/>
      <point x="232" y="421" type="curve"/>
      <point x="234" y="421" type="line"/>
      <point x="304" y="0" type="line"/>
      <point x="489" y="0" type="line"/>
      <point x="640" y="714" type="line"/>
      <point x="484" y="714" type="line"/>
      <point x="428" y="447" type="line" smooth="yes"/>
      <point x="421" y="412"/>
      <point x="412" y="359"/>
      <point x="404" y="306" type="curve"/>
      <point x="401" y="306" type="line"/>
      <point x="331" y="714" type="line"/>
      <point x="146" y="714" type="line"/>
    </contour>
  </outline>
</glyph>
<glyph name="O" format="2">
  <advance width="565"/>
  <unicode hex="004F"/>
  <anchor x="228" y="0" name="bottom"/>
  <anchor x="311" y="357" name="center"/>
  <anchor x="379" y="714" name="top"/>
  <anchor x="642" y="714" name="topright"/>
  <outline>
    <contour>
      <point x="240" y="-10" type="curve" smooth="yes"/>
      <point x="474" y="-10"/>
      <point x="568" y="294"/>
      <point x="568" y="486" type="curve" smooth="yes"/>
      <point x="568" y="643"/>
      <point x="508" y="725"/>
      <point x="366" y="725" type="curve" smooth="yes"/>
      <point x="154" y="725"/>
      <point x="35" y="455"/>
      <point x="35" y="230" type="curve" smooth="yes"/>
      <point x="35" y="64"/>
      <point x="100" y="-10"/>
    </contour>
    <contour>
      <point x="252" y="139" type="curve" smooth="yes"/>
      <point x="225" y="139"/>
      <point x="210" y="156"/>
      <point x="210" y="229" type="curve" smooth="yes"/>
      <point x="210" y="345"/>
      <point x="263" y="579"/>
      <point x="351" y="579" type="curve" smooth="yes"/>
      <point x="379" y="579"/>
      <point x="394" y="550"/>
      <point x="394" y="490" type="curve" smooth="yes"/>
      <point x="394" y="375"/>
      <point x="341" y="139"/>
    </contour>
  </outline>
</glyph>
<glyph name="P" format="2">
  <advance width="476"/>
  <unicode hex="0050"/>
  <anchor x="183" y="0" name="bottom"/>
  <anchor x="331" y="714" name="top"/>
  <anchor x="552" y="714" name="topright"/>
  <outline>
    <contour>
      <point x="-5" y="0" type="line"/>
      <point x="162" y="0" type="line"/>
      <point x="212" y="237" type="line"/>
      <point x="250" y="237" type="line" smooth="yes"/>
      <point x="434" y="237"/>
      <point x="508" y="407"/>
      <point x="508" y="544" type="curve" smooth="yes"/>
      <point x="508" y="645"/>
      <point x="454" y="714"/>
      <point x="320" y="714" type="curve" smooth="yes"/>
      <point x="146" y="714" type="line"/>
    </contour>
    <contour>
      <point x="253" y="381" type="curve" smooth="yes"/>
      <point x="242" y="381" type="line"/>
      <point x="282" y="570" type="line"/>
      <point x="290" y="570" type="line" smooth="yes"/>
      <point x="320" y="570"/>
      <point x="336" y="560"/>
      <point x="336" y="522" type="curve" smooth="yes"/>
      <point x="336" y="439"/>
      <point x="304" y="381"/>
    </contour>
  </outline>
</glyph>
<glyph name="Q" format="2">
  <advance width="565"/>
  <unicode hex="0051"/>
  <anchor x="192" y="-100" name="bottom"/>
  <anchor x="379" y="714" name="top"/>
  <anchor x="642" y="714" name="topright"/>
  <outline>
    <contour>
      <point x="203" y="-8" type="curve"/>
      <point x="244" y="-170" type="line"/>
      <point x="436" y="-170" type="line"/>
      <point x="370" y="26" type="line"/>
      <point x="508" y="112"/>
      <point x="568" y="332"/>
      <point x="568" y="484" type="curve" smooth="yes"/>
      <point x="568" y="642"/>
      <point x="509" y="725"/>
      <point x="366" y="725" type="curve" smooth="yes"/>
      <point x="154" y="725"/>
      <point x="35" y="455"/>
      <point x="35" y="230" type="curve" smooth="yes"/>
      <point x="35" y="85"/>
      <point x="84" y="11"/>
      <point x="189" y="-6" type="curve" smooth="yes"/>
      <point x="194" y="-7"/>
      <point x="198" y="-8"/>
    </contour>
    <contour>
      <point x="252" y="139" type="curve" smooth="yes"/>
      <point x="225" y="139"/>
      <point x="210" y="156"/>
      <point x="210" y="229" type="curve" smooth="yes"/>
      <point x="210" y="345"/>
      <point x="263" y="579"/>
      <point x="351" y="579" type="curve" smooth="yes"/>
      <point x="379" y="579"/>
      <point x="394" y="550"/>
      <point x="394" y="490" type="curve" smooth="yes"/>
      <point x="394" y="375"/>
      <point x="341" y="139"/>
    </contour>
  </outline>
</glyph>
<glyph name="R" format="2">
  <advance width="499"/>
  <unicode hex="0052"/>
  <anchor x="195" y="0" name="bottom"/>
  <anchor x="346" y="714" name="top"/>
  <anchor x="575" y="714" name="topright"/>
  <outline>
    <contour>
      <point x="-5" y="0" type="line"/>
      <point x="162" y="0" type="line"/>
      <point x="217" y="265" type="line"/>
      <point x="226" y="265" type="line"/>
      <point x="271" y="0" type="line"/>
      <point x="457" y="0" type="line"/>
      <point x="383" y="300" type="line"/>
      <point x="463" y="337"/>
      <point x="515" y="424"/>
      <point x="515" y="546" type="curve" smooth="yes"/>
      <point x="515" y="654"/>
      <point x="451" y="714"/>
      <point x="306" y="714" type="curve" smooth="yes"/>
      <point x="146" y="714" type="line"/>
    </contour>
    <contour>
      <point x="260" y="400" type="curve" smooth="yes"/>
      <point x="247" y="400" type="line"/>
      <point x="282" y="574" type="line"/>
      <point x="293" y="574" type="line" smooth="yes"/>
      <point x="323" y="574"/>
      <point x="338" y="556"/>
      <point x="338" y="522" type="curve" smooth="yes"/>
      <point x="338" y="467"/>
      <point x="314" y="400"/>
    </contour>
  </outline>
</glyph>
<glyph name="S" format="2">
  <advance width="429"/>
  <unicode hex="0053"/>
  <anchor x="160" y="0" name="bottom"/>
  <anchor x="311" y="714" name="top"/>
  <anchor x="505" y="714" name="topright"/>
  <outline>
    <contour>
      <point x="151" y="-10" type="curve" smooth="yes"/>
      <point x="319" y="-10"/>
      <point x="397" y="111"/>
      <point x="397" y="235" type="curve" smooth="yes"/>
      <point x="397" y="312"/>
      <point x="370" y="365"/>
      <point x="317" y="415" type="curve" smooth="yes"/>
      <point x="267" y="462"/>
      <point x="256" y="482"/>
      <point x="256" y="507" type="curve" smooth="yes"/>
      <point x="256" y="552"/>
      <point x="284" y="570"/>
      <point x="312" y="570" type="curve" smooth="yes"/>
      <point x="340" y="570"/>
      <point x="379" y="552"/>
      <point x="413" y="525" type="curve"/>
      <point x="483" y="670" type="line"/>
      <point x="444" y="699"/>
      <point x="378" y="724"/>
      <point x="317" y="724" type="curve" smooth="yes"/>
      <point x="157" y="724"/>
      <point x="80" y="618"/>
      <point x="80" y="490" type="curve" smooth="yes"/>
      <point x="80" y="406"/>
      <point x="107" y="360"/>
      <point x="165" y="305" type="curve" smooth="yes"/>
      <point x="210" y="262"/>
      <point x="220" y="243"/>
      <point x="220" y="213" type="curve" smooth="yes"/>
      <point x="220" y="157"/>
      <point x="180" y="147"/>
      <point x="152" y="147" type="curve" smooth="yes"/>
      <point x="107" y="147"/>
      <point x="53" y="177"/>
      <point x="20" y="207" type="curve"/>
      <point x="-17" y="37" type="line"/>
      <point x="24" y="6"/>
      <point x="81" y="-10"/>
    </contour>
  </outline>
</glyph>
<glyph name="T" format="2">
  <advance width="424"/>
  <unicode hex="0054"/>
  <anchor x="152" y="0" name="bottom"/>
  <anchor x="231" y="357" name="center"/>
  <anchor x="299" y="714" name="top"/>
  <anchor x="500" y="714" name="topright"/>
  <outline>
    <contour>
      <point x="72" y="0" type="line"/>
      <point x="239" y="0" type="line"/>
      <point x="358" y="567" type="line"/>
      <point x="472" y="567" type="line"/>
      <point x="503" y="714" type="line"/>
      <point x="111" y="714" type="line"/>
      <point x="79" y="567" type="line"/>
      <point x="191" y="567" type="line"/>
    </contour>
  </outline>
</glyph>
<glyph name="U" format="2">
  <advance width="536"/>
  <unicode hex="0055"/>
  <anchor x="213" y="0" name="bottom"/>
  <anchor x="364" y="714" name="top"/>
  <anchor x="612" y="714" name="topright"/>
  <outline>
    <contour>
      <point x="217" y="-10" type="curve" smooth="yes"/>
      <point x="368" y="-10"/>
      <point x="446" y="70"/>
      <point x="478" y="221" type="curve" smooth="yes"/>
      <point x="583" y="714" type="line"/>
      <point x="416" y="714" type="line"/>
      <point x="316" y="247" type="line" smooth="yes"/>
      <point x="299" y="167"/>
      <point x="278" y="139"/>
      <point x="241" y="139" type="curve" smooth="yes"/>
      <point x="217" y="139"/>
      <point x="205" y="155"/>
      <point x="205" y="192" type="curve" smooth="yes"/>
      <point x="205" y="207"/>
      <point x="207" y="226"/>
      <point x="212" y="246" type="curve" smooth="yes"/>
      <point x="311" y="714" type="line"/>
      <point x="144" y="714" type="line"/>
      <point x="45" y="249" type="line" smooth="yes"/>
      <point x="39" y="219"/>
      <point x="35" y="186"/>
      <point x="35" y="163" type="curve" smooth="yes"/>
      <point x="35" y="55"/>
      <point x="104" y="-10"/>
    </contour>
  </outline>
</glyph>
<glyph name="V" format="2">
  <advance width="512"/>
  <unicode hex="0056"/>
  <anchor x="192" y="0" name="bottom"/>
  <anchor x="343" y="714" name="top"/>
  <anchor x="589" y="714" name="topright"/>
  <outline>
    <contour>
      <point x="105" y="0" type="line"/>
      <point x="297" y="0" type="line"/>
      <point x="606" y="714" type="line"/>
      <point x="428" y="714" type="line"/>
      <point x="286" y="350" type="line" smooth="yes"/>
      <point x="269" y="308"/>
      <point x="257" y="269"/>
      <point x="247" y="228" type="curve"/>
      <point x="245" y="228" type="line"/>
      <point x="251" y="279"/>
      <point x="255" y="311"/>
      <point x="256" y="352" type="curve" smooth="yes"/>
      <point x="267" y="714" type="line"/>
      <point x="94" y="714" type="line"/>
    </contour>
  </outline>
</glyph>
<glyph name="W" format="2">
  <advance width="733"/>
  <unicode hex="0057"/>
  <anchor x="312" y="0" name="bottom"/>
  <anchor x="463" y="714" name="top"/>
  <anchor x="810" y="714" name="topright"/>
  <outline>
    <contour>
      <point x="65" y="0" type="line"/>
      <point x="251" y="0" type="line"/>
      <point x="348" y="262" type="line" smooth="yes"/>
      <point x="359" y="291"/>
      <point x="370" y="321"/>
      <point x="380" y="351" type="curve"/>
      <point x="382" y="351" type="line"/>
      <point x="377" y="316"/>
      <point x="376" y="280"/>
      <point x="375" y="252" type="curve" smooth="yes"/>
      <point x="369" y="0" type="line"/>
      <point x="559" y="0" type="line"/>
      <point x="828" y="714" type="line"/>
      <point x="660" y="714" type="line"/>
      <point x="553" y="417" type="line"/>
      <point x="534" y="365"/>
      <point x="521" y="329"/>
      <point x="511" y="295" type="curve"/>
      <point x="509" y="295" type="line"/>
      <point x="512" y="338"/>
      <point x="514" y="366"/>
      <point x="516" y="416" type="curve" smooth="yes"/>
      <point x="528" y="714" type="line"/>
      <point x="392" y="714" type="line"/>
      <point x="274" y="416" type="line" smooth="yes"/>
      <point x="257" y="372"/>
      <point x="243" y="334"/>
      <point x="228" y="294" type="curve"/>
      <point x="227" y="294" type="line"/>
      <point x="231" y="324"/>
      <point x="235" y="365"/>
      <point x="238" y="418" type="curve" smooth="yes"/>
      <point x="255" y="714" type="line"/>
      <point x="95" y="714" type="line"/>
    </contour>
  </outline>
</glyph>
<glyph name="X" format="2">
  <advance width="494"/>
  <unicode hex="0058"/>
  <anchor x="192" y="0" name="bottom"/>
  <anchor x="344" y="714" name="top"/>
  <anchor x="571" y="714" name="topright"/>
  <outline>
    <contour>
      <point x="-58" y="0" type="line"/>
      <point x="121" y="0" type="line"/>
      <point x="232" y="188" type="line"/>
      <point x="260" y="0" type="line"/>
      <point x="441" y="0" type="line"/>
      <point x="357" y="363" type="line"/>
      <point x="570" y="714" type="line"/>
      <point x="390" y="714" type="line"/>
      <point x="298" y="536" type="line"/>
      <point x="277" y="714" type="line"/>
      <point x="102" y="714" type="line"/>
      <point x="170" y="357" type="line"/>
    </contour>
  </outline>
</glyph>
<glyph name="Y" format="2">
  <advance width="484"/>
  <unicode hex="0059"/>
  <anchor x="185" y="0" name="bottom"/>
  <anchor x="336" y="714" name="top"/>
  <anchor x="560" y="714" name="topright"/>
  <outline>
    <contour>
      <point x="102" y="0" type="line"/>
      <point x="269" y="0" type="line"/>
      <point x="326" y="274" type="line"/>
      <point x="577" y="714" type="line"/>
      <point x="398" y="714" type="line"/>
      <point x="285" y="485" type="line"/>
      <point x="268" y="714" type="line"/>
      <point x="94" y="714" type="line"/>
      <point x="157" y="268" type="line"/>
    </contour>
  </outline>
</glyph>
<glyph name="Z" format="2">
  <advance width="433"/>
  <unicode hex="005A"/>
  <anchor x="153" y="0" name="bottom"/>
  <anchor x="309" y="714" name="top"/>
  <anchor x="510" y="714" name="topright"/>
  <outline>
    <contour>
      <point x="-38" y="0" type="line"/>
      <point x="359" y="0" type="line"/>
      <point x="391" y="146" type="line"/>
      <point x="183" y="146" type="line"/>
      <point x="481" y="597" type="line"/>
      <point x="505" y="714" type="line"/>
      <point x="118" y="714" type="line"/>
      <point x="87" y="570" type="line"/>
      <point x="284" y="570" type="line"/>
      <point x="-14" y="117" type="line"/>
    </contour>
  </outline>
</glyph>
<glyph name="bracketleft" format="2">
  <advance width="281"/>
  <unicode hex="005B"/>
  <outline>
    <contour>
      <point x="-51" y="-168" type="line"/>
      <point x="173" y="-168" type="line"/>
      <point x="200" y="-44" type="line"/>
      <point x="119" y="-44" type="line"/>
      <point x="258" y="610" type="line"/>
      <point x="339" y="610" type="line"/>
      <point x="365" y="734" type="line"/>
      <point x="141" y="734" type="line"/>
    </contour>
  </outline>
</glyph>
<glyph name="backslash" format="2">
  <advance width="391"/>
  <unicode hex="005C"/>
  <outline>
    <contour>
      <point x="190" y="-10" type="line"/>
      <point x="330" y="-10" type="line"/>
      <point x="239" y="724" type="line"/>
      <point x="99" y="724" type="line"/>
    </contour>
  </outline>
</glyph>
<glyph name="bracketright" format="2">
  <advance width="281"/>
  <unicode hex="005D"/>
  <outline>
    <contour>
      <point x="-78" y="-168" type="line"/>
      <point x="146" y="-168" type="line"/>
      <point x="338" y="734" type="line"/>
      <point x="113" y="734" type="line"/>
      <point x="87" y="610" type="line"/>
      <point x="168" y="610" type="line"/>
      <point x="28" y="-44" type="line"/>
      <point x="-52" y="-44" type="line"/>
    </contour>
  </outline>
</glyph>
<glyph name="asciicircum" format="2">
  <advance width="458"/>
  <unicode hex="005E"/>
  <outline>
    <contour>
      <point x="-20" y="242" type="line"/>
      <point x="128" y="242" type="line"/>
      <point x="276" y="479" type="line"/>
      <point x="322" y="242" type="line"/>
      <point x="464" y="242" type="line"/>
      <point x="367" y="714" type="line"/>
      <point x="280" y="714" type="line"/>
    </contour>
  </outline>
</glyph>
<glyph name="grave" format="2">
  <advance width="328"/>
  <unicode hex="0060"/>
  <anchor x="276" y="530" name="_top"/>
  <outline>
    <contour>
      <point x="236" y="606" type="curve"/>
      <point x="358" y="606" type="line"/>
      <point x="359" y="619" type="line"/>
      <point x="341" y="680"/>
      <point x="329" y="728"/>
      <point x="322" y="766" type="curve"/>
      <point x="144" y="766" type="line"/>
      <point x="144" y="757" type="line"/>
      <point x="162" y="720"/>
      <point x="212" y="639"/>
    </contour>
  </outline>
</glyph>
<glyph name="b" format="2">
  <advance width="480"/>
  <unicode hex="0062"/>
  <anchor x="186" y="0" name="bottom"/>
  <anchor x="326" y="760" name="top"/>
  <anchor x="547" y="760" name="topright"/>
  <outline>
    <contour>
      <point x="247" y="-10" type="curve" smooth="yes"/>
      <point x="396" y="-10"/>
      <point x="470" y="245"/>
      <point x="470" y="400" type="curve" smooth="yes"/>
      <point x="470" y="500"/>
      <point x="426" y="563"/>
      <point x="361" y="563" type="curve" smooth="yes"/>
      <point x="318" y="563"/>
      <point x="286" y="550"/>
      <point x="252" y="506" type="curve"/>
      <point x="250" y="506" type="line"/>
      <point x="261" y="543"/>
      <point x="272" y="579"/>
      <point x="275" y="596" type="curve" smooth="yes"/>
      <point x="309" y="760" type="line"/>
      <point x="149" y="760" type="line"/>
      <point x="-13" y="0" type="line"/>
      <point x="117" y="0" type="line"/>
      <point x="146" y="57" type="line"/>
      <point x="149" y="57" type="line"/>
      <point x="170" y="14"/>
      <point x="202" y="-10"/>
    </contour>
    <contour>
      <point x="220" y="125" type="curve" smooth="yes"/>
      <point x="201" y="125"/>
      <point x="192" y="142"/>
      <point x="192" y="178" type="curve" smooth="yes"/>
      <point x="192" y="256"/>
      <point x="226" y="424"/>
      <point x="282" y="424" type="curve" smooth="yes"/>
      <point x="297" y="424"/>
      <point x="304" y="406"/>
      <point x="304" y="370" type="curve" smooth="yes"/>
      <point x="304" y="295"/>
      <point x="261" y="125"/>
    </contour>
  </outline>
</glyph>
<glyph name="c" format="2">
  <advance width="393"/>
  <unicode hex="0063"/>
  <anchor x="169" y="0" name="bottom"/>
  <anchor x="286" y="553" name="top"/>
  <anchor x="414" y="553" name="topright"/>
  <outline>
    <contour>
      <point x="174" y="-10" type="curve" smooth="yes"/>
      <point x="231" y="-10"/>
      <point x="291" y="13"/>
      <point x="326" y="40" type="curve"/>
      <point x="327" y="176" type="line"/>
      <point x="284" y="144"/>
      <point x="248" y="128"/>
      <point x="218" y="128" type="curve" smooth="yes"/>
      <point x="194" y="128"/>
      <point x="183" y="151"/>
      <point x="183" y="194" type="curve" smooth="yes"/>
      <point x="183" y="258"/>
      <point x="208" y="425"/>
      <point x="287" y="425" type="curve" smooth="yes"/>
      <point x="311" y="425"/>
      <point x="340" y="412"/>
      <point x="359" y="394" type="curve"/>
      <point x="425" y="520" type="line"/>
      <point x="384" y="549"/>
      <point x="340" y="563"/>
      <point x="286" y="563" type="curve" smooth="yes"/>
      <point x="88" y="563"/>
      <point x="18" y="334"/>
      <point x="18" y="169" type="curve" smooth="yes"/>
      <point x="18" y="60"/>
      <point x="74" y="-10"/>
    </contour>
  </outline>
</glyph>
<glyph name="e" format="2">
  <advance width="455"/>
  <unicode hex="0065"/>
  <anchor x="179" y="0" name="bottom"/>
  <anchor x="297" y="553" name="top"/>
  <anchor x="494" y="553" name="topright"/>
  <outline>
    <contour>
      <point x="196" y="-10" type="curve" smooth="yes"/>
      <point x="253" y="-10"/>
      <point x="309" y="1"/>
      <point x="368" y="40" type="curve"/>
      <point x="368" y="159" type="line"/>
      <point x="314" y="128"/>
      <point x="281" y="119"/>
      <point x="234" y="119" type="curve" smooth="yes"/>
      <point x="194" y="119"/>
      <point x="174" y="138"/>
      <point x="174" y="192" type="curve" smooth="yes"/>
      <point x="174" y="202"/>
      <point x="175" y="214"/>
      <point x="177" y="225" type="curve"/>
      <point x="187" y="225" type="line" smooth="yes"/>
      <point x="342" y="225"/>
      <point x="451" y="285"/>
      <point x="451" y="420" type="curve" smooth="yes"/>
      <point x="451" y="506"/>
      <point x="387" y="562"/>
      <point x="295" y="562" type="curve" smooth="yes"/>
      <point x="95" y="562"/>
      <point x="17" y="347"/>
      <point x="17" y="175" type="curve" smooth="yes"/>
      <point x="17" y="60"/>
      <point x="85" y="-10"/>
    </contour>
    <contour>
      <point x="203" y="339" type="curve"/>
      <point x="201" y="339" type="line"/>
      <point x="220" y="408"/>
      <point x="245" y="437"/>
      <point x="271" y="437" type="curve" smooth="yes"/>
      <point x="290" y="437"/>
      <point x="305" y="423"/>
      <point x="305" y="403" type="curve" smooth="yes"/>
      <point x="305" y="366"/>
      <point x="286" y="339"/>
    </contour>
  </outline>
</glyph>
<glyph name="f" format="2">
  <advance width="306"/>
  <unicode hex="0066"/>
  <anchor x="-35" y="-240" name="bottom"/>
  <anchor x="299" y="765" name="top"/>
  <anchor x="433" y="765" name="topright"/>
  <outline>
    <contour>
      <point x="-35" y="-240" type="curve" smooth="yes"/>
      <point x="84" y="-240"/>
      <point x="126" y="-170"/>
      <point x="153" y="-45" type="curve" smooth="yes"/>
      <point x="252" y="420" type="line"/>
      <point x="332" y="420" type="line"/>
      <point x="360" y="553" type="line"/>
      <point x="280" y="553" type="line"/>
      <point x="288" y="587" type="line"/>
      <point x="293" y="609"/>
      <point x="302" y="630"/>
      <point x="325" y="630" type="curve" smooth="yes"/>
      <point x="336" y="630"/>
      <point x="353" y="625"/>
      <point x="366" y="617" type="curve"/>
      <point x="421" y="737" type="line"/>
      <point x="380" y="758"/>
      <point x="340" y="765"/>
      <point x="302" y="765" type="curve" smooth="yes"/>
      <point x="175" y="765"/>
      <point x="141" y="654"/>
      <point x="126" y="582" type="curve" smooth="yes"/>
      <point x="119" y="548" type="line"/>
      <point x="56" y="503" type="line"/>
      <point x="39" y="420" type="line"/>
      <point x="91" y="420" type="line"/>
      <point x="-3" y="-32" type="line" smooth="yes"/>
      <point x="-10" y="-67"/>
      <point x="-16" y="-100"/>
      <point x="-58" y="-100" type="curve" smooth="yes"/>
      <point x="-70" y="-100"/>
      <point x="-96" y="-96"/>
      <point x="-107" y="-90" type="curve"/>
      <point x="-108" y="-229" type="line"/>
      <point x="-81" y="-239"/>
      <point x="-58" y="-240"/>
    </contour>
  </outline>
</glyph>
<glyph name="h" format="2">
  <advance width="484"/>
  <unicode hex="0068"/>
  <anchor x="188" y="0" name="bottom"/>
  <anchor x="243" y="265" name="center"/>
  <anchor x="225" y="760" name="top"/>
  <anchor x="542" y="760" name="topright"/>
  <outline>
    <contour>
      <point x="-13" y="0" type="line"/>
      <point x="148" y="0" type="line"/>
      <point x="213" y="310" type="line" smooth="yes"/>
      <point x="232" y="398"/>
      <point x="255" y="419"/>
      <point x="272" y="419" type="curve" smooth="yes"/>
      <point x="293" y="419"/>
      <point x="300" y="402"/>
      <point x="300" y="384" type="curve" smooth="yes"/>
      <point x="300" y="361"/>
      <point x="296" y="335"/>
      <point x="290" y="308" type="curve" smooth="yes"/>
      <point x="225" y="0" type="line"/>
      <point x="385" y="0" type="line"/>
      <point x="460" y="353" type="line" smooth="yes"/>
      <point x="466" y="379"/>
      <point x="469" y="409"/>
      <point x="469" y="432" type="curve" smooth="yes"/>
      <point x="469" y="511"/>
      <point x="428" y="563"/>
      <point x="357" y="563" type="curve" smooth="yes"/>
      <point x="308" y="563"/>
      <point x="275" y="541"/>
      <point x="246" y="500" type="curve"/>
      <point x="243" y="500" type="line"/>
      <point x="257" y="539"/>
      <point x="271" y="583"/>
      <point x="279" y="621" type="curve" smooth="yes"/>
      <point x="309" y="760" type="line"/>
      <point x="149" y="760" type="line"/>
    </contour>
  </outline>
</glyph>
<glyph name="i" format="2">
  <advance width="250"/>
  <unicode hex="0069"/>
  <anchor x="70" y="0" name="bottom"/>
  <anchor x="234" y="776" name="top"/>
  <anchor x="339" y="776" name="topright"/>
  <outline>
    <contour>
      <point x="-12" y="0" type="line"/>
      <point x="148" y="0" type="line"/>
      <point x="265" y="553" type="line"/>
      <point x="106" y="553" type="line"/>
    </contour>
    <contour>
      <point x="201" y="607" type="curve" smooth="yes"/>
      <point x="262" y="607"/>
      <point x="303" y="654"/>
      <point x="303" y="715" type="curve" smooth="yes"/>
      <point x="303" y="756"/>
      <point x="276" y="776"/>
      <point x="229" y="776" type="curve" smooth="yes"/>
      <point x="157" y="776"/>
      <point x="127" y="717"/>
      <point x="127" y="668" type="curve" smooth="yes"/>
      <point x="127" y="627"/>
      <point x="152" y="607"/>
    </contour>
  </outline>
</glyph>
<glyph name="j" format="2">
  <advance width="250"/>
  <unicode hex="006A"/>
  <anchor x="-50" y="-240" name="bottom"/>
  <anchor x="234" y="776" name="top"/>
  <anchor x="339" y="776" name="topright"/>
  <outline>
    <contour>
      <point x="-50" y="-240" type="curve" smooth="yes"/>
      <point x="69" y="-240"/>
      <point x="112" y="-170"/>
      <point x="138" y="-45" type="curve" smooth="yes"/>
      <point x="265" y="553" type="line"/>
      <point x="106" y="553" type="line"/>
      <point x="-18" y="-32" type="line" smooth="yes"/>
      <point x="-28" y="-79"/>
      <point x="-39" y="-100"/>
      <point x="-73" y="-100" type="curve" smooth="yes"/>
      <point x="-85" y="-100"/>
      <point x="-111" y="-96"/>
      <point x="-122" y="-90" type="curve"/>
      <point x="-123" y="-229" type="line"/>
      <point x="-96" y="-239"/>
      <point x="-73" y="-240"/>
    </contour>
    <contour>
      <point x="201" y="607" type="curve" smooth="yes"/>
      <point x="262" y="607"/>
      <point x="303" y="654"/>
      <point x="303" y="715" type="curve" smooth="yes"/>
      <point x="303" y="756"/>
      <point x="276" y="776"/>
      <point x="229" y="776" type="curve" smooth="yes"/>
      <point x="157" y="776"/>
      <point x="127" y="717"/>
      <point x="127" y="668" type="curve" smooth="yes"/>
      <point x="127" y="627"/>
      <point x="152" y="607"/>
    </contour>
  </outline>
</glyph>
<glyph name="l" format="2">
  <advance width="248"/>
  <unicode hex="006C"/>
  <anchor x="65" y="0" name="bottom"/>
  <anchor x="124" y="277" name="center"/>
  <anchor x="227" y="760" name="top"/>
  <anchor x="331" y="760" name="topright"/>
  <outline>
    <contour>
      <point x="-13" y="0" type="line"/>
      <point x="148" y="0" type="line"/>
      <point x="309" y="760" type="line"/>
      <point x="149" y="760" type="line"/>
    </contour>
  </outline>
</glyph>
<glyph name="m" format="2">
  <advance width="715"/>
  <unicode hex="006D"/>
  <anchor x="299" y="0" name="bottom"/>
  <anchor x="417" y="553" name="top"/>
  <anchor x="754" y="553" name="topright"/>
  <outline>
    <contour>
      <point x="-13" y="0" type="line"/>
      <point x="148" y="0" type="line"/>
      <point x="209" y="293" type="line" smooth="yes"/>
      <point x="220" y="345"/>
      <point x="242" y="419"/>
      <point x="276" y="419" type="curve" smooth="yes"/>
      <point x="290" y="419"/>
      <point x="297" y="408"/>
      <point x="297" y="384" type="curve" smooth="yes"/>
      <point x="297" y="366"/>
      <point x="291" y="336"/>
      <point x="285" y="307" type="curve" smooth="yes"/>
      <point x="221" y="0" type="line"/>
      <point x="380" y="0" type="line"/>
      <point x="442" y="293" type="line" smooth="yes"/>
      <point x="453" y="345"/>
      <point x="472" y="419"/>
      <point x="509" y="419" type="curve" smooth="yes"/>
      <point x="524" y="419"/>
      <point x="530" y="407"/>
      <point x="530" y="382" type="curve" smooth="yes"/>
      <point x="530" y="364"/>
      <point x="526" y="336"/>
      <point x="520" y="307" type="curve" smooth="yes"/>
      <point x="455" y="0" type="line"/>
      <point x="615" y="0" type="line"/>
      <point x="690" y="353" type="line" smooth="yes"/>
      <point x="697" y="386"/>
      <point x="702" y="418"/>
      <point x="702" y="442" type="curve" smooth="yes"/>
      <point x="702" y="518"/>
      <point x="663" y="563"/>
      <point x="593" y="563" type="curve" smooth="yes"/>
      <point x="546" y="563"/>
      <point x="499" y="536"/>
      <point x="466" y="495" type="curve"/>
      <point x="463" y="495" type="line"/>
      <point x="446" y="541"/>
      <point x="412" y="563"/>
      <point x="355" y="563" type="curve" smooth="yes"/>
      <point x="307" y="563"/>
      <point x="264" y="534"/>
      <point x="234" y="490" type="curve"/>
      <point x="230" y="490" type="line"/>
      <point x="233" y="553" type="line"/>
      <point x="105" y="553" type="line"/>
    </contour>
  </outline>
</glyph>
<glyph name="o" format="2">
  <advance width="472"/>
  <unicode hex="006F"/>
  <anchor x="177" y="0" name="bottom"/>
  <anchor x="236" y="277" name="center"/>
  <anchor x="295" y="553" name="top"/>
  <anchor x="511" y="553" name="topright"/>
  <outline>
    <contour>
      <point x="191" y="-10" type="curve" smooth="yes"/>
      <point x="382" y="-10"/>
      <point x="457" y="218"/>
      <point x="457" y="373" type="curve" smooth="yes"/>
      <point x="457" y="488"/>
      <point x="394" y="563"/>
      <point x="288" y="563" type="curve" smooth="yes"/>
      <point x="89" y="563"/>
      <point x="18" y="324"/>
      <point x="18" y="180" type="curve" smooth="yes"/>
      <point x="18" y="62"/>
      <point x="82" y="-10"/>
    </contour>
    <contour>
      <point x="210" y="125" type="curve" smooth="yes"/>
      <point x="188" y="125"/>
      <point x="179" y="145"/>
      <point x="179" y="179" type="curve" smooth="yes"/>
      <point x="179" y="260"/>
      <point x="214" y="428"/>
      <point x="266" y="428" type="curve" smooth="yes"/>
      <point x="288" y="428"/>
      <point x="296" y="409"/>
      <point x="296" y="373" type="curve" smooth="yes"/>
      <point x="296" y="293"/>
      <point x="260" y="125"/>
    </contour>
  </outline>
</glyph>
<glyph name="p" format="2">
  <advance width="481"/>
  <unicode hex="0070"/>
  <anchor x="10" y="-240" name="bottom"/>
  <anchor x="300" y="553" name="top"/>
  <anchor x="520" y="553" name="topright"/>
  <outline>
    <contour>
      <point x="-63" y="-240" type="line"/>
      <point x="96" y="-240" type="line"/>
      <point x="141" y="-30" type="line" smooth="yes"/>
      <point x="145" y="-13"/>
      <point x="150" y="21"/>
      <point x="154" y="58" type="curve"/>
      <point x="157" y="58" type="line"/>
      <point x="175" y="15"/>
      <point x="209" y="-10"/>
      <point x="252" y="-10" type="curve" smooth="yes"/>
      <point x="395" y="-10"/>
      <point x="470" y="239"/>
      <point x="470" y="398" type="curve" smooth="yes"/>
      <point x="470" y="510"/>
      <point x="425" y="563"/>
      <point x="357" y="563" type="curve" smooth="yes"/>
      <point x="312" y="563"/>
      <point x="275" y="542"/>
      <point x="237" y="483" type="curve"/>
      <point x="233" y="483" type="line"/>
      <point x="235" y="553" type="line"/>
      <point x="105" y="553" type="line"/>
    </contour>
    <contour>
      <point x="220" y="129" type="curve" smooth="yes"/>
      <point x="202" y="129"/>
      <point x="192" y="146"/>
      <point x="192" y="182" type="curve" smooth="yes"/>
      <point x="192" y="248"/>
      <point x="230" y="428"/>
      <point x="284" y="428" type="curve" smooth="yes"/>
      <point x="297" y="428"/>
      <point x="304" y="410"/>
      <point x="304" y="373" type="curve" smooth="yes"/>
      <point x="304" y="296"/>
      <point x="268" y="129"/>
    </contour>
  </outline>
</glyph>
<glyph name="q" format="2">
  <advance width="479"/>
  <unicode hex="0071"/>
  <anchor x="242" y="-240" name="bottom"/>
  <anchor x="299" y="553" name="top"/>
  <anchor x="518" y="553" name="topright"/>
  <outline>
    <contour>
      <point x="209" y="-42" type="curve" smooth="yes"/>
      <point x="167" y="-240" type="line"/>
      <point x="327" y="-240" type="line"/>
      <point x="496" y="553" type="line"/>
      <point x="356" y="553" type="line"/>
      <point x="334" y="487" type="line"/>
      <point x="332" y="487" type="line"/>
      <point x="316" y="541"/>
      <point x="291" y="563"/>
      <point x="237" y="563" type="curve" smooth="yes"/>
      <point x="85" y="563"/>
      <point x="13" y="290"/>
      <point x="13" y="147" type="curve" smooth="yes"/>
      <point x="13" y="48"/>
      <point x="57" y="-10"/>
      <point x="122" y="-10" type="curve" smooth="yes"/>
      <point x="165" y="-10"/>
      <point x="197" y="3"/>
      <point x="230" y="47" type="curve"/>
      <point x="233" y="47" type="line"/>
      <point x="222" y="11"/>
      <point x="213" y="-25"/>
    </contour>
    <contour>
      <point x="201" y="129" type="curve" smooth="yes"/>
      <point x="187" y="129"/>
      <point x="179" y="147"/>
      <point x="179" y="183" type="curve" smooth="yes"/>
      <point x="179" y="260"/>
      <point x="217" y="424"/>
      <point x="262" y="424" type="curve" smooth="yes"/>
      <point x="281" y="424"/>
      <point x="291" y="408"/>
      <point x="291" y="381" type="curve" smooth="yes"/>
      <point x="291" y="295"/>
      <point x="258" y="129"/>
    </contour>
  </outline>
</glyph>
<glyph name="s" format="2">
  <advance width="381"/>
  <unicode hex="0073"/>
  <anchor x="132" y="0" name="bottom"/>
  <anchor x="250" y="553" name="top"/>
  <anchor x="410" y="553" name="topright"/>
  <outline>
    <contour>
      <point x="142" y="-10" type="curve" smooth="yes"/>
      <point x="267" y="-10"/>
      <point x="340" y="80"/>
      <point x="340" y="184" type="curve" smooth="yes"/>
      <point x="340" y="262"/>
      <point x="313" y="296"/>
      <point x="267" y="337" type="curve" smooth="yes"/>
      <point x="225" y="375"/>
      <point x="219" y="384"/>
      <point x="219" y="402" type="curve" smooth="yes"/>
      <point x="219" y="423"/>
      <point x="236" y="434"/>
      <point x="254" y="434" type="curve" smooth="yes"/>
      <point x="272" y="434"/>
      <point x="306" y="423"/>
      <point x="338" y="394" type="curve"/>
      <point x="399" y="515" type="line"/>
      <point x="361" y="543"/>
      <point x="300" y="563"/>
      <point x="237" y="563" type="curve" smooth="yes"/>
      <point x="115" y="563"/>
      <point x="54" y="481"/>
      <point x="54" y="378" type="curve" smooth="yes"/>
      <point x="54" y="326"/>
      <point x="74" y="284"/>
      <point x="122" y="240" type="curve" smooth="yes"/>
      <point x="161" y="204"/>
      <point x="170" y="183"/>
      <point x="170" y="166" type="curve" smooth="yes"/>
      <point x="170" y="141"/>
      <point x="147" y="129"/>
      <point x="122" y="129" type="curve" smooth="yes"/>
      <point x="88" y="129"/>
      <point x="38" y="144"/>
      <point x="-1" y="171" type="curve"/>
      <point x="-2" y="23" type="line"/>
      <point x="38" y="0"/>
      <point x="72" y="-10"/>
    </contour>
  </outline>
</glyph>
<glyph name="t" format="2">
  <advance width="339"/>
  <unicode hex="0074"/>
  <anchor x="141" y="0" name="bottom"/>
  <anchor x="140" y="277" name="center"/>
  <anchor x="233" y="664" name="top"/>
  <anchor x="350" y="900" name="topright"/>
  <outline>
    <contour>
      <point x="155" y="-10" type="curve" smooth="yes"/>
      <point x="191" y="-10"/>
      <point x="250" y="-3"/>
      <point x="287" y="17" type="curve"/>
      <point x="288" y="145" type="line"/>
      <point x="263" y="134"/>
      <point x="237" y="130"/>
      <point x="227" y="130" type="curve" smooth="yes"/>
      <point x="208" y="130"/>
      <point x="201" y="138"/>
      <point x="201" y="158" type="curve" smooth="yes"/>
      <point x="201" y="165"/>
      <point x="203" y="175"/>
      <point x="205" y="184" type="curve" smooth="yes"/>
      <point x="254" y="420" type="line"/>
      <point x="347" y="420" type="line"/>
      <point x="376" y="553" type="line"/>
      <point x="283" y="553" type="line"/>
      <point x="307" y="664" type="line"/>
      <point x="194" y="664" type="line"/>
      <point x="138" y="548" type="line"/>
      <point x="63" y="503" type="line"/>
      <point x="45" y="420" type="line"/>
      <point x="94" y="420" type="line"/>
      <point x="50" y="207" type="line" smooth="yes"/>
      <point x="42" y="168"/>
      <point x="39" y="142"/>
      <point x="39" y="118" type="curve" smooth="yes"/>
      <point x="39" y="45"/>
      <point x="69" y="-10"/>
    </contour>
  </outline>
</glyph>
<glyph name="u" format="2">
  <advance width="484"/>
  <unicode hex="0075"/>
  <anchor x="143" y="0" name="bottom"/>
  <anchor x="301" y="553" name="top"/>
  <anchor x="519" y="553" name="topright"/>
  <outline>
    <contour>
      <point x="137" y="-10" type="curve" smooth="yes"/>
      <point x="184" y="-10"/>
      <point x="223" y="19"/>
      <point x="255" y="64" type="curve"/>
      <point x="258" y="64" type="line"/>
      <point x="256" y="0" type="line"/>
      <point x="384" y="0" type="line"/>
      <point x="501" y="553" type="line"/>
      <point x="341" y="553" type="line"/>
      <point x="280" y="269" type="line" smooth="yes"/>
      <point x="264" y="194"/>
      <point x="244" y="134"/>
      <point x="212" y="134" type="curve" smooth="yes"/>
      <point x="194" y="134"/>
      <point x="188" y="147"/>
      <point x="188" y="169" type="curve" smooth="yes"/>
      <point x="188" y="187"/>
      <point x="192" y="216"/>
      <point x="198" y="246" type="curve" smooth="yes"/>
      <point x="262" y="553" type="line"/>
      <point x="102" y="553" type="line"/>
      <point x="28" y="201" type="line" smooth="yes"/>
      <point x="22" y="172"/>
      <point x="19" y="142"/>
      <point x="19" y="119" type="curve" smooth="yes"/>
      <point x="19" y="40"/>
      <point x="60" y="-10"/>
    </contour>
  </outline>
</glyph>
<glyph name="v" format="2">
  <advance width="453"/>
  <unicode hex="0076"/>
  <anchor x="168" y="0" name="bottom"/>
  <anchor x="286" y="553" name="top"/>
  <anchor x="492" y="553" name="topright"/>
  <outline>
    <contour>
      <point x="84" y="0" type="line"/>
      <point x="254" y="0" type="line"/>
      <point x="510" y="553" type="line"/>
      <point x="340" y="553" type="line"/>
      <point x="237" y="293" type="line" smooth="yes"/>
      <point x="230" y="275"/>
      <point x="221" y="253"/>
      <point x="218" y="236" type="curve"/>
      <point x="214" y="236" type="line"/>
      <point x="219" y="270"/>
      <point x="218" y="303"/>
      <point x="219" y="336" type="curve" smooth="yes"/>
      <point x="223" y="553" type="line"/>
      <point x="63" y="553" type="line"/>
    </contour>
  </outline>
</glyph>
<glyph name="w" format="2">
  <advance width="670"/>
  <unicode hex="0077"/>
  <anchor x="276" y="0" name="bottom"/>
  <anchor x="394" y="553" name="top"/>
  <anchor x="709" y="553" name="topright"/>
  <outline>
    <contour>
      <point x="49" y="0" type="line"/>
      <point x="225" y="0" type="line"/>
      <point x="317" y="261" type="line" smooth="yes"/>
      <point x="326" y="287"/>
      <point x="334" y="311"/>
      <point x="343" y="339" type="curve"/>
      <point x="346" y="339" type="line"/>
      <point x="344" y="309"/>
      <point x="341" y="279"/>
      <point x="339" y="249" type="curve" smooth="yes"/>
      <point x="321" y="0" type="line"/>
      <point x="505" y="0" type="line"/>
      <point x="726" y="553" type="line"/>
      <point x="566" y="553" type="line"/>
      <point x="505" y="380" type="line" smooth="yes"/>
      <point x="491" y="339"/>
      <point x="476" y="290"/>
      <point x="464" y="249" type="curve"/>
      <point x="461" y="249" type="line"/>
      <point x="464" y="283"/>
      <point x="468" y="323"/>
      <point x="471" y="366" type="curve" smooth="yes"/>
      <point x="484" y="553" type="line"/>
      <point x="303" y="553" type="line"/>
      <point x="237" y="369" type="line" smooth="yes"/>
      <point x="224" y="331"/>
      <point x="210" y="290"/>
      <point x="201" y="260" type="curve"/>
      <point x="198" y="260" type="line"/>
      <point x="202" y="297"/>
      <point x="207" y="338"/>
      <point x="210" y="380" type="curve" smooth="yes"/>
      <point x="222" y="553" type="line"/>
      <point x="65" y="553" type="line"/>
    </contour>
  </outline>
</glyph>
<glyph name="x" format="2">
  <advance width="455"/>
  <unicode hex="0078"/>
  <anchor x="169" y="0" name="bottom"/>
  <anchor x="287" y="553" name="top"/>
  <anchor x="494" y="553" name="topright"/>
  <outline>
    <contour>
      <point x="-52" y="0" type="line"/>
      <point x="124" y="0" type="line"/>
      <point x="201" y="145" type="line"/>
      <point x="222" y="0" type="line"/>
      <point x="395" y="0" type="line"/>
      <point x="332" y="282" type="line"/>
      <point x="506" y="553" type="line"/>
      <point x="327" y="553" type="line"/>
      <point x="258" y="421" type="line"/>
      <point x="241" y="553" type="line"/>
      <point x="68" y="553" type="line"/>
      <point x="130" y="282" type="line"/>
    </contour>
  </outline>
</glyph>
<glyph name="y" format="2">
  <advance width="452"/>
  <unicode hex="0079"/>
  <anchor x="16" y="-240" name="bottom"/>
  <anchor x="285" y="553" name="top"/>
  <anchor x="491" y="553" name="topright"/>
  <outline>
    <contour>
      <point x="16" y="-240" type="curve" smooth="yes"/>
      <point x="126" y="-240"/>
      <point x="176" y="-163"/>
      <point x="224" y="-62" type="curve" smooth="yes"/>
      <point x="510" y="553" type="line"/>
      <point x="341" y="553" type="line"/>
      <point x="254" y="339" type="line" smooth="yes"/>
      <point x="246" y="320"/>
      <point x="233" y="278"/>
      <point x="225" y="245" type="curve"/>
      <point x="222" y="245" type="line"/>
      <point x="223" y="275"/>
      <point x="224" y="306"/>
      <point x="225" y="336" type="curve" smooth="yes"/>
      <point x="225" y="553" type="line"/>
      <point x="62" y="553" type="line"/>
      <point x="95" y="10" type="line"/>
      <point x="65" y="-52" type="line" smooth="yes"/>
      <point x="51" y="-81"/>
      <point x="39" y="-96"/>
      <point x="12" y="-96" type="curve" smooth="yes"/>
      <point x="1" y="-96"/>
      <point x="-12" y="-93"/>
      <point x="-29" y="-87" type="curve"/>
      <point x="-59" y="-230" type="line"/>
      <point x="-39" y="-237"/>
      <point x="-17" y="-240"/>
    </contour>
  </outline>
</glyph>
<glyph name="z" format="2">
  <advance width="387"/>
  <unicode hex="007A"/>
  <anchor x="135" y="0" name="bottom"/>
  <anchor x="253" y="553" name="top"/>
  <anchor x="426" y="553" name="topright"/>
  <outline>
    <contour>
      <point x="-41" y="0" type="line"/>
      <point x="312" y="0" type="line"/>
      <point x="341" y="135" type="line"/>
      <point x="179" y="135" type="line"/>
      <point x="400" y="449" type="line"/>
      <point x="422" y="553" type="line"/>
      <point x="86" y="553" type="line"/>
      <point x="56" y="418" type="line"/>
      <point x="210" y="418" type="line"/>
      <point x="-21" y="95" type="line"/>
    </contour>
  </outline>
</glyph>
<glyph name="braceleft" format="2">
  <advance width="339"/>
  <unicode hex="007B"/>
  <outline>
    <contour>
      <point x="242" y="-158" type="curve" smooth="yes"/>
      <point x="252" y="-158" type="line"/>
      <point x="252" y="-21" type="line"/>
      <point x="217" y="-21"/>
      <point x="209" y="-7"/>
      <point x="209" y="21" type="curve" smooth="yes"/>
      <point x="209" y="28"/>
      <point x="210" y="37"/>
      <point x="212" y="46" type="curve" smooth="yes"/>
      <point x="226" y="116" type="line" smooth="yes"/>
      <point x="230" y="137"/>
      <point x="233" y="157"/>
      <point x="233" y="174" type="curve" smooth="yes"/>
      <point x="233" y="218"/>
      <point x="207" y="256"/>
      <point x="147" y="276" type="curve"/>
      <point x="148" y="280" type="line"/>
      <point x="233" y="290"/>
      <point x="276" y="336"/>
      <point x="289" y="398" type="curve" smooth="yes"/>
      <point x="312" y="514" type="line" smooth="yes"/>
      <point x="322" y="565"/>
      <point x="340" y="577"/>
      <point x="386" y="577" type="curve"/>
      <point x="417" y="714" type="line"/>
      <point x="415" y="714" type="line" smooth="yes"/>
      <point x="271" y="714"/>
      <point x="190" y="699"/>
      <point x="160" y="556" type="curve" smooth="yes"/>
      <point x="135" y="436" type="line" smooth="yes"/>
      <point x="123" y="378"/>
      <point x="90" y="353"/>
      <point x="34" y="352" type="curve"/>
      <point x="4" y="212" type="line"/>
      <point x="62" y="212"/>
      <point x="73" y="194"/>
      <point x="73" y="156" type="curve" smooth="yes"/>
      <point x="73" y="143"/>
      <point x="70" y="132"/>
      <point x="69" y="124" type="curve" smooth="yes"/>
      <point x="52" y="45" type="line" smooth="yes"/>
      <point x="48" y="25"/>
      <point x="45" y="3"/>
      <point x="45" y="-18" type="curve" smooth="yes"/>
      <point x="45" y="-108"/>
      <point x="100" y="-158"/>
    </contour>
  </outline>
</glyph>
<glyph name="bar" format="2">
  <advance width="385"/>
  <unicode hex="007C"/>
  <outline>
    <contour>
      <point x="116" y="-229" type="line"/>
      <point x="256" y="-229" type="line"/>
      <point x="256" y="771" type="line"/>
      <point x="116" y="771" type="line"/>
    </contour>
  </outline>
</glyph>
<glyph name="braceright" format="2">
  <advance width="340"/>
  <unicode hex="007D"/>
  <outline>
    <contour>
      <point x="-56" y="-21" type="curve"/>
      <point x="-57" y="-158" type="line"/>
      <point x="-55" y="-158" type="line" smooth="yes"/>
      <point x="88" y="-158"/>
      <point x="151" y="-138"/>
      <point x="180" y="0" type="curve" smooth="yes"/>
      <point x="205" y="120" type="line" smooth="yes"/>
      <point x="216" y="172"/>
      <point x="252" y="203"/>
      <point x="307" y="204" type="curve"/>
      <point x="337" y="344" type="line"/>
      <point x="278" y="344"/>
      <point x="268" y="362"/>
      <point x="268" y="400" type="curve" smooth="yes"/>
      <point x="268" y="413"/>
      <point x="269" y="424"/>
      <point x="271" y="433" type="curve" smooth="yes"/>
      <point x="288" y="510" type="line" smooth="yes"/>
      <point x="293" y="531"/>
      <point x="295" y="564"/>
      <point x="295" y="584" type="curve" smooth="yes"/>
      <point x="295" y="673"/>
      <point x="249" y="714"/>
      <point x="114" y="714" type="curve" smooth="yes"/>
      <point x="108" y="714" type="line"/>
      <point x="78" y="577" type="line"/>
      <point x="114" y="577"/>
      <point x="131" y="562"/>
      <point x="131" y="534" type="curve" smooth="yes"/>
      <point x="131" y="527"/>
      <point x="130" y="519"/>
      <point x="128" y="510" type="curve" smooth="yes"/>
      <point x="114" y="440" type="line" smooth="yes"/>
      <point x="110" y="419"/>
      <point x="108" y="398"/>
      <point x="108" y="382" type="curve" smooth="yes"/>
      <point x="108" y="337"/>
      <point x="133" y="300"/>
      <point x="194" y="280" type="curve"/>
      <point x="193" y="276" type="line"/>
      <point x="107" y="266"/>
      <point x="63" y="219"/>
      <point x="51" y="157" type="curve" smooth="yes"/>
      <point x="28" y="42" type="line" smooth="yes"/>
      <point x="18" y="-7"/>
      <point x="-9" y="-21"/>
    </contour>
  </outline>
</glyph>
<glyph name="asciitilde" format="2">
  <advance width="490"/>
  <unicode hex="007E"/>
  <outline>
    <contour>
      <point x="248" y="289" type="curve" smooth="yes"/>
      <point x="290" y="269"/>
      <point x="329" y="258"/>
      <point x="369" y="258" type="curve" smooth="yes"/>
      <point x="414" y="258"/>
      <point x="452" y="275"/>
      <point x="483" y="311" type="curve"/>
      <point x="483" y="448" type="line"/>
      <point x="450" y="411"/>
      <point x="412" y="389"/>
      <point x="384" y="389" type="curve" smooth="yes"/>
      <point x="353" y="389"/>
      <point x="319" y="398"/>
      <point x="282" y="416" type="curve" smooth="yes"/>
      <point x="243" y="435"/>
      <point x="203" y="447"/>
      <point x="161" y="447" type="curve" smooth="yes"/>
      <point x="115" y="447"/>
      <point x="77" y="429"/>
      <point x="47" y="394" type="curve"/>
      <point x="47" y="257" type="line"/>
      <point x="82" y="296"/>
      <point x="115" y="316"/>
      <point x="147" y="316" type="curve" smooth="yes"/>
      <point x="177" y="316"/>
      <point x="210" y="307"/>
    </contour>
  </outline>
</glyph>
<glyph name="exclamdown" format="2">
  <advance width="255"/>
  <unicode hex="00A1"/>
  <outline>
    <contour>
      <point x="-59" y="-180" type="line"/>
      <point x="124" y="-180" type="line"/>
      <point x="204" y="299" type="line"/>
      <point x="63" y="299" type="line"/>
    </contour>
    <contour>
      <point x="149" y="376" type="curve" smooth="yes"/>
      <point x="224" y="376"/>
      <point x="264" y="433"/>
      <point x="264" y="495" type="curve" smooth="yes"/>
      <point x="264" y="540"/>
      <point x="237" y="563"/>
      <point x="186" y="563" type="curve" smooth="yes"/>
      <point x="130" y="563"/>
      <point x="79" y="516"/>
      <point x="79" y="443" type="curve" smooth="yes"/>
      <point x="79" y="400"/>
      <point x="106" y="376"/>
    </contour>
  </outline>
</glyph>
<glyph name="cent" format="2">
  <advance width="468"/>
  <unicode hex="00A2"/>
  <outline>
    <contour>
      <point x="169" y="82" type="curve"/>
      <point x="148" y="-10" type="line"/>
      <point x="240" y="-10" type="line"/>
      <point x="260" y="82" type="line"/>
      <point x="293" y="88"/>
      <point x="352" y="102"/>
      <point x="393" y="139" type="curve"/>
      <point x="350" y="249" type="line"/>
      <point x="315" y="226"/>
      <point x="285" y="215"/>
      <point x="260" y="215" type="curve" smooth="yes"/>
      <point x="236" y="215"/>
      <point x="225" y="237"/>
      <point x="225" y="281" type="curve" smooth="yes"/>
      <point x="225" y="370"/>
      <point x="267" y="512"/>
      <point x="335" y="512" type="curve" smooth="yes"/>
      <point x="352" y="512"/>
      <point x="382" y="497"/>
      <point x="400" y="479" type="curve"/>
      <point x="467" y="607" type="line"/>
      <point x="444" y="624"/>
      <point x="413" y="640"/>
      <point x="380" y="646" type="curve"/>
      <point x="396" y="724" type="line"/>
      <point x="305" y="724" type="line"/>
      <point x="289" y="646" type="line"/>
      <point x="130" y="621"/>
      <point x="60" y="410"/>
      <point x="60" y="270" type="curve" smooth="yes"/>
      <point x="60" y="157"/>
      <point x="91" y="98"/>
    </contour>
  </outline>
</glyph>
<glyph name="sterling" format="2">
  <advance width="468"/>
  <unicode hex="00A3"/>
  <outline>
    <contour>
      <point x="20" y="138" type="curve"/>
      <point x="-11" y="0" type="line"/>
      <point x="375" y="0" type="line"/>
      <point x="407" y="146" type="line"/>
      <point x="176" y="146" type="line"/>
      <point x="221" y="173"/>
      <point x="254" y="211"/>
      <point x="262" y="257" type="curve" smooth="yes"/>
      <point x="271" y="307" type="line"/>
      <point x="384" y="307" type="line"/>
      <point x="411" y="429" type="line"/>
      <point x="297" y="429" type="line"/>
      <point x="314" y="510" type="line" smooth="yes"/>
      <point x="323" y="554"/>
      <point x="338" y="577"/>
      <point x="369" y="577" type="curve" smooth="yes"/>
      <point x="390" y="577"/>
      <point x="418" y="567"/>
      <point x="442" y="549" type="curve"/>
      <point x="506" y="683" type="line"/>
      <point x="470" y="709"/>
      <point x="413" y="724"/>
      <point x="364" y="724" type="curve" smooth="yes"/>
      <point x="243" y="724"/>
      <point x="183" y="647"/>
      <point x="157" y="530" type="curve" smooth="yes"/>
      <point x="135" y="429" type="line"/>
      <point x="80" y="429" type="line"/>
      <point x="54" y="307" type="line"/>
      <point x="110" y="307" type="line"/>
      <point x="100" y="256" type="line" smooth="yes"/>
      <point x="89" y="199"/>
      <point x="66" y="168"/>
    </contour>
  </outline>
</glyph>
<glyph name="currency" format="2">
  <advance width="463"/>
  <unicode hex="00A4"/>
  <outline>
    <contour>
      <point x="350" y="183" type="curve"/>
      <point x="412" y="121" type="line"/>
      <point x="483" y="193" type="line"/>
      <point x="424" y="254" type="line"/>
      <point x="440" y="283"/>
      <point x="448" y="317"/>
      <point x="448" y="354" type="curve" smooth="yes"/>
      <point x="448" y="389"/>
      <point x="440" y="421"/>
      <point x="424" y="451" type="curve"/>
      <point x="487" y="515" type="line"/>
      <point x="414" y="586" type="line"/>
      <point x="351" y="522" type="line"/>
      <point x="323" y="540"/>
      <point x="291" y="549"/>
      <point x="257" y="549" type="curve" smooth="yes"/>
      <point x="224" y="549"/>
      <point x="190" y="541"/>
      <point x="162" y="523" type="curve"/>
      <point x="101" y="586" type="line"/>
      <point x="27" y="513" type="line"/>
      <point x="90" y="450" type="line"/>
      <point x="72" y="418"/>
      <point x="64" y="386"/>
      <point x="64" y="352" type="curve" smooth="yes"/>
      <point x="64" y="317"/>
      <point x="72" y="285"/>
      <point x="89" y="256" type="curve"/>
      <point x="27" y="194" type="line"/>
      <point x="99" y="122" type="line"/>
      <point x="160" y="183" type="line"/>
      <point x="186" y="167"/>
      <point x="219" y="158"/>
      <point x="255" y="158" type="curve" smooth="yes"/>
      <point x="288" y="158"/>
      <point x="321" y="167"/>
    </contour>
    <contour>
      <point x="255" y="260" type="curve" smooth="yes"/>
      <point x="206" y="260"/>
      <point x="166" y="302"/>
      <point x="166" y="353" type="curve" smooth="yes"/>
      <point x="166" y="405"/>
      <point x="207" y="447"/>
      <point x="257" y="447" type="curve" smooth="yes"/>
      <point x="308" y="447"/>
      <point x="349" y="404"/>
      <point x="349" y="353" type="curve" smooth="yes"/>
      <point x="349" y="302"/>
      <point x="307" y="260"/>
    </contour>
  </outline>
</glyph>
<glyph name="yen" format="2">
  <advance width="468"/>
  <unicode hex="00A5"/>
  <outline>
    <contour>
      <point x="96" y="0" type="line"/>
      <point x="258" y="0" type="line"/>
      <point x="279" y="103" type="line"/>
      <point x="388" y="103" type="line"/>
      <point x="411" y="206" type="line"/>
      <point x="302" y="206" type="line"/>
      <point x="314" y="264" type="line"/>
      <point x="422" y="264" type="line"/>
      <point x="445" y="367" type="line"/>
      <point x="358" y="367" type="line"/>
      <point x="556" y="714" type="line"/>
      <point x="381" y="714" type="line"/>
      <point x="280" y="495" type="line"/>
      <point x="270" y="714" type="line"/>
      <point x="100" y="714" type="line"/>
      <point x="150" y="367" type="line"/>
      <point x="65" y="367" type="line"/>
      <point x="43" y="264" type="line"/>
      <point x="152" y="264" type="line"/>
      <point x="141" y="206" type="line"/>
      <point x="31" y="206" type="line"/>
      <point x="9" y="103" type="line"/>
      <point x="118" y="103" type="line"/>
    </contour>
  </outline>
</glyph>
<glyph name="brokenbar" format="2">
  <advance width="385"/>
  <unicode hex="00A6"/>
  <outline>
    <contour>
      <point x="124" y="390" type="line"/>
      <point x="264" y="390" type="line"/>
      <point x="264" y="771" type="line"/>
      <point x="124" y="771" type="line"/>
    </contour>
    <contour>
      <point x="121" y="-229" type="line"/>
      <point x="261" y="-229" type="line"/>
      <point x="261" y="152" type="line"/>
      <point x="121" y="152" type="line"/>
    </contour>
  </outline>
</glyph>
<glyph name="section" format="2">
  <advance width="437"/>
  <unicode hex="00A7"/>
  <outline>
    <contour>
      <point x="170" y="-18" type="curve" smooth="yes"/>
      <point x="282" y="-18"/>
      <point x="353" y="65"/>
      <point x="353" y="162" type="curve" smooth="yes"/>
      <point x="353" y="209"/>
      <point x="339" y="238"/>
      <point x="323" y="257" type="curve"/>
      <point x="379" y="302"/>
      <point x="415" y="343"/>
      <point x="415" y="416" type="curve" smooth="yes"/>
      <point x="415" y="464"/>
      <point x="390" y="501"/>
      <point x="320" y="550" type="curve" smooth="yes"/>
      <point x="287" y="573"/>
      <point x="272" y="588"/>
      <point x="272" y="606" type="curve" smooth="yes"/>
      <point x="272" y="632"/>
      <point x="289" y="651"/>
      <point x="313" y="651" type="curve" smooth="yes"/>
      <point x="347" y="651"/>
      <point x="384" y="638"/>
      <point x="414" y="612" type="curve"/>
      <point x="470" y="718" type="line"/>
      <point x="424" y="747"/>
      <point x="370" y="761"/>
      <point x="307" y="761" type="curve" smooth="yes"/>
      <point x="191" y="761"/>
      <point x="131" y="674"/>
      <point x="131" y="603" type="curve" smooth="yes"/>
      <point x="131" y="554"/>
      <point x="144" y="527"/>
      <point x="168" y="501" type="curve"/>
      <point x="111" y="469"/>
      <point x="71" y="424"/>
      <point x="71" y="350" type="curve" smooth="yes"/>
      <point x="71" y="290"/>
      <point x="98" y="251"/>
      <point x="153" y="214" type="curve" smooth="yes"/>
      <point x="177" y="198"/>
      <point x="211" y="180"/>
      <point x="211" y="150" type="curve" smooth="yes"/>
      <point x="211" y="115"/>
      <point x="191" y="93"/>
      <point x="157" y="93" type="curve" smooth="yes"/>
      <point x="129" y="93"/>
      <point x="80" y="105"/>
      <point x="31" y="147" type="curve"/>
      <point x="30" y="21" type="line"/>
      <point x="66" y="-5"/>
      <point x="115" y="-18"/>
    </contour>
    <contour>
      <point x="257" y="310" type="curve"/>
      <point x="222" y="334"/>
      <point x="207" y="357"/>
      <point x="207" y="387" type="curve" smooth="yes"/>
      <point x="207" y="411"/>
      <point x="214" y="439"/>
      <point x="232" y="452" type="curve"/>
      <point x="271" y="425"/>
      <point x="278" y="406"/>
      <point x="278" y="379" type="curve" smooth="yes"/>
      <point x="278" y="352"/>
      <point x="268" y="324"/>
    </contour>
  </outline>
</glyph>
<glyph name="dieresis" format="2">
  <advance width="419"/>
  <unicode hex="00A8"/>
  <outline>
    <contour>
      <point x="381" y="614" type="curve" smooth="yes"/>
      <point x="426" y="614"/>
      <point x="468" y="653"/>
      <point x="468" y="712" type="curve" smooth="yes"/>
      <point x="468" y="747"/>
      <point x="447" y="767"/>
      <point x="411" y="767" type="curve" smooth="yes"/>
      <point x="351" y="767"/>
      <point x="319" y="720"/>
      <point x="319" y="670" type="curve" smooth="yes"/>
      <point x="319" y="633"/>
      <point x="341" y="614"/>
    </contour>
    <contour>
      <point x="194" y="614" type="curve" smooth="yes"/>
      <point x="239" y="614"/>
      <point x="281" y="653"/>
      <point x="281" y="712" type="curve" smooth="yes"/>
      <point x="281" y="747"/>
      <point x="259" y="767"/>
      <point x="224" y="767" type="curve" smooth="yes"/>
      <point x="164" y="767"/>
      <point x="132" y="720"/>
      <point x="132" y="670" type="curve" smooth="yes"/>
      <point x="132" y="633"/>
      <point x="153" y="614"/>
    </contour>
  </outline>
</glyph>
<glyph name="copyright" format="2">
  <advance width="808"/>
  <unicode hex="00A9"/>
  <outline>
    <contour>
      <point x="425" y="-10" type="curve" smooth="yes"/>
      <point x="619" y="-10"/>
      <point x="786" y="151"/>
      <point x="786" y="358" type="curve" smooth="yes"/>
      <point x="786" y="559"/>
      <point x="626" y="724"/>
      <point x="428" y="724" type="curve" smooth="yes"/>
      <point x="238" y="724"/>
      <point x="67" y="564"/>
      <point x="67" y="356" type="curve" smooth="yes"/>
      <point x="67" y="167"/>
      <point x="214" y="-10"/>
    </contour>
    <contour>
      <point x="442" y="128" type="curve" smooth="yes"/>
      <point x="490" y="128"/>
      <point x="533" y="138"/>
      <point x="574" y="159" type="curve"/>
      <point x="574" y="262" type="line"/>
      <point x="536" y="240"/>
      <point x="494" y="229"/>
      <point x="450" y="229" type="curve" smooth="yes"/>
      <point x="384" y="229"/>
      <point x="355" y="267"/>
      <point x="355" y="356" type="curve" smooth="yes"/>
      <point x="355" y="440"/>
      <point x="390" y="484"/>
      <point x="448" y="484" type="curve" smooth="yes"/>
      <point x="481" y="484"/>
      <point x="515" y="475"/>
      <point x="549" y="457" type="curve"/>
      <point x="594" y="547" type="line"/>
      <point x="544" y="572"/>
      <point x="492" y="585"/>
      <point x="439" y="585" type="curve" smooth="yes"/>
      <point x="305" y="585"/>
      <point x="230" y="499"/>
      <point x="230" y="357" type="curve" smooth="yes"/>
      <point x="230" y="212"/>
      <point x="291" y="128"/>
    </contour>
    <contour>
      <point x="425" y="64" type="curve" smooth="yes"/>
      <point x="278" y="64"/>
      <point x="140" y="186"/>
      <point x="140" y="356" type="curve" smooth="yes"/>
      <point x="140" y="511"/>
      <point x="264" y="650"/>
      <point x="428" y="650" type="curve" smooth="yes"/>
      <point x="579" y="650"/>
      <point x="713" y="523"/>
      <point x="713" y="358" type="curve" smooth="yes"/>
      <point x="713" y="203"/>
      <point x="589" y="64"/>
    </contour>
  </outline>
</glyph>
<glyph name="ordfeminine" format="2">
  <advance width="325"/>
  <unicode hex="00AA"/>
  <anchor x="179" y="357" name="bottom"/>
  <anchor x="251" y="719" name="top"/>
  <outline>
    <contour>
      <point x="169" y="356" type="curve" smooth="yes"/>
      <point x="207" y="356"/>
      <point x="231" y="377"/>
      <point x="247" y="404" type="curve"/>
      <point x="251" y="404" type="line"/>
      <point x="247" y="362" type="line"/>
      <point x="329" y="362" type="line"/>
      <point x="405" y="714" type="line"/>
      <point x="328" y="714" type="line"/>
      <point x="310" y="672" type="line"/>
      <point x="306" y="672" type="line"/>
      <point x="295" y="701"/>
      <point x="273" y="720"/>
      <point x="237" y="720" type="curve" smooth="yes"/>
      <point x="129" y="720"/>
      <point x="69" y="592"/>
      <point x="69" y="488" type="curve" smooth="yes"/>
      <point x="69" y="386"/>
      <point x="127" y="356"/>
    </contour>
    <contour>
      <point x="196" y="447" type="curve" smooth="yes"/>
      <point x="184" y="447"/>
      <point x="179" y="460"/>
      <point x="179" y="493" type="curve" smooth="yes"/>
      <point x="179" y="560"/>
      <point x="202" y="631"/>
      <point x="235" y="631" type="curve" smooth="yes"/>
      <point x="248" y="631"/>
      <point x="255" y="614"/>
      <point x="255" y="576" type="curve" smooth="yes"/>
      <point x="255" y="524"/>
      <point x="232" y="447"/>
    </contour>
  </outline>
</glyph>
<glyph name="logicalnot" format="2">
  <advance width="490"/>
  <unicode hex="00AC"/>
  <outline>
    <contour>
      <point x="472" y="418" type="line"/>
      <point x="53" y="418" type="line"/>
      <point x="53" y="287" type="line"/>
      <point x="337" y="287" type="line"/>
      <point x="337" y="116" type="line"/>
      <point x="472" y="116" type="line"/>
    </contour>
  </outline>
</glyph>
<glyph name="overscore" format="2">
  <advance width="454"/>
  <unicode hex="00AF"/>
  <outline>
    <contour>
      <point x="103" y="760" type="line"/>
      <point x="561" y="760" type="line"/>
      <point x="587" y="880" type="line"/>
      <point x="129" y="880" type="line"/>
    </contour>
  </outline>
</glyph>
<glyph name="degree" format="2">
  <advance width="410"/>
  <unicode hex="00B0"/>
  <outline>
    <contour>
      <point x="254" y="367" type="curve" smooth="yes"/>
      <point x="356" y="367"/>
      <point x="432" y="447"/>
      <point x="432" y="545" type="curve" smooth="yes"/>
      <point x="432" y="643"/>
      <point x="359" y="724"/>
      <point x="255" y="724" type="curve" smooth="yes"/>
      <point x="160" y="724"/>
      <point x="78" y="650"/>
      <point x="78" y="543" type="curve" smooth="yes"/>
      <point x="78" y="443"/>
      <point x="153" y="367"/>
    </contour>
    <contour>
      <point x="254" y="476" type="curve" smooth="yes"/>
      <point x="218" y="476"/>
      <point x="188" y="508"/>
      <point x="188" y="544" type="curve" smooth="yes"/>
      <point x="188" y="581"/>
      <point x="216" y="615"/>
      <point x="255" y="615" type="curve" smooth="yes"/>
      <point x="294" y="615"/>
      <point x="322" y="581"/>
      <point x="322" y="544" type="curve" smooth="yes"/>
      <point x="322" y="510"/>
      <point x="292" y="476"/>
    </contour>
  </outline>
</glyph>
<glyph name="plusminus" format="2">
  <advance width="489"/>
  <unicode hex="00B1"/>
  <outline>
    <contour>
      <point x="73" y="0" type="line"/>
      <point x="496" y="0" type="line"/>
      <point x="496" y="131" type="line"/>
      <point x="73" y="131" type="line"/>
    </contour>
    <component base="plus" xOffset="20" yOffset="60"/>
  </outline>
</glyph>
<glyph name="twosuperior" format="2">
  <advance width="332"/>
  <unicode hex="00B2"/>
  <outline>
    <contour>
      <point x="69" y="416" type="line"/>
      <point x="324" y="416" type="line"/>
      <point x="347" y="521" type="line"/>
      <point x="215" y="521" type="line"/>
      <point x="285" y="586" type="line" smooth="yes"/>
      <point x="335" y="633"/>
      <point x="390" y="688"/>
      <point x="390" y="757" type="curve" smooth="yes"/>
      <point x="390" y="816"/>
      <point x="353" y="855"/>
      <point x="282" y="855" type="curve" smooth="yes"/>
      <point x="231" y="855"/>
      <point x="175" y="831"/>
      <point x="139" y="788" type="curve"/>
      <point x="175" y="710" type="line"/>
      <point x="193" y="729"/>
      <point x="222" y="756"/>
      <point x="243" y="756" type="curve" smooth="yes"/>
      <point x="257" y="756"/>
      <point x="263" y="746"/>
      <point x="263" y="732" type="curve" smooth="yes"/>
      <point x="263" y="699"/>
      <point x="236" y="672"/>
      <point x="189" y="621" type="curve" smooth="yes"/>
      <point x="91" y="515" type="line"/>
    </contour>
  </outline>
</glyph>
<glyph name="threesuperior" format="2">
  <advance width="332"/>
  <unicode hex="00B3"/>
  <outline>
    <contour>
      <point x="188" y="408" type="curve" smooth="yes"/>
      <point x="287" y="408"/>
      <point x="354" y="456"/>
      <point x="354" y="553" type="curve" smooth="yes"/>
      <point x="354" y="600"/>
      <point x="332" y="625"/>
      <point x="302" y="637" type="curve"/>
      <point x="303" y="641" type="line"/>
      <point x="365" y="665"/>
      <point x="389" y="705"/>
      <point x="389" y="755" type="curve" smooth="yes"/>
      <point x="389" y="812"/>
      <point x="357" y="853"/>
      <point x="273" y="853" type="curve" smooth="yes"/>
      <point x="232" y="853"/>
      <point x="180" y="841"/>
      <point x="136" y="800" type="curve"/>
      <point x="176" y="722" type="line"/>
      <point x="204" y="745"/>
      <point x="224" y="755"/>
      <point x="244" y="755" type="curve" smooth="yes"/>
      <point x="258" y="755"/>
      <point x="270" y="747"/>
      <point x="270" y="728" type="curve" smooth="yes"/>
      <point x="270" y="696"/>
      <point x="250" y="676"/>
      <point x="216" y="676" type="curve" smooth="yes"/>
      <point x="178" y="676" type="line"/>
      <point x="159" y="587" type="line"/>
      <point x="205" y="587" type="line" smooth="yes"/>
      <point x="228" y="587"/>
      <point x="241" y="574"/>
      <point x="241" y="557" type="curve" smooth="yes"/>
      <point x="241" y="526"/>
      <point x="220" y="511"/>
      <point x="192" y="511" type="curve" smooth="yes"/>
      <point x="149" y="511"/>
      <point x="109" y="527"/>
      <point x="85" y="554" type="curve"/>
      <point x="85" y="443" type="line"/>
      <point x="110" y="421"/>
      <point x="144" y="408"/>
    </contour>
  </outline>
</glyph>
<glyph name="acute" format="2">
  <advance width="327"/>
  <unicode hex="00B4"/>
  <anchor x="191" y="530" name="_top"/>
  <outline>
    <contour>
      <point x="113" y="617" type="curve"/>
      <point x="110" y="606" type="line"/>
      <point x="229" y="606" type="line"/>
      <point x="255" y="630"/>
      <point x="359" y="727"/>
      <point x="389" y="758" type="curve"/>
      <point x="390" y="766" type="line"/>
      <point x="213" y="766" type="line"/>
      <point x="182" y="714"/>
      <point x="148" y="666"/>
    </contour>
  </outline>
</glyph>
<glyph name="micro" format="2">
  <advance width="484"/>
  <unicode hex="00B5"/>
  <outline>
    <contour>
      <point x="-65" y="-240" type="line"/>
      <point x="95" y="-240" type="line"/>
      <point x="127" y="-85" type="line" smooth="yes"/>
      <point x="135" y="-50"/>
      <point x="137" y="-16"/>
      <point x="137" y="13" type="curve"/>
      <point x="140" y="13" type="line"/>
      <point x="150" y="-2"/>
      <point x="162" y="-10"/>
      <point x="177" y="-10" type="curve" smooth="yes"/>
      <point x="202" y="-10"/>
      <point x="228" y="3"/>
      <point x="254" y="55" type="curve"/>
      <point x="257" y="55" type="line"/>
      <point x="258" y="0" type="line"/>
      <point x="384" y="0" type="line"/>
      <point x="501" y="553" type="line"/>
      <point x="341" y="553" type="line"/>
      <point x="278" y="256" type="line" smooth="yes"/>
      <point x="256" y="151"/>
      <point x="233" y="134"/>
      <point x="211" y="134" type="curve" smooth="yes"/>
      <point x="194" y="134"/>
      <point x="188" y="148"/>
      <point x="188" y="174" type="curve" smooth="yes"/>
      <point x="188" y="193"/>
      <point x="192" y="216"/>
      <point x="198" y="246" type="curve" smooth="yes"/>
      <point x="262" y="553" type="line"/>
      <point x="103" y="553" type="line"/>
    </contour>
  </outline>
</glyph>
<glyph name="paragraph" format="2">
  <advance width="532"/>
  <unicode hex="00B6"/>
  <outline>
    <contour>
      <point x="263" y="269" type="curve"/>
      <point x="263" y="-127" type="line"/>
      <point x="352" y="-127" type="line"/>
      <point x="352" y="682" type="line"/>
      <point x="404" y="682" type="line"/>
      <point x="404" y="-127" type="line"/>
      <point x="493" y="-127" type="line"/>
      <point x="493" y="760" type="line"/>
      <point x="240" y="760" type="line" smooth="yes"/>
      <point x="112" y="760"/>
      <point x="76" y="631"/>
      <point x="76" y="520" type="curve" smooth="yes"/>
      <point x="76" y="412"/>
      <point x="101" y="264"/>
      <point x="228" y="264" type="curve" smooth="yes"/>
      <point x="243" y="264"/>
      <point x="252" y="265"/>
    </contour>
  </outline>
</glyph>
<glyph name="cedilla" format="2">
  <advance width="139"/>
  <unicode hex="00B8"/>
  <outline>
    <contour>
      <point x="-48" y="-240" type="curve" smooth="yes"/>
      <point x="27" y="-240"/>
      <point x="89" y="-209"/>
      <point x="89" y="-115" type="curve" smooth="yes"/>
      <point x="89" y="-67"/>
      <point x="59" y="-40"/>
      <point x="20" y="-34" type="curve"/>
      <point x="39" y="0" type="line"/>
      <point x="-36" y="0" type="line"/>
      <point x="-85" y="-83" type="line"/>
      <point x="-53" y="-83"/>
      <point x="-36" y="-96"/>
      <point x="-36" y="-115" type="curve" smooth="yes"/>
      <point x="-36" y="-138"/>
      <point x="-49" y="-149"/>
      <point x="-74" y="-149" type="curve" smooth="yes"/>
      <point x="-92" y="-149"/>
      <point x="-113" y="-145"/>
      <point x="-129" y="-141" type="curve"/>
      <point x="-129" y="-229" type="line"/>
      <point x="-102" y="-238"/>
      <point x="-76" y="-240"/>
    </contour>
  </outline>
</glyph>
<glyph name="onesuperior" format="2">
  <advance width="332"/>
  <unicode hex="00B9"/>
  <outline>
    <contour>
      <point x="213" y="640" type="curve" smooth="yes"/>
      <point x="166" y="416" type="line"/>
      <point x="284" y="416" type="line"/>
      <point x="375" y="844" type="line"/>
      <point x="280" y="844" type="line"/>
      <point x="115" y="711" type="line"/>
      <point x="164" y="642" type="line"/>
      <point x="214" y="681" type="line" smooth="yes"/>
      <point x="217" y="684"/>
      <point x="224" y="691"/>
      <point x="229" y="697" type="curve"/>
      <point x="223" y="679"/>
      <point x="218" y="663"/>
    </contour>
  </outline>
</glyph>
<glyph name="ordmasculine" format="2">
  <advance width="318"/>
  <unicode hex="00BA"/>
  <anchor x="176" y="355" name="bottom"/>
  <anchor x="242" y="720" name="top"/>
  <outline>
    <contour>
      <point x="186" y="355" type="curve" smooth="yes"/>
      <point x="294" y="355"/>
      <point x="365" y="471"/>
      <point x="365" y="588" type="curve" smooth="yes"/>
      <point x="365" y="680"/>
      <point x="314" y="722"/>
      <point x="249" y="722" type="curve" smooth="yes"/>
      <point x="133" y="722"/>
      <point x="69" y="605"/>
      <point x="69" y="489" type="curve" smooth="yes"/>
      <point x="69" y="408"/>
      <point x="110" y="355"/>
    </contour>
    <contour>
      <point x="201" y="450" type="curve" smooth="yes"/>
      <point x="186" y="450"/>
      <point x="179" y="462"/>
      <point x="179" y="495" type="curve" smooth="yes"/>
      <point x="179" y="563"/>
      <point x="200" y="627"/>
      <point x="232" y="627" type="curve" smooth="yes"/>
      <point x="248" y="627"/>
      <point x="255" y="612"/>
      <point x="255" y="578" type="curve" smooth="yes"/>
      <point x="255" y="511"/>
      <point x="232" y="450"/>
    </contour>
  </outline>
</glyph>
<glyph name="AE" format="2">
  <advance width="679"/>
  <unicode hex="00C6"/>
  <anchor x="284" y="0" name="bottom"/>
  <anchor x="476" y="714" name="top"/>
  <outline>
    <contour>
      <point x="-61" y="0" type="line"/>
      <point x="119" y="0" type="line"/>
      <point x="182" y="139" type="line"/>
      <point x="292" y="139" type="line"/>
      <point x="263" y="0" type="line"/>
      <point x="581" y="0" type="line"/>
      <point x="613" y="146" type="line"/>
      <point x="460" y="146" type="line"/>
      <point x="491" y="297" type="line"/>
      <point x="632" y="297" type="line"/>
      <point x="664" y="441" type="line"/>
      <point x="522" y="441" type="line"/>
      <point x="549" y="570" type="line"/>
      <point x="702" y="570" type="line"/>
      <point x="732" y="714" type="line"/>
      <point x="286" y="714" type="line"/>
    </contour>
    <contour>
      <point x="248" y="285" type="line"/>
      <point x="375" y="570" type="line"/>
      <point x="384" y="570" type="line"/>
      <point x="324" y="285" type="line"/>
    </contour>
  </outline>
</glyph>
<glyph name="multiply" format="2">
  <advance width="489"/>
  <unicode hex="00D7"/>
  <outline>
    <contour>
      <point x="382" y="566" type="line"/>
      <point x="263" y="446" type="line"/>
      <point x="144" y="566" type="line"/>
      <point x="56" y="474" type="line"/>
      <point x="171" y="353" type="line"/>
      <point x="57" y="232" type="line"/>
      <point x="144" y="141" type="line"/>
      <point x="263" y="262" type="line"/>
      <point x="382" y="140" type="line"/>
      <point x="472" y="230" type="line"/>
      <point x="355" y="353" type="line"/>
      <point x="474" y="477" type="line"/>
    </contour>
  </outline>
</glyph>
<glyph name="Oslash" format="2">
  <advance width="566"/>
  <unicode hex="00D8"/>
  <anchor x="216" y="-57" name="bottom"/>
  <anchor x="389" y="760" name="top"/>
  <outline>
    <contour>
      <point x="86" y="-57" type="line"/>
      <point x="131" y="13" type="line"/>
      <point x="160" y="-3"/>
      <point x="196" y="-10"/>
      <point x="241" y="-10" type="curve" smooth="yes"/>
      <point x="475" y="-10"/>
      <point x="569" y="294"/>
      <point x="569" y="486" type="curve" smooth="yes"/>
      <point x="569" y="549"/>
      <point x="559" y="601"/>
      <point x="537" y="639" type="curve"/>
      <point x="588" y="718" type="line"/>
      <point x="517" y="760" type="line"/>
      <point x="479" y="700" type="line"/>
      <point x="449" y="716"/>
      <point x="412" y="725"/>
      <point x="367" y="725" type="curve" smooth="yes"/>
      <point x="154" y="725"/>
      <point x="36" y="455"/>
      <point x="36" y="230" type="curve" smooth="yes"/>
      <point x="36" y="162"/>
      <point x="46" y="108"/>
      <point x="70" y="71" type="curve"/>
      <point x="15" y="-15" type="line"/>
    </contour>
    <contour>
      <point x="253" y="139" type="curve" smooth="yes"/>
      <point x="239" y="139"/>
      <point x="229" y="144"/>
      <point x="221" y="158" type="curve"/>
      <point x="390" y="427" type="line"/>
      <point x="389" y="418"/>
      <point x="388" y="409"/>
      <point x="386" y="399" type="curve" smooth="yes"/>
      <point x="365" y="282"/>
      <point x="321" y="139"/>
    </contour>
    <contour>
      <point x="386" y="551" type="curve"/>
      <point x="213" y="277" type="line"/>
      <point x="214" y="290"/>
      <point x="216" y="303"/>
      <point x="218" y="317" type="curve" smooth="yes"/>
      <point x="235" y="435"/>
      <point x="284" y="579"/>
      <point x="352" y="579" type="curve" smooth="yes"/>
      <point x="367" y="579"/>
      <point x="378" y="570"/>
    </contour>
  </outline>
</glyph>
<glyph name="Thorn" format="2">
  <advance width="476"/>
  <unicode hex="00DE"/>
  <anchor x="183" y="0" name="bottom"/>
  <anchor x="334" y="714" name="top"/>
  <outline>
    <contour>
      <point x="-5" y="0" type="line"/>
      <point x="162" y="0" type="line"/>
      <point x="190" y="133" type="line"/>
      <point x="228" y="133" type="line" smooth="yes"/>
      <point x="412" y="133"/>
      <point x="486" y="303"/>
      <point x="486" y="440" type="curve" smooth="yes"/>
      <point x="486" y="542"/>
      <point x="431" y="610"/>
      <point x="298" y="610" type="curve" smooth="yes"/>
      <point x="291" y="610" type="line"/>
      <point x="313" y="714" type="line"/>
      <point x="146" y="714" type="line"/>
    </contour>
    <contour>
      <point x="233" y="277" type="curve" smooth="yes"/>
      <point x="220" y="277" type="line"/>
      <point x="261" y="466" type="line"/>
      <point x="269" y="466" type="line" smooth="yes"/>
      <point x="299" y="466"/>
      <point x="314" y="456"/>
      <point x="314" y="418" type="curve" smooth="yes"/>
      <point x="314" y="336"/>
      <point x="282" y="277"/>
    </contour>
  </outline>
</glyph>
<glyph name="germandbls" format="2">
  <advance width="543"/>
  <unicode hex="00DF"/>
  <anchor x="165" y="-240" name="bottom"/>
  <anchor x="378" y="765" name="top"/>
  <outline>
    <contour>
      <point x="-51" y="-240" type="curve" smooth="yes"/>
      <point x="68" y="-240"/>
      <point x="110" y="-171"/>
      <point x="137" y="-46" type="curve" smooth="yes"/>
      <point x="257" y="517" type="line" smooth="yes"/>
      <point x="273" y="592"/>
      <point x="299" y="630"/>
      <point x="341" y="630" type="curve" smooth="yes"/>
      <point x="367" y="630"/>
      <point x="379" y="611"/>
      <point x="379" y="588" type="curve" smooth="yes"/>
      <point x="379" y="545"/>
      <point x="356" y="521"/>
      <point x="320" y="488" type="curve" smooth="yes"/>
      <point x="273" y="445"/>
      <point x="243" y="398"/>
      <point x="243" y="346" type="curve" smooth="yes"/>
      <point x="243" y="310"/>
      <point x="253" y="286"/>
      <point x="283" y="248" type="curve" smooth="yes"/>
      <point x="322" y="199"/>
      <point x="332" y="188"/>
      <point x="332" y="167" type="curve" smooth="yes"/>
      <point x="332" y="147"/>
      <point x="321" y="129"/>
      <point x="297" y="129" type="curve" smooth="yes"/>
      <point x="271" y="129"/>
      <point x="237" y="138"/>
      <point x="205" y="169" type="curve"/>
      <point x="173" y="20" type="line"/>
      <point x="209" y="-3"/>
      <point x="251" y="-10"/>
      <point x="294" y="-10" type="curve" smooth="yes"/>
      <point x="413" y="-10"/>
      <point x="500" y="66"/>
      <point x="500" y="185" type="curve" smooth="yes"/>
      <point x="500" y="249"/>
      <point x="477" y="280"/>
      <point x="443" y="315" type="curve" smooth="yes"/>
      <point x="421" y="338"/>
      <point x="412" y="357"/>
      <point x="412" y="372" type="curve" smooth="yes"/>
      <point x="412" y="418"/>
      <point x="447" y="439"/>
      <point x="481" y="470" type="curve" smooth="yes"/>
      <point x="526" y="511"/>
      <point x="545" y="553"/>
      <point x="545" y="617" type="curve" smooth="yes"/>
      <point x="545" y="704"/>
      <point x="477" y="765"/>
      <point x="349" y="765" type="curve" smooth="yes"/>
      <point x="212" y="765"/>
      <point x="130" y="674"/>
      <point x="101" y="537" type="curve" smooth="yes"/>
      <point x="-19" y="-32" type="line" smooth="yes"/>
      <point x="-30" y="-85"/>
      <point x="-45" y="-100"/>
      <point x="-74" y="-100" type="curve" smooth="yes"/>
      <point x="-86" y="-100"/>
      <point x="-112" y="-96"/>
      <point x="-123" y="-90" type="curve"/>
      <point x="-124" y="-229" type="line"/>
      <point x="-97" y="-239"/>
      <point x="-74" y="-240"/>
    </contour>
  </outline>
</glyph>
<glyph name="ae" format="2">
  <advance width="697"/>
  <unicode hex="00E6"/>
  <anchor x="300" y="0" name="bottom"/>
  <anchor x="408" y="553" name="top"/>
  <outline>
    <contour>
      <point x="117" y="-10" type="curve" smooth="yes"/>
      <point x="168" y="-10"/>
      <point x="212" y="19"/>
      <point x="246" y="61" type="curve"/>
      <point x="249" y="61" type="line"/>
      <point x="240" y="0" type="line"/>
      <point x="351" y="0" type="line"/>
      <point x="356" y="20" type="line"/>
      <point x="370" y="4"/>
      <point x="397" y="-10"/>
      <point x="444" y="-10" type="curve" smooth="yes"/>
      <point x="501" y="-10"/>
      <point x="544" y="0"/>
      <point x="599" y="33" type="curve"/>
      <point x="629" y="168" type="line"/>
      <point x="566" y="133"/>
      <point x="524" y="119"/>
      <point x="477" y="119" type="curve" smooth="yes"/>
      <point x="437" y="119"/>
      <point x="416" y="138"/>
      <point x="416" y="192" type="curve" smooth="yes"/>
      <point x="416" y="202"/>
      <point x="417" y="214"/>
      <point x="419" y="225" type="curve"/>
      <point x="429" y="225" type="line" smooth="yes"/>
      <point x="585" y="225"/>
      <point x="693" y="285"/>
      <point x="693" y="420" type="curve" smooth="yes"/>
      <point x="693" y="502"/>
      <point x="639" y="562"/>
      <point x="553" y="562" type="curve" smooth="yes"/>
      <point x="504" y="562"/>
      <point x="475" y="546"/>
      <point x="450" y="526" type="curve"/>
      <point x="452" y="553" type="line"/>
      <point x="342" y="553" type="line"/>
      <point x="330" y="506" type="line"/>
      <point x="329" y="506" type="line"/>
      <point x="308" y="547"/>
      <point x="267" y="563"/>
      <point x="231" y="563" type="curve" smooth="yes"/>
      <point x="90" y="563"/>
      <point x="14" y="326"/>
      <point x="14" y="155" type="curve" smooth="yes"/>
      <point x="14" y="54"/>
      <point x="57" y="-10"/>
    </contour>
    <contour>
      <point x="199" y="125" type="curve" smooth="yes"/>
      <point x="186" y="125"/>
      <point x="179" y="144"/>
      <point x="179" y="180" type="curve" smooth="yes"/>
      <point x="179" y="273"/>
      <point x="220" y="424"/>
      <point x="263" y="424" type="curve" smooth="yes"/>
      <point x="282" y="424"/>
      <point x="292" y="407"/>
      <point x="292" y="371" type="curve" smooth="yes"/>
      <point x="292" y="352"/>
      <point x="290" y="329"/>
      <point x="276" y="265" type="curve" smooth="yes"/>
      <point x="266" y="218"/>
      <point x="246" y="125"/>
    </contour>
    <contour>
      <point x="446" y="339" type="curve" smooth="yes"/>
      <point x="444" y="339" type="line"/>
      <point x="453" y="374"/>
      <point x="473" y="437"/>
      <point x="514" y="437" type="curve" smooth="yes"/>
      <point x="533" y="437"/>
      <point x="547" y="423"/>
      <point x="547" y="403" type="curve" smooth="yes"/>
      <point x="547" y="367"/>
      <point x="530" y="339"/>
    </contour>
  </outline>
</glyph>
<glyph name="eth" format="2">
  <advance width="473"/>
  <unicode hex="00F0"/>
  <anchor x="182" y="0" name="bottom"/>
  <anchor x="345" y="769" name="top"/>
  <outline>
    <contour>
      <point x="188" y="-10" type="curve" smooth="yes"/>
      <point x="402" y="-10"/>
      <point x="461" y="254"/>
      <point x="461" y="436" type="curve" smooth="yes"/>
      <point x="461" y="511"/>
      <point x="445" y="582"/>
      <point x="410" y="643" type="curve"/>
      <point x="476" y="698" type="line"/>
      <point x="421" y="769" type="line"/>
      <point x="358" y="714" type="line"/>
      <point x="339" y="734"/>
      <point x="318" y="751"/>
      <point x="295" y="767" type="curve"/>
      <point x="213" y="679" type="line"/>
      <point x="227" y="664"/>
      <point x="241" y="649"/>
      <point x="253" y="634" type="curve"/>
      <point x="186" y="579" type="line"/>
      <point x="237" y="509" type="line"/>
      <point x="294" y="555" type="line"/>
      <point x="302" y="527"/>
      <point x="307" y="507"/>
      <point x="307" y="476" type="curve"/>
      <point x="305" y="476" type="line"/>
      <point x="288" y="488"/>
      <point x="268" y="495"/>
      <point x="250" y="495" type="curve" smooth="yes"/>
      <point x="89" y="495"/>
      <point x="14" y="301"/>
      <point x="14" y="173" type="curve" smooth="yes"/>
      <point x="14" y="57"/>
      <point x="75" y="-10"/>
    </contour>
    <contour>
      <point x="207" y="125" type="curve" smooth="yes"/>
      <point x="187" y="125"/>
      <point x="177" y="144"/>
      <point x="177" y="179" type="curve" smooth="yes"/>
      <point x="177" y="244"/>
      <point x="211" y="359"/>
      <point x="255" y="359" type="curve" smooth="yes"/>
      <point x="277" y="359"/>
      <point x="286" y="343"/>
      <point x="286" y="309" type="curve" smooth="yes"/>
      <point x="286" y="238"/>
      <point x="247" y="125"/>
    </contour>
  </outline>
</glyph>
<glyph name="divide" format="2">
  <advance width="489"/>
  <unicode hex="00F7"/>
  <outline>
    <contour>
      <point x="53" y="287" type="line"/>
      <point x="476" y="287" type="line"/>
      <point x="476" y="418" type="line"/>
      <point x="53" y="418" type="line"/>
    </contour>
    <contour>
      <point x="266" y="69" type="curve" smooth="yes"/>
      <point x="315" y="69"/>
      <point x="344" y="101"/>
      <point x="344" y="155" type="curve" smooth="yes"/>
      <point x="344" y="210"/>
      <point x="317" y="241"/>
      <point x="266" y="241" type="curve" smooth="yes"/>
      <point x="214" y="241"/>
      <point x="186" y="210"/>
      <point x="186" y="155" type="curve" smooth="yes"/>
      <point x="186" y="100"/>
      <point x="217" y="69"/>
    </contour>
    <contour>
      <point x="266" y="464" type="curve" smooth="yes"/>
      <point x="315" y="464"/>
      <point x="344" y="496"/>
      <point x="344" y="550" type="curve" smooth="yes"/>
      <point x="344" y="605"/>
      <point x="317" y="636"/>
      <point x="266" y="636" type="curve" smooth="yes"/>
      <point x="214" y="636"/>
      <point x="186" y="605"/>
      <point x="186" y="550" type="curve" smooth="yes"/>
      <point x="186" y="495"/>
      <point x="217" y="464"/>
    </contour>
  </outline>
</glyph>
<glyph name="oslash" format="2">
  <advance width="472"/>
  <unicode hex="00F8"/>
  <anchor x="167" y="-64" name="bottom"/>
  <anchor x="308" y="602" name="top"/>
  <outline>
    <contour>
      <point x="64" y="-64" type="line"/>
      <point x="110" y="7" type="line"/>
      <point x="132" y="-4"/>
      <point x="160" y="-10"/>
      <point x="190" y="-10" type="curve" smooth="yes"/>
      <point x="381" y="-10"/>
      <point x="457" y="218"/>
      <point x="457" y="373" type="curve" smooth="yes"/>
      <point x="457" y="420"/>
      <point x="446" y="459"/>
      <point x="428" y="491" type="curve"/>
      <point x="472" y="559" type="line"/>
      <point x="403" y="602" type="line"/>
      <point x="367" y="546" type="line"/>
      <point x="344" y="557"/>
      <point x="318" y="563"/>
      <point x="288" y="563" type="curve" smooth="yes"/>
      <point x="89" y="563"/>
      <point x="18" y="324"/>
      <point x="18" y="180" type="curve" smooth="yes"/>
      <point x="18" y="131"/>
      <point x="29" y="92"/>
      <point x="48" y="61" type="curve"/>
      <point x="-5" y="-21" type="line"/>
    </contour>
    <contour>
      <point x="208" y="118" type="curve" smooth="yes"/>
      <point x="199" y="118"/>
      <point x="189" y="124"/>
      <point x="182" y="133" type="curve"/>
      <point x="302" y="321" type="line"/>
      <point x="301" y="315"/>
      <point x="300" y="308"/>
      <point x="299" y="301" type="curve" smooth="yes"/>
      <point x="287" y="218"/>
      <point x="253" y="118"/>
    </contour>
    <contour>
      <point x="295" y="419" type="curve"/>
      <point x="173" y="228" type="line"/>
      <point x="174" y="237"/>
      <point x="176" y="246"/>
      <point x="178" y="255" type="curve" smooth="yes"/>
      <point x="195" y="338"/>
      <point x="230" y="435"/>
      <point x="268" y="435" type="curve" smooth="yes"/>
      <point x="279" y="435"/>
      <point x="288" y="429"/>
    </contour>
  </outline>
</glyph>
<glyph name="thorn" format="2">
  <advance width="481"/>
  <unicode hex="00FE"/>
  <anchor x="135" y="-240" name="bottom"/>
  <anchor x="347" y="761" name="top"/>
  <outline>
    <contour>
      <point x="-63" y="-240" type="line"/>
      <point x="96" y="-240" type="line"/>
      <point x="140" y="-30" type="line" smooth="yes"/>
      <point x="144" y="-13"/>
      <point x="150" y="21"/>
      <point x="154" y="58" type="curve"/>
      <point x="157" y="58" type="line"/>
      <point x="175" y="15"/>
      <point x="209" y="-10"/>
      <point x="252" y="-10" type="curve" smooth="yes"/>
      <point x="395" y="-10"/>
      <point x="470" y="239"/>
      <point x="470" y="398" type="curve" smooth="yes"/>
      <point x="470" y="510"/>
      <point x="425" y="563"/>
      <point x="357" y="563" type="curve" smooth="yes"/>
      <point x="313" y="563"/>
      <point x="279" y="542"/>
      <point x="257" y="513" type="curve"/>
      <point x="254" y="513" type="line"/>
      <point x="259" y="530"/>
      <point x="262" y="544"/>
      <point x="267" y="563" type="curve"/>
      <point x="308" y="761" type="line"/>
      <point x="149" y="761" type="line"/>
    </contour>
    <contour>
      <point x="220" y="129" type="curve" smooth="yes"/>
      <point x="202" y="129"/>
      <point x="192" y="146"/>
      <point x="192" y="182" type="curve" smooth="yes"/>
      <point x="192" y="205"/>
      <point x="197" y="244"/>
      <point x="205" y="283" type="curve" smooth="yes"/>
      <point x="220" y="353"/>
      <point x="249" y="428"/>
      <point x="284" y="428" type="curve" smooth="yes"/>
      <point x="297" y="428"/>
      <point x="304" y="410"/>
      <point x="304" y="373" type="curve" smooth="yes"/>
      <point x="304" y="296"/>
      <point x="268" y="129"/>
    </contour>
  </outline>
</glyph>
<glyph name="dcroat" format="2">
  <advance width="480"/>
  <unicode hex="0111"/>
  <anchor x="186" y="0" name="bottom"/>
  <anchor x="346" y="760" name="top"/>
  <outline>
    <contour>
      <point x="126" y="-10" type="curve" smooth="yes"/>
      <point x="176" y="-10"/>
      <point x="202" y="14"/>
      <point x="240" y="57" type="curve"/>
      <point x="244" y="57" type="line"/>
      <point x="248" y="0" type="line"/>
      <point x="378" y="0" type="line"/>
      <point x="500" y="574" type="line"/>
      <point x="553" y="574" type="line"/>
      <point x="578" y="688" type="line"/>
      <point x="525" y="688" type="line"/>
      <point x="540" y="760" type="line"/>
      <point x="380" y="760" type="line"/>
      <point x="365" y="688" type="line"/>
      <point x="297" y="688" type="line"/>
      <point x="272" y="574" type="line"/>
      <point x="340" y="574" type="line"/>
      <point x="339" y="570" type="line"/>
      <point x="336" y="552"/>
      <point x="334" y="529"/>
      <point x="331" y="500" type="curve"/>
      <point x="328" y="500" type="line"/>
      <point x="307" y="546"/>
      <point x="265" y="563"/>
      <point x="220" y="563" type="curve" smooth="yes"/>
      <point x="82" y="563"/>
      <point x="14" y="289"/>
      <point x="14" y="155" type="curve" smooth="yes"/>
      <point x="14" y="54"/>
      <point x="57" y="-10"/>
    </contour>
    <contour>
      <point x="199" y="125" type="curve" smooth="yes"/>
      <point x="186" y="125"/>
      <point x="179" y="144"/>
      <point x="179" y="180" type="curve" smooth="yes"/>
      <point x="179" y="228"/>
      <point x="209" y="424"/>
      <point x="263" y="424" type="curve" smooth="yes"/>
      <point x="282" y="424"/>
      <point x="291" y="407"/>
      <point x="291" y="371" type="curve" smooth="yes"/>
      <point x="291" y="296"/>
      <point x="256" y="125"/>
    </contour>
  </outline>
</glyph>
<glyph name="eogonek" format="2">
  <advance width="455"/>
  <unicode hex="0119"/>
  <anchor x="129" y="-234" name="bottom"/>
  <anchor x="297" y="553" name="top"/>
  <outline>
    <contour>
      <point x="188" y="-234" type="curve" smooth="yes"/>
      <point x="213" y="-234"/>
      <point x="238" y="-233"/>
      <point x="265" y="-223" type="curve"/>
      <point x="287" y="-117" type="line"/>
      <point x="270" y="-121"/>
      <point x="253" y="-124"/>
      <point x="243" y="-124" type="curve" smooth="yes"/>
      <point x="234" y="-124"/>
      <point x="225" y="-118"/>
      <point x="225" y="-106" type="curve" smooth="yes"/>
      <point x="225" y="-74"/>
      <point x="252" y="-25"/>
      <point x="337" y="22" type="curve"/>
      <point x="196" y="6" type="line"/>
      <point x="142" y="-34"/>
      <point x="93" y="-85"/>
      <point x="93" y="-151" type="curve" smooth="yes"/>
      <point x="93" y="-199"/>
      <point x="124" y="-234"/>
    </contour>
    <component base="e"/>
  </outline>
</glyph>
<glyph name="Hbar" format="2">
  <advance width="555"/>
  <unicode hex="0126"/>
  <anchor x="223" y="0" name="bottom"/>
  <anchor x="374" y="714" name="top"/>
  <outline>
    <contour>
      <point x="-5" y="0" type="line"/>
      <point x="162" y="0" type="line"/>
      <point x="225" y="298" type="line"/>
      <point x="343" y="298" type="line"/>
      <point x="280" y="0" type="line"/>
      <point x="447" y="0" type="line"/>
      <point x="558" y="521" type="line"/>
      <point x="609" y="521" type="line"/>
      <point x="634" y="635" type="line"/>
      <point x="582" y="635" type="line"/>
      <point x="599" y="714" type="line"/>
      <point x="432" y="714" type="line"/>
      <point x="415" y="635" type="line"/>
      <point x="296" y="635" type="line"/>
      <point x="313" y="714" type="line"/>
      <point x="146" y="714" type="line"/>
      <point x="129" y="635" type="line"/>
      <point x="79" y="635" type="line"/>
      <point x="55" y="521" type="line"/>
      <point x="105" y="521" type="line"/>
    </contour>
    <contour>
      <point x="254" y="433" type="line"/>
      <point x="272" y="521" type="line"/>
      <point x="391" y="521" type="line"/>
      <point x="372" y="433" type="line"/>
    </contour>
  </outline>
</glyph>
<glyph name="hbar" format="2">
  <advance width="485"/>
  <unicode hex="0127"/>
  <anchor x="188" y="0" name="bottom"/>
  <anchor x="349" y="760" name="top"/>
  <outline>
    <contour>
      <point x="-13" y="0" type="line"/>
      <point x="148" y="0" type="line"/>
      <point x="209" y="287" type="line" smooth="yes"/>
      <point x="225" y="363"/>
      <point x="242" y="396"/>
      <point x="270" y="396" type="curve" smooth="yes"/>
      <point x="285" y="396"/>
      <point x="295" y="385"/>
      <point x="295" y="361" type="curve" smooth="yes"/>
      <point x="295" y="338"/>
      <point x="291" y="312"/>
      <point x="285" y="285" type="curve" smooth="yes"/>
      <point x="225" y="0" type="line"/>
      <point x="385" y="0" type="line"/>
      <point x="455" y="330" type="line" smooth="yes"/>
      <point x="461" y="356"/>
      <point x="464" y="386"/>
      <point x="464" y="409" type="curve" smooth="yes"/>
      <point x="464" y="488"/>
      <point x="423" y="540"/>
      <point x="352" y="540" type="curve" smooth="yes"/>
      <point x="303" y="540"/>
      <point x="271" y="518"/>
      <point x="241" y="478" type="curve"/>
      <point x="238" y="478" type="line"/>
      <point x="249" y="503"/>
      <point x="259" y="527"/>
      <point x="269" y="574" type="curve"/>
      <point x="347" y="574" type="line"/>
      <point x="371" y="688" type="line"/>
      <point x="293" y="688" type="line"/>
      <point x="309" y="760" type="line"/>
      <point x="149" y="760" type="line"/>
      <point x="133" y="688" type="line"/>
      <point x="83" y="688" type="line"/>
      <point x="58" y="574" type="line"/>
      <point x="109" y="574" type="line"/>
    </contour>
  </outline>
</glyph>
<glyph name="idotless" format="2">
  <advance width="249"/>
  <unicode hex="0131"/>
  <anchor x="68" y="0" name="bottom"/>
  <anchor x="185" y="553" name="top"/>
  <outline>
    <contour>
      <point x="-12" y="0" type="line"/>
      <point x="148" y="0" type="line"/>
      <point x="265" y="553" type="line"/>
      <point x="106" y="553" type="line"/>
    </contour>
  </outline>
</glyph>
<glyph name="kgreenlandic" format="2">
  <advance width="479"/>
  <unicode hex="0138"/>
  <anchor x="185" y="0" name="bottom"/>
  <anchor x="302" y="553" name="top"/>
  <outline>
    <contour>
      <point x="-13" y="0" type="line"/>
      <point x="148" y="0" type="line"/>
      <point x="177" y="152" type="line"/>
      <point x="214" y="185" type="line"/>
      <point x="256" y="0" type="line"/>
      <point x="430" y="0" type="line"/>
      <point x="354" y="314" type="line"/>
      <point x="537" y="553" type="line"/>
      <point x="363" y="553" type="line"/>
      <point x="219" y="354" type="line"/>
      <point x="217" y="354" type="line"/>
      <point x="229" y="393"/>
      <point x="238" y="428"/>
      <point x="246" y="466" type="curve" smooth="yes"/>
      <point x="265" y="553" type="line"/>
      <point x="105" y="553" type="line"/>
    </contour>
  </outline>
</glyph>
<glyph name="Lslash" format="2">
  <advance width="417"/>
  <unicode hex="0141"/>
  <anchor x="154" y="0" name="bottom"/>
  <anchor x="305" y="714" name="top"/>
  <outline>
    <contour>
      <point x="17" y="0" type="line"/>
      <point x="349" y="0" type="line"/>
      <point x="379" y="146" type="line"/>
      <point x="215" y="146" type="line"/>
      <point x="263" y="368" type="line"/>
      <point x="427" y="494" type="line"/>
      <point x="360" y="585" type="line"/>
      <point x="298" y="538" type="line"/>
      <point x="335" y="714" type="line"/>
      <point x="168" y="714" type="line"/>
      <point x="102" y="398" type="line"/>
      <point x="-27" y="304" type="line"/>
      <point x="39" y="209" type="line"/>
      <point x="65" y="229" type="line"/>
    </contour>
  </outline>
</glyph>
<glyph name="lslash" format="2">
  <advance width="301"/>
  <unicode hex="0142"/>
  <anchor x="96" y="0" name="bottom"/>
  <anchor x="257" y="760" name="top"/>
  <outline>
    <contour>
      <point x="14" y="0" type="line"/>
      <point x="174" y="0" type="line"/>
      <point x="249" y="353" type="line"/>
      <point x="359" y="398" type="line"/>
      <point x="316" y="503" type="line"/>
      <point x="278" y="488" type="line"/>
      <point x="335" y="760" type="line"/>
      <point x="175" y="760" type="line"/>
      <point x="104" y="423" type="line"/>
      <point x="-7" y="378" type="line"/>
      <point x="36" y="272" type="line"/>
      <point x="75" y="288" type="line"/>
    </contour>
  </outline>
</glyph>
<glyph name="Eng" format="2">
  <advance width="596"/>
  <unicode hex="014A"/>
  <anchor x="196" y="-224" name="bottom"/>
  <anchor x="395" y="714" name="top"/>
  <outline>
    <contour>
      <point x="256" y="-224" type="curve" smooth="yes"/>
      <point x="403" y="-224"/>
      <point x="463" y="-119"/>
      <point x="497" y="39" type="curve" smooth="yes"/>
      <point x="641" y="714" type="line"/>
      <point x="483" y="714" type="line"/>
      <point x="438" y="494" type="line" smooth="yes"/>
      <point x="430" y="456"/>
      <point x="423" y="408"/>
      <point x="415" y="350" type="curve"/>
      <point x="412" y="350" type="line"/>
      <point x="338" y="714" type="line"/>
      <point x="146" y="714" type="line"/>
      <point x="-5" y="0" type="line"/>
      <point x="151" y="0" type="line"/>
      <point x="213" y="298" type="line" smooth="yes"/>
      <point x="221" y="334"/>
      <point x="232" y="395"/>
      <point x="238" y="451" type="curve"/>
      <point x="241" y="451" type="line"/>
      <point x="332" y="5" type="line"/>
      <point x="320" y="-48"/>
      <point x="300" y="-80"/>
      <point x="262" y="-80" type="curve" smooth="yes"/>
      <point x="246" y="-80"/>
      <point x="229" y="-74"/>
      <point x="210" y="-65" type="curve"/>
      <point x="178" y="-212" type="line"/>
      <point x="202" y="-221"/>
      <point x="229" y="-224"/>
    </contour>
  </outline>
</glyph>
<glyph name="OE" format="2">
  <advance width="688"/>
  <unicode hex="0152"/>
  <anchor x="289" y="0" name="bottom"/>
  <anchor x="440" y="714" name="top"/>
  <outline>
    <contour>
      <point x="214" y="-10" type="curve" smooth="yes"/>
      <point x="241" y="-10"/>
      <point x="265" y="-4"/>
      <point x="281" y="0" type="curve"/>
      <point x="589" y="0" type="line"/>
      <point x="621" y="146" type="line"/>
      <point x="467" y="146" type="line"/>
      <point x="499" y="297" type="line"/>
      <point x="640" y="297" type="line"/>
      <point x="671" y="441" type="line"/>
      <point x="530" y="441" type="line"/>
      <point x="557" y="570" type="line"/>
      <point x="710" y="570" type="line"/>
      <point x="741" y="714" type="line"/>
      <point x="434" y="714" type="line"/>
      <point x="415" y="721"/>
      <point x="381" y="725"/>
      <point x="349" y="725" type="curve" smooth="yes"/>
      <point x="118" y="725"/>
      <point x="35" y="416"/>
      <point x="35" y="207" type="curve" smooth="yes"/>
      <point x="35" y="85"/>
      <point x="87" y="-10"/>
    </contour>
    <contour>
      <point x="249" y="139" type="curve" smooth="yes"/>
      <point x="223" y="139"/>
      <point x="211" y="163"/>
      <point x="211" y="229" type="curve" smooth="yes"/>
      <point x="211" y="345"/>
      <point x="264" y="579"/>
      <point x="353" y="579" type="curve" smooth="yes"/>
      <point x="367" y="579"/>
      <point x="381" y="572"/>
      <point x="393" y="565" type="curve"/>
      <point x="305" y="146" type="line"/>
      <point x="295" y="142"/>
      <point x="277" y="139"/>
    </contour>
  </outline>
</glyph>
<glyph name="oe" format="2">
  <advance width="706"/>
  <unicode hex="0153"/>
  <anchor x="298" y="0" name="bottom"/>
  <anchor x="417" y="563" name="top"/>
  <outline>
    <contour>
      <point x="175" y="-10" type="curve" smooth="yes"/>
      <point x="235" y="-10"/>
      <point x="281" y="14"/>
      <point x="317" y="51" type="curve"/>
      <point x="342" y="12"/>
      <point x="385" y="-10"/>
      <point x="446" y="-10" type="curve" smooth="yes"/>
      <point x="505" y="-10"/>
      <point x="562" y="7"/>
      <point x="618" y="40" type="curve"/>
      <point x="618" y="159" type="line"/>
      <point x="581" y="136"/>
      <point x="531" y="119"/>
      <point x="485" y="119" type="curve" smooth="yes"/>
      <point x="445" y="119"/>
      <point x="424" y="138"/>
      <point x="424" y="192" type="curve" smooth="yes"/>
      <point x="424" y="202"/>
      <point x="425" y="214"/>
      <point x="427" y="225" type="curve"/>
      <point x="437" y="225" type="line" smooth="yes"/>
      <point x="592" y="225"/>
      <point x="702" y="285"/>
      <point x="702" y="420" type="curve" smooth="yes"/>
      <point x="702" y="506"/>
      <point x="637" y="562"/>
      <point x="545" y="562" type="curve" smooth="yes"/>
      <point x="494" y="562"/>
      <point x="437" y="541"/>
      <point x="399" y="504" type="curve"/>
      <point x="372" y="541"/>
      <point x="343" y="563"/>
      <point x="278" y="563" type="curve" smooth="yes"/>
      <point x="80" y="563"/>
      <point x="18" y="309"/>
      <point x="18" y="180" type="curve" smooth="yes"/>
      <point x="18" y="62"/>
      <point x="82" y="-10"/>
    </contour>
    <contour>
      <point x="210" y="125" type="curve" smooth="yes"/>
      <point x="188" y="125"/>
      <point x="179" y="145"/>
      <point x="179" y="179" type="curve" smooth="yes"/>
      <point x="179" y="264"/>
      <point x="221" y="428"/>
      <point x="266" y="428" type="curve" smooth="yes"/>
      <point x="288" y="428"/>
      <point x="296" y="409"/>
      <point x="296" y="373" type="curve" smooth="yes"/>
      <point x="296" y="291"/>
      <point x="259" y="125"/>
    </contour>
    <contour>
      <point x="456" y="339" type="curve"/>
      <point x="452" y="339" type="line"/>
      <point x="452" y="376"/>
      <point x="488" y="437"/>
      <point x="521" y="437" type="curve" smooth="yes"/>
      <point x="540" y="437"/>
      <point x="555" y="423"/>
      <point x="555" y="403" type="curve" smooth="yes"/>
      <point x="555" y="367"/>
      <point x="538" y="339"/>
    </contour>
  </outline>
</glyph>
<glyph name="Tbar" format="2">
  <advance width="423"/>
  <unicode hex="0166"/>
  <anchor x="157" y="0" name="bottom"/>
  <anchor x="308" y="714" name="top"/>
  <outline>
    <contour>
      <point x="71" y="0" type="line"/>
      <point x="238" y="0" type="line"/>
      <point x="298" y="284" type="line"/>
      <point x="369" y="284" type="line"/>
      <point x="395" y="409" type="line"/>
      <point x="325" y="409" type="line"/>
      <point x="358" y="567" type="line"/>
      <point x="471" y="567" type="line"/>
      <point x="503" y="714" type="line"/>
      <point x="110" y="714" type="line"/>
      <point x="78" y="567" type="line"/>
      <point x="191" y="567" type="line"/>
      <point x="158" y="409" type="line"/>
      <point x="89" y="409" type="line"/>
      <point x="61" y="284" type="line"/>
      <point x="131" y="284" type="line"/>
    </contour>
  </outline>
</glyph>
<glyph name="tbar" format="2">
  <advance width="339"/>
  <unicode hex="0167"/>
  <anchor x="115" y="0" name="bottom"/>
  <anchor x="255" y="664" name="top"/>
  <outline>
    <contour>
      <point x="155" y="-10" type="curve" smooth="yes"/>
      <point x="192" y="-10"/>
      <point x="251" y="-3"/>
      <point x="288" y="17" type="curve"/>
      <point x="288" y="145" type="line"/>
      <point x="264" y="134"/>
      <point x="238" y="130"/>
      <point x="228" y="130" type="curve" smooth="yes"/>
      <point x="209" y="130"/>
      <point x="202" y="138"/>
      <point x="202" y="158" type="curve" smooth="yes"/>
      <point x="202" y="165"/>
      <point x="204" y="175"/>
      <point x="205" y="184" type="curve" smooth="yes"/>
      <point x="212" y="220" type="line"/>
      <point x="294" y="220" type="line"/>
      <point x="320" y="333" type="line"/>
      <point x="236" y="333" type="line"/>
      <point x="255" y="420" type="line"/>
      <point x="348" y="420" type="line"/>
      <point x="376" y="553" type="line"/>
      <point x="283" y="553" type="line"/>
      <point x="307" y="664" type="line"/>
      <point x="194" y="664" type="line"/>
      <point x="139" y="548" type="line"/>
      <point x="63" y="503" type="line"/>
      <point x="46" y="420" type="line"/>
      <point x="95" y="420" type="line"/>
      <point x="77" y="333" type="line"/>
      <point x="31" y="333" type="line"/>
      <point x="7" y="220" type="line"/>
      <point x="52" y="220" type="line"/>
      <point x="50" y="207" type="line" smooth="yes"/>
      <point x="44" y="168"/>
      <point x="40" y="142"/>
      <point x="40" y="118" type="curve" smooth="yes"/>
      <point x="40" y="45"/>
      <point x="69" y="-10"/>
    </contour>
  </outline>
</glyph>
<glyph name="longs" format="2">
  <advance width="296"/>
  <unicode hex="017F"/>
  <anchor x="-38" y="-240" name="bottom"/>
  <anchor x="305" y="765" name="top"/>
  <outline>
    <contour>
      <point x="-31" y="-240" type="curve" smooth="yes"/>
      <point x="84" y="-240"/>
      <point x="130" y="-172"/>
      <point x="157" y="-45" type="curve" smooth="yes"/>
      <point x="282" y="553" type="line" smooth="yes"/>
      <point x="293" y="603"/>
      <point x="304" y="630"/>
      <point x="329" y="630" type="curve" smooth="yes"/>
      <point x="339" y="630"/>
      <point x="356" y="625"/>
      <point x="369" y="617" type="curve"/>
      <point x="425" y="737" type="line"/>
      <point x="383" y="758"/>
      <point x="344" y="765"/>
      <point x="305" y="765" type="curve" smooth="yes"/>
      <point x="195" y="765"/>
      <point x="149" y="681"/>
      <point x="129" y="582" type="curve" smooth="yes"/>
      <point x="1" y="-32" type="line" smooth="yes"/>
      <point x="-9" y="-76"/>
      <point x="-17" y="-100"/>
      <point x="-55" y="-100" type="curve" smooth="yes"/>
      <point x="-67" y="-100"/>
      <point x="-93" y="-96"/>
      <point x="-103" y="-90" type="curve"/>
      <point x="-104" y="-229" type="line"/>
      <point x="-77" y="-239"/>
      <point x="-55" y="-240"/>
    </contour>
  </outline>
</glyph>
<glyph name="Ohorn" format="2">
  <advance width="588"/>
  <unicode hex="01A0"/>
  <anchor x="239" y="0" name="bottom"/>
  <anchor x="365" y="714" name="top"/>
  <outline>
    <contour>
      <point x="240" y="-10" type="curve" smooth="yes"/>
      <point x="447" y="-10"/>
      <point x="568" y="246"/>
      <point x="568" y="492" type="curve" smooth="yes"/>
      <point x="568" y="503"/>
      <point x="568" y="514"/>
      <point x="567" y="523" type="curve"/>
      <point x="662" y="569"/>
      <point x="707" y="651"/>
      <point x="726" y="750" type="curve"/>
      <point x="723" y="760" type="line"/>
      <point x="574" y="760" type="line"/>
      <point x="570" y="723"/>
      <point x="556" y="677"/>
      <point x="532" y="646" type="curve"/>
      <point x="500" y="698"/>
      <point x="446" y="725"/>
      <point x="366" y="725" type="curve" smooth="yes"/>
      <point x="160" y="725"/>
      <point x="35" y="468"/>
      <point x="35" y="230" type="curve" smooth="yes"/>
      <point x="35" y="64"/>
      <point x="100" y="-10"/>
    </contour>
    <contour>
      <point x="252" y="139" type="curve" smooth="yes"/>
      <point x="225" y="139"/>
      <point x="210" y="156"/>
      <point x="210" y="229" type="curve" smooth="yes"/>
      <point x="210" y="356"/>
      <point x="269" y="579"/>
      <point x="351" y="579" type="curve" smooth="yes"/>
      <point x="379" y="579"/>
      <point x="394" y="550"/>
      <point x="394" y="490" type="curve" smooth="yes"/>
      <point x="394" y="383"/>
      <point x="342" y="139"/>
    </contour>
  </outline>
</glyph>
<glyph name="ohorn" format="2">
  <advance width="538"/>
  <unicode hex="01A1"/>
  <anchor x="214" y="0" name="bottom"/>
  <anchor x="326" y="530" name="top"/>
  <outline>
    <contour>
      <point x="191" y="-10" type="curve" smooth="yes"/>
      <point x="358" y="-10"/>
      <point x="458" y="182"/>
      <point x="458" y="372" type="curve" smooth="yes"/>
      <point x="458" y="377"/>
      <point x="457" y="382"/>
      <point x="457" y="388" type="curve"/>
      <point x="567" y="414"/>
      <point x="623" y="498"/>
      <point x="648" y="625" type="curve"/>
      <point x="646" y="635" type="line"/>
      <point x="498" y="635" type="line"/>
      <point x="493" y="576"/>
      <point x="471" y="520"/>
      <point x="428" y="489" type="curve"/>
      <point x="399" y="536"/>
      <point x="352" y="563"/>
      <point x="288" y="563" type="curve" smooth="yes"/>
      <point x="116" y="563"/>
      <point x="18" y="368"/>
      <point x="18" y="180" type="curve" smooth="yes"/>
      <point x="18" y="62"/>
      <point x="82" y="-10"/>
    </contour>
    <contour>
      <point x="210" y="125" type="curve" smooth="yes"/>
      <point x="188" y="125"/>
      <point x="179" y="145"/>
      <point x="179" y="179" type="curve" smooth="yes"/>
      <point x="179" y="253"/>
      <point x="217" y="428"/>
      <point x="266" y="428" type="curve" smooth="yes"/>
      <point x="288" y="428"/>
      <point x="296" y="409"/>
      <point x="296" y="373" type="curve" smooth="yes"/>
      <point x="296" y="288"/>
      <point x="257" y="125"/>
    </contour>
  </outline>
</glyph>
<glyph name="uhorn" format="2">
  <advance width="598"/>
  <unicode hex="01B0"/>
  <anchor x="217" y="0" name="bottom"/>
  <anchor x="299" y="553" name="top"/>
  <outline>
    <contour>
      <point x="137" y="-10" type="curve" smooth="yes"/>
      <point x="184" y="-10"/>
      <point x="223" y="19"/>
      <point x="255" y="64" type="curve"/>
      <point x="258" y="64" type="line"/>
      <point x="256" y="0" type="line"/>
      <point x="384" y="0" type="line"/>
      <point x="464" y="380" type="line"/>
      <point x="619" y="385"/>
      <point x="682" y="498"/>
      <point x="709" y="625" type="curve"/>
      <point x="707" y="635" type="line"/>
      <point x="558" y="635" type="line"/>
      <point x="550" y="572"/>
      <point x="534" y="502"/>
      <point x="487" y="487" type="curve"/>
      <point x="501" y="553" type="line"/>
      <point x="341" y="553" type="line"/>
      <point x="280" y="269" type="line" smooth="yes"/>
      <point x="264" y="194"/>
      <point x="244" y="134"/>
      <point x="212" y="134" type="curve" smooth="yes"/>
      <point x="194" y="134"/>
      <point x="188" y="147"/>
      <point x="188" y="169" type="curve" smooth="yes"/>
      <point x="188" y="187"/>
      <point x="192" y="216"/>
      <point x="198" y="246" type="curve" smooth="yes"/>
      <point x="263" y="553" type="line"/>
      <point x="103" y="553" type="line"/>
      <point x="28" y="201" type="line" smooth="yes"/>
      <point x="22" y="172"/>
      <point x="19" y="142"/>
      <point x="19" y="119" type="curve" smooth="yes"/>
      <point x="19" y="40"/>
      <point x="60" y="-10"/>
    </contour>
  </outline>
</glyph>
<glyph name="Aringacute" format="2">
  <advance width="526"/>
  <unicode hex="01FA"/>
  <anchor x="208" y="0" name="bottom"/>
  <anchor x="412" y="964" name="top"/>
  <outline>
    <contour>
      <point x="235" y="686" type="curve"/>
      <point x="-57" y="0" type="line"/>
      <point x="126" y="0" type="line"/>
      <point x="177" y="139" type="line"/>
      <point x="296" y="139" type="line"/>
      <point x="291" y="0" type="line"/>
      <point x="469" y="0" type="line"/>
      <point x="461" y="662" type="line"/>
      <point x="472" y="681"/>
      <point x="477" y="704"/>
      <point x="477" y="729" type="curve" smooth="yes"/>
      <point x="477" y="797"/>
      <point x="426" y="848"/>
      <point x="355" y="848" type="curve" smooth="yes"/>
      <point x="280" y="848"/>
      <point x="231" y="800"/>
      <point x="231" y="726" type="curve" smooth="yes"/>
      <point x="231" y="712"/>
      <point x="233" y="698"/>
    </contour>
    <contour>
      <point x="233" y="284" type="line"/>
      <point x="294" y="472" type="line" smooth="yes"/>
      <point x="304" y="505"/>
      <point x="312" y="533"/>
      <point x="318" y="568" type="curve"/>
      <point x="321" y="568" type="line"/>
      <point x="317" y="531"/>
      <point x="316" y="501"/>
      <point x="315" y="469" type="curve" smooth="yes"/>
      <point x="306" y="284" type="line"/>
    </contour>
    <contour>
      <point x="355" y="682" type="curve" smooth="yes"/>
      <point x="325" y="682"/>
      <point x="311" y="699"/>
      <point x="311" y="726" type="curve" smooth="yes"/>
      <point x="311" y="752"/>
      <point x="328" y="771"/>
      <point x="355" y="771" type="curve" smooth="yes"/>
      <point x="381" y="771"/>
      <point x="397" y="752"/>
      <point x="397" y="726" type="curve" smooth="yes"/>
      <point x="397" y="699"/>
      <point x="380" y="682"/>
    </contour>
    <contour>
      <point x="314" y="879" type="curve"/>
      <point x="313" y="874" type="line"/>
      <point x="447" y="874" type="line"/>
      <point x="477" y="892"/>
      <point x="546" y="938"/>
      <point x="576" y="961" type="curve"/>
      <point x="577" y="964" type="line"/>
      <point x="391" y="964" type="line"/>
      <point x="367" y="933"/>
      <point x="340" y="906"/>
    </contour>
  </outline>
</glyph>
<glyph name="aringacute" format="2">
  <advance width="479"/>
  <unicode hex="01FB"/>
  <anchor x="186" y="0" name="bottom"/>
  <anchor x="390" y="964" name="top"/>
  <outline>
    <contour>
      <point x="126" y="-10" type="curve" smooth="yes"/>
      <point x="177" y="-10"/>
      <point x="207" y="23"/>
      <point x="240" y="66" type="curve"/>
      <point x="244" y="66" type="line"/>
      <point x="248" y="0" type="line"/>
      <point x="378" y="0" type="line"/>
      <point x="496" y="553" type="line"/>
      <point x="356" y="553" type="line"/>
      <point x="330" y="487" type="line"/>
      <point x="328" y="487" type="line"/>
      <point x="308" y="543"/>
      <point x="272" y="563"/>
      <point x="230" y="563" type="curve" smooth="yes"/>
      <point x="81" y="563"/>
      <point x="14" y="296"/>
      <point x="14" y="155" type="curve" smooth="yes"/>
      <point x="14" y="54"/>
      <point x="57" y="-10"/>
    </contour>
    <contour>
      <point x="199" y="125" type="curve" smooth="yes"/>
      <point x="187" y="125"/>
      <point x="179" y="144"/>
      <point x="179" y="180" type="curve" smooth="yes"/>
      <point x="179" y="251"/>
      <point x="214" y="424"/>
      <point x="263" y="424" type="curve" smooth="yes"/>
      <point x="282" y="424"/>
      <point x="291" y="407"/>
      <point x="291" y="371" type="curve" smooth="yes"/>
      <point x="291" y="352"/>
      <point x="290" y="329"/>
      <point x="276" y="265" type="curve" smooth="yes"/>
      <point x="264" y="208"/>
      <point x="241" y="125"/>
    </contour>
    <contour>
      <point x="325" y="588" type="curve" smooth="yes"/>
      <point x="401" y="588"/>
      <point x="448" y="640"/>
      <point x="447" y="713" type="curve" smooth="yes"/>
      <point x="446" y="786"/>
      <point x="396" y="832"/>
      <point x="326" y="832" type="curve" smooth="yes"/>
      <point x="251" y="832"/>
      <point x="203" y="784"/>
      <point x="203" y="709" type="curve" smooth="yes"/>
      <point x="203" y="636"/>
      <point x="248" y="588"/>
    </contour>
    <contour>
      <point x="325" y="666" type="curve" smooth="yes"/>
      <point x="295" y="666"/>
      <point x="282" y="683"/>
      <point x="282" y="710" type="curve" smooth="yes"/>
      <point x="282" y="736"/>
      <point x="298" y="755"/>
      <point x="325" y="755" type="curve" smooth="yes"/>
      <point x="352" y="755"/>
      <point x="369" y="736"/>
      <point x="369" y="710" type="curve" smooth="yes"/>
      <point x="369" y="683"/>
      <point x="351" y="666"/>
    </contour>
    <contour>
      <point x="289" y="868" type="curve"/>
      <point x="286" y="861" type="line"/>
      <point x="420" y="861" type="line"/>
      <point x="445" y="877"/>
      <point x="523" y="934"/>
      <point x="553" y="960" type="curve"/>
      <point x="554" y="964" type="line"/>
      <point x="368" y="964" type="line"/>
      <point x="343" y="929"/>
      <point x="315" y="898"/>
    </contour>
  </outline>
</glyph>
<glyph name="jdotless" format="2">
  <advance width="249"/>
  <unicode hex="0237"/>
  <anchor x="19" y="-240" name="bottom"/>
  <anchor x="187" y="553" name="top"/>
  <outline>
    <contour>
      <point x="-50" y="-240" type="curve" smooth="yes"/>
      <point x="69" y="-240"/>
      <point x="112" y="-170"/>
      <point x="138" y="-45" type="curve" smooth="yes"/>
      <point x="265" y="553" type="line"/>
      <point x="106" y="553" type="line"/>
      <point x="-18" y="-32" type="line" smooth="yes"/>
      <point x="-28" y="-79"/>
      <point x="-39" y="-100"/>
      <point x="-73" y="-100" type="curve" smooth="yes"/>
      <point x="-85" y="-100"/>
      <point x="-111" y="-96"/>
      <point x="-122" y="-90" type="curve"/>
      <point x="-123" y="-229" type="line"/>
      <point x="-96" y="-239"/>
      <point x="-73" y="-240"/>
    </contour>
  </outline>
</glyph>
<glyph name="Cstroke" format="2">
  <advance width="465"/>
  <unicode hex="023B"/>
  <anchor x="196" y="-75" name="bottom"/>
  <anchor x="368" y="760" name="top"/>
  <outline>
    <contour>
      <point x="142" y="-75" type="line"/>
      <point x="216" y="-75" type="line"/>
      <point x="471" y="760" type="line"/>
      <point x="398" y="760" type="line"/>
    </contour>
    <component base="C"/>
  </outline>
</glyph>
<glyph name="Estroke" format="2">
  <advance width="413"/>
  <unicode hex="0246"/>
  <anchor x="136" y="-75" name="bottom"/>
  <anchor x="313" y="760" name="top"/>
  <outline>
    <contour>
      <point x="142" y="-75" type="line"/>
      <point x="226" y="-75" type="line"/>
      <point x="456" y="760" type="line"/>
      <point x="373" y="760" type="line"/>
    </contour>
    <component base="E"/>
  </outline>
</glyph>
<glyph name="ystroke" format="2">
  <advance width="452"/>
  <unicode hex="024F"/>
  <anchor x="16" y="-240" name="bottom"/>
  <anchor x="285" y="553" name="top"/>
  <outline>
    <contour>
      <point x="-9" y="217" type="line"/>
      <point x="445" y="217" type="line"/>
      <point x="472" y="343" type="line"/>
      <point x="18" y="343" type="line"/>
    </contour>
    <component base="y"/>
  </outline>
</glyph>
<glyph name="schwahook" format="2">
  <advance width="665"/>
  <unicode hex="025A"/>
  <anchor x="162" y="-10" name="bottom"/>
  <anchor x="261" y="562" name="top"/>
  <outline>
    <contour>
      <point x="162" y="-10" type="curve" smooth="yes"/>
      <point x="324" y="-10"/>
      <point x="405" y="134"/>
      <point x="432" y="280" type="curve"/>
      <point x="465" y="289" type="line"/>
      <point x="477" y="213"/>
      <point x="510" y="175"/>
      <point x="569" y="175" type="curve" smooth="yes"/>
      <point x="609" y="175"/>
      <point x="645" y="193"/>
      <point x="672" y="218" type="curve"/>
      <point x="639" y="306" type="line"/>
      <point x="624" y="294"/>
      <point x="613" y="289"/>
      <point x="591" y="289" type="curve" smooth="yes"/>
      <point x="570" y="289"/>
      <point x="562" y="308"/>
      <point x="555" y="377" type="curve" smooth="yes"/>
      <point x="550" y="423" type="line"/>
      <point x="438" y="392" type="line"/>
      <point x="434" y="500"/>
      <point x="369" y="562"/>
      <point x="261" y="562" type="curve" smooth="yes"/>
      <point x="204" y="562"/>
      <point x="148" y="551"/>
      <point x="89" y="512" type="curve"/>
      <point x="89" y="393" type="line"/>
      <point x="143" y="424"/>
      <point x="176" y="433"/>
      <point x="223" y="433" type="curve" smooth="yes"/>
      <point x="263" y="433"/>
      <point x="283" y="409"/>
      <point x="283" y="354" type="curve"/>
      <point x="268" y="350" type="line" smooth="yes"/>
      <point x="66" y="296"/>
      <point x="6" y="239"/>
      <point x="6" y="132" type="curve" smooth="yes"/>
      <point x="6" y="46"/>
      <point x="70" y="-10"/>
    </contour>
    <contour>
      <point x="186" y="115" type="curve" smooth="yes"/>
      <point x="167" y="115"/>
      <point x="152" y="129"/>
      <point x="152" y="149" type="curve" smooth="yes"/>
      <point x="152" y="176"/>
      <point x="168" y="213"/>
      <point x="256" y="239" type="curve" smooth="yes"/>
      <point x="280" y="246" type="line"/>
      <point x="257" y="157"/>
      <point x="212" y="115"/>
    </contour>
  </outline>
</glyph>
<glyph name="rlongleg" format="2">
  <advance width="349"/>
  <unicode hex="027C"/>
  <anchor x="68" y="-240" name="bottom"/>
  <anchor x="238" y="563" name="top"/>
  <outline>
    <contour>
      <point x="-62" y="-240" type="line"/>
      <point x="98" y="-240" type="line"/>
      <point x="205" y="278" type="line" smooth="yes"/>
      <point x="218" y="338"/>
      <point x="249" y="389"/>
      <point x="302" y="389" type="curve" smooth="yes"/>
      <point x="320" y="389"/>
      <point x="336" y="386"/>
      <point x="351" y="380" type="curve"/>
      <point x="402" y="556" type="line"/>
      <point x="382" y="562"/>
      <point x="370" y="563"/>
      <point x="357" y="563" type="curve" smooth="yes"/>
      <point x="301" y="563"/>
      <point x="269" y="537"/>
      <point x="233" y="473" type="curve"/>
      <point x="229" y="473" type="line"/>
      <point x="231" y="553" type="line"/>
      <point x="105" y="553" type="line"/>
    </contour>
  </outline>
</glyph>
<glyph name="rfishhookreversed" format="2">
  <advance width="312"/>
  <unicode hex="027F"/>
  <anchor x="50" y="-240" name="bottom"/>
  <anchor x="220" y="563" name="top"/>
  <outline>
    <contour>
      <point x="130" y="375" type="curve" smooth="yes"/>
      <point x="-1" y="-240" type="line"/>
      <point x="158" y="-240" type="line"/>
      <point x="286" y="357" type="line" smooth="yes"/>
      <point x="292" y="384"/>
      <point x="298" y="419"/>
      <point x="298" y="446" type="curve" smooth="yes"/>
      <point x="298" y="519"/>
      <point x="256" y="563"/>
      <point x="181" y="563" type="curve" smooth="yes"/>
      <point x="146" y="563"/>
      <point x="100" y="552"/>
      <point x="64" y="530" type="curve"/>
      <point x="64" y="406" type="line"/>
      <point x="79" y="415"/>
      <point x="102" y="423"/>
      <point x="114" y="423" type="curve" smooth="yes"/>
      <point x="127" y="423"/>
      <point x="133" y="413"/>
      <point x="133" y="400" type="curve" smooth="yes"/>
      <point x="133" y="389"/>
      <point x="132" y="382"/>
    </contour>
  </outline>
</glyph>
<glyph name="eshsquatreversed" format="2">
  <advance width="300"/>
  <unicode hex="0285"/>
  <anchor x="44" y="-240" name="bottom"/>
  <anchor x="214" y="563" name="top"/>
  <outline>
    <contour>
      <point x="128" y="-240" type="curve" smooth="yes"/>
      <point x="163" y="-240"/>
      <point x="208" y="-229"/>
      <point x="244" y="-207" type="curve"/>
      <point x="245" y="-83" type="line"/>
      <point x="229" y="-92"/>
      <point x="206" y="-100"/>
      <point x="195" y="-100" type="curve" smooth="yes"/>
      <point x="182" y="-100"/>
      <point x="175" y="-90"/>
      <point x="175" y="-77" type="curve" smooth="yes"/>
      <point x="175" y="-66"/>
      <point x="176" y="-59"/>
      <point x="178" y="-52" type="curve"/>
      <point x="265" y="357" type="line" smooth="yes"/>
      <point x="271" y="385"/>
      <point x="277" y="419"/>
      <point x="277" y="446" type="curve" smooth="yes"/>
      <point x="277" y="519"/>
      <point x="235" y="563"/>
      <point x="160" y="563" type="curve" smooth="yes"/>
      <point x="125" y="563"/>
      <point x="79" y="552"/>
      <point x="43" y="530" type="curve"/>
      <point x="43" y="406" type="line"/>
      <point x="58" y="415"/>
      <point x="81" y="423"/>
      <point x="93" y="423" type="curve" smooth="yes"/>
      <point x="106" y="423"/>
      <point x="112" y="413"/>
      <point x="112" y="400" type="curve" smooth="yes"/>
      <point x="112" y="389"/>
      <point x="110" y="382"/>
      <point x="110" y="375" type="curve"/>
      <point x="22" y="-34" type="line" smooth="yes"/>
      <point x="16" y="-62"/>
      <point x="11" y="-96"/>
      <point x="11" y="-123" type="curve" smooth="yes"/>
      <point x="11" y="-196"/>
      <point x="53" y="-240"/>
    </contour>
  </outline>
</glyph>
<glyph name="eshcurl" format="2">
  <advance width="312"/>
  <unicode hex="0286"/>
  <anchor x="50" y="-240" name="bottom"/>
  <anchor x="263" y="765" name="top"/>
  <outline>
    <contour>
      <point x="-46" y="-240" type="curve" smooth="yes"/>
      <point x="83" y="-240"/>
      <point x="144" y="-159"/>
      <point x="167" y="-72" type="curve"/>
      <point x="240" y="-72" type="line"/>
      <point x="257" y="16" type="line"/>
      <point x="187" y="17" type="line"/>
      <point x="306" y="576" type="line" smooth="yes"/>
      <point x="313" y="609"/>
      <point x="324" y="630"/>
      <point x="359" y="630" type="curve" smooth="yes"/>
      <point x="370" y="630"/>
      <point x="393" y="625"/>
      <point x="406" y="617" type="curve"/>
      <point x="407" y="747" type="line"/>
      <point x="385" y="758"/>
      <point x="360" y="765"/>
      <point x="321" y="765" type="curve" smooth="yes"/>
      <point x="220" y="765"/>
      <point x="172" y="702"/>
      <point x="147" y="582" type="curve" smooth="yes"/>
      <point x="29" y="18" type="line"/>
      <point x="13" y="18" type="line" smooth="yes"/>
      <point x="-98" y="18"/>
      <point x="-173" y="-22"/>
      <point x="-173" y="-131" type="curve" smooth="yes"/>
      <point x="-173" y="-196"/>
      <point x="-127" y="-240"/>
    </contour>
    <contour>
      <point x="-50" y="-152" type="curve" smooth="yes"/>
      <point x="-64" y="-152"/>
      <point x="-73" y="-142"/>
      <point x="-73" y="-122" type="curve" smooth="yes"/>
      <point x="-73" y="-92"/>
      <point x="-55" y="-72"/>
      <point x="-11" y="-72" type="curve" smooth="yes"/>
      <point x="10" y="-72" type="line"/>
      <point x="-5" y="-136"/>
      <point x="-23" y="-152"/>
    </contour>
  </outline>
</glyph>
<glyph name="ezhcurl" format="2">
  <advance width="453"/>
  <unicode hex="0293"/>
  <anchor x="121" y="-240" name="bottom"/>
  <anchor x="289" y="553" name="top"/>
  <outline>
    <contour>
      <point x="104" y="-240" type="curve" smooth="yes"/>
      <point x="183" y="-240"/>
      <point x="252" y="-205"/>
      <point x="300" y="-147" type="curve"/>
      <point x="316" y="-167"/>
      <point x="334" y="-191"/>
      <point x="351" y="-219" type="curve"/>
      <point x="426" y="-167" type="line"/>
      <point x="400" y="-127"/>
      <point x="375" y="-93"/>
      <point x="349" y="-64" type="curve"/>
      <point x="362" y="-25"/>
      <point x="370" y="19"/>
      <point x="370" y="65" type="curve" smooth="yes"/>
      <point x="370" y="156"/>
      <point x="335" y="229"/>
      <point x="249" y="250" type="curve"/>
      <point x="431" y="448" type="line"/>
      <point x="454" y="553" type="line"/>
      <point x="89" y="553" type="line"/>
      <point x="59" y="418" type="line"/>
      <point x="222" y="418" type="line"/>
      <point x="80" y="257" type="line"/>
      <point x="54" y="141" type="line"/>
      <point x="128" y="141" type="line" smooth="yes"/>
      <point x="180" y="141"/>
      <point x="210" y="120"/>
      <point x="210" y="54" type="curve" smooth="yes"/>
      <point x="210" y="43"/>
      <point x="210" y="37"/>
      <point x="210" y="36" type="curve"/>
      <point x="177" y="49"/>
      <point x="146" y="56"/>
      <point x="116" y="56" type="curve" smooth="yes"/>
      <point x="5" y="56"/>
      <point x="-58" y="0"/>
      <point x="-58" y="-100" type="curve" smooth="yes"/>
      <point x="-58" y="-183"/>
      <point x="-7" y="-240"/>
    </contour>
    <contour>
      <point x="101" y="-125" type="curve" smooth="yes"/>
      <point x="61" y="-125"/>
      <point x="42" y="-106"/>
      <point x="42" y="-80" type="curve" smooth="yes"/>
      <point x="42" y="-55"/>
      <point x="60" y="-34"/>
      <point x="105" y="-34" type="curve" smooth="yes"/>
      <point x="129" y="-34"/>
      <point x="157" y="-37"/>
      <point x="192" y="-55" type="curve"/>
      <point x="172" y="-101"/>
      <point x="140" y="-125"/>
    </contour>
  </outline>
</glyph>
<glyph name="cstretched" format="2">
  <advance width="423"/>
  <unicode hex="0297"/>
  <anchor x="167" y="-240" name="bottom"/>
  <anchor x="320" y="553" name="top"/>
  <outline>
    <contour>
      <point x="172" y="-240" type="curve" smooth="yes"/>
      <point x="228" y="-240"/>
      <point x="288" y="-217"/>
      <point x="324" y="-190" type="curve"/>
      <point x="325" y="-54" type="line"/>
      <point x="282" y="-86"/>
      <point x="245" y="-102"/>
      <point x="215" y="-102" type="curve" smooth="yes"/>
      <point x="192" y="-102"/>
      <point x="166" y="-79"/>
      <point x="166" y="11" type="curve" smooth="yes"/>
      <point x="166" y="194"/>
      <point x="247" y="425"/>
      <point x="325" y="425" type="curve" smooth="yes"/>
      <point x="349" y="425"/>
      <point x="377" y="412"/>
      <point x="397" y="394" type="curve"/>
      <point x="462" y="520" type="line"/>
      <point x="422" y="549"/>
      <point x="378" y="563"/>
      <point x="323" y="563" type="curve" smooth="yes"/>
      <point x="111" y="563"/>
      <point x="1" y="240"/>
      <point x="1" y="13" type="curve" smooth="yes"/>
      <point x="1" y="-171"/>
      <point x="72" y="-240"/>
    </contour>
  </outline>
</glyph>
<glyph name="eopenclosed" format="2">
  <advance width="491"/>
  <unicode hex="029A"/>
  <anchor x="187" y="0" name="bottom"/>
  <anchor x="289" y="553" name="top"/>
  <outline>
    <contour>
      <point x="197" y="-10" type="curve" smooth="yes"/>
      <point x="385" y="-10"/>
      <point x="474" y="177"/>
      <point x="474" y="350" type="curve" smooth="yes"/>
      <point x="474" y="491"/>
      <point x="413" y="564"/>
      <point x="271" y="564" type="curve" smooth="yes"/>
      <point x="124" y="564"/>
      <point x="52" y="485"/>
      <point x="52" y="394" type="curve" smooth="yes"/>
      <point x="52" y="329"/>
      <point x="87" y="289"/>
      <point x="141" y="271" type="curve"/>
      <point x="141" y="269" type="line"/>
      <point x="75" y="259"/>
      <point x="9" y="210"/>
      <point x="9" y="131" type="curve" smooth="yes"/>
      <point x="9" y="33"/>
      <point x="92" y="-10"/>
    </contour>
    <contour>
      <point x="217" y="110" type="curve" smooth="yes"/>
      <point x="190" y="110"/>
      <point x="177" y="123"/>
      <point x="177" y="151" type="curve" smooth="yes"/>
      <point x="177" y="192"/>
      <point x="201" y="211"/>
      <point x="240" y="211" type="curve" smooth="yes"/>
      <point x="253" y="211" type="line"/>
      <point x="273" y="333" type="line"/>
      <point x="259" y="333" type="line"/>
      <point x="228" y="333"/>
      <point x="212" y="352"/>
      <point x="212" y="381" type="curve" smooth="yes"/>
      <point x="212" y="419"/>
      <point x="233" y="443"/>
      <point x="267" y="443" type="curve" smooth="yes"/>
      <point x="296" y="443"/>
      <point x="313" y="427"/>
      <point x="313" y="366" type="curve" smooth="yes"/>
      <point x="313" y="262"/>
      <point x="281" y="110"/>
    </contour>
  </outline>
</glyph>
<glyph name="kturned" format="2">
  <advance width="479"/>
  <unicode hex="029E"/>
  <anchor x="137" y="-207" name="bottom"/>
  <anchor x="298.772" y="553" name="top"/>
  <anchor x="497" y="553" name="topright"/>
  <outline>
    <contour>
      <point x="237" y="87" type="curve" smooth="yes"/>
      <point x="174" y="-207" type="line"/>
      <point x="335" y="-207" type="line"/>
      <point x="497" y="553" type="line"/>
      <point x="336" y="553" type="line"/>
      <point x="307" y="401" type="line"/>
      <point x="270" y="368" type="line"/>
      <point x="228" y="553" type="line"/>
      <point x="54" y="553" type="line"/>
      <point x="130" y="239" type="line"/>
      <point x="-53" y="0" type="line"/>
      <point x="121" y="0" type="line"/>
      <point x="265" y="199" type="line"/>
      <point x="267" y="199" type="line"/>
      <point x="255" y="160"/>
      <point x="245" y="124"/>
    </contour>
  </outline>
</glyph>
<glyph name="qhook" format="2">
  <advance width="479"/>
  <unicode hex="02A0"/>
  <anchor x="135" y="-240" name="bottom"/>
  <anchor x="349" y="770" name="top"/>
  <outline>
    <contour>
      <point x="215" y="-17" type="curve"/>
      <point x="169" y="-240" type="line"/>
      <point x="329" y="-240" type="line"/>
      <point x="504" y="589" type="line" smooth="yes"/>
      <point x="511" y="621"/>
      <point x="521" y="630"/>
      <point x="539" y="630" type="curve" smooth="yes"/>
      <point x="550" y="630"/>
      <point x="562" y="625"/>
      <point x="567" y="621" type="curve"/>
      <point x="567" y="758" type="line"/>
      <point x="552" y="764"/>
      <point x="521" y="770"/>
      <point x="490" y="770" type="curve" smooth="yes"/>
      <point x="411" y="770"/>
      <point x="374" y="732"/>
      <point x="355" y="642" type="curve" smooth="yes"/>
      <point x="343" y="584" type="line" smooth="yes"/>
      <point x="336" y="552"/>
      <point x="333" y="522"/>
      <point x="331" y="495" type="curve"/>
      <point x="329" y="495" type="line"/>
      <point x="313" y="543"/>
      <point x="288" y="563"/>
      <point x="237" y="563" type="curve" smooth="yes"/>
      <point x="85" y="563"/>
      <point x="13" y="290"/>
      <point x="13" y="147" type="curve" smooth="yes"/>
      <point x="13" y="48"/>
      <point x="57" y="-10"/>
      <point x="122" y="-10" type="curve" smooth="yes"/>
      <point x="165" y="-10"/>
      <point x="197" y="3"/>
      <point x="230" y="47" type="curve"/>
      <point x="233" y="47" type="line"/>
      <point x="225" y="22"/>
      <point x="219" y="0"/>
    </contour>
    <contour>
      <point x="201" y="129" type="curve" smooth="yes"/>
      <point x="187" y="129"/>
      <point x="179" y="147"/>
      <point x="179" y="183" type="curve" smooth="yes"/>
      <point x="179" y="231"/>
      <point x="207" y="424"/>
      <point x="262" y="424" type="curve" smooth="yes"/>
      <point x="281" y="424"/>
      <point x="291" y="408"/>
      <point x="291" y="381" type="curve" smooth="yes"/>
      <point x="291" y="313"/>
      <point x="259" y="129"/>
    </contour>
  </outline>
</glyph>
<glyph name="circumflex" format="2">
  <advance width="396"/>
  <unicode hex="02C6"/>
  <outline>
    <contour>
      <point x="113" y="618" type="curve"/>
      <point x="111" y="606" type="line"/>
      <point x="215" y="606" type="line"/>
      <point x="232" y="620"/>
      <point x="255" y="642"/>
      <point x="283" y="672" type="curve"/>
      <point x="298" y="644"/>
      <point x="313" y="622"/>
      <point x="326" y="606" type="curve"/>
      <point x="426" y="606" type="line"/>
      <point x="429" y="620" type="line"/>
      <point x="409" y="662"/>
      <point x="385" y="727"/>
      <point x="376" y="766" type="curve"/>
      <point x="231" y="766" type="line"/>
      <point x="194" y="712"/>
      <point x="155" y="662"/>
    </contour>
  </outline>
</glyph>
<glyph name="caron" format="2">
  <advance width="396"/>
  <unicode hex="02C7"/>
  <outline>
    <contour>
      <point x="194" y="606" type="curve"/>
      <point x="339" y="606" type="line"/>
      <point x="362" y="643"/>
      <point x="425" y="721"/>
      <point x="457" y="754" type="curve"/>
      <point x="460" y="766" type="line"/>
      <point x="354" y="766" type="line"/>
      <point x="337" y="752"/>
      <point x="315" y="730"/>
      <point x="287" y="700" type="curve"/>
      <point x="272" y="728"/>
      <point x="257" y="750"/>
      <point x="243" y="766" type="curve"/>
      <point x="144" y="766" type="line"/>
      <point x="141" y="752" type="line"/>
      <point x="162" y="708"/>
      <point x="183" y="649"/>
    </contour>
  </outline>
</glyph>
<glyph name="breve" format="2">
  <advance width="378"/>
  <unicode hex="02D8"/>
  <outline>
    <contour>
      <point x="272" y="606" type="curve" smooth="yes"/>
      <point x="358" y="606"/>
      <point x="425" y="670"/>
      <point x="446" y="787" type="curve"/>
      <point x="347" y="787" type="line"/>
      <point x="335" y="736"/>
      <point x="313" y="718"/>
      <point x="282" y="718" type="curve" smooth="yes"/>
      <point x="251" y="718"/>
      <point x="246" y="748"/>
      <point x="246" y="787" type="curve"/>
      <point x="149" y="787" type="line"/>
      <point x="145" y="764"/>
      <point x="142" y="743"/>
      <point x="142" y="724" type="curve" smooth="yes"/>
      <point x="142" y="655"/>
      <point x="177" y="606"/>
    </contour>
  </outline>
</glyph>
<glyph name="ogonek" format="2">
  <advance width="268"/>
  <unicode hex="02DB"/>
  <outline>
    <contour>
      <point x="45" y="-240" type="curve" smooth="yes"/>
      <point x="69" y="-240"/>
      <point x="94" y="-239"/>
      <point x="121" y="-229" type="curve"/>
      <point x="143" y="-123" type="line"/>
      <point x="127" y="-127"/>
      <point x="110" y="-130"/>
      <point x="100" y="-130" type="curve" smooth="yes"/>
      <point x="92" y="-130"/>
      <point x="83" y="-124"/>
      <point x="83" y="-112" type="curve" smooth="yes"/>
      <point x="83" y="-83"/>
      <point x="98" y="-53"/>
      <point x="147" y="0" type="curve"/>
      <point x="53" y="0" type="line"/>
      <point x="0" y="-40"/>
      <point x="-49" y="-91"/>
      <point x="-49" y="-157" type="curve" smooth="yes"/>
      <point x="-49" y="-205"/>
      <point x="-19" y="-240"/>
    </contour>
  </outline>
</glyph>
<glyph name="tilde" format="2">
  <advance width="405"/>
  <unicode hex="02DC"/>
  <outline>
    <contour>
      <point x="110" y="604" type="curve"/>
      <point x="199" y="604" type="line"/>
      <point x="206" y="640"/>
      <point x="220" y="652"/>
      <point x="232" y="652" type="curve" smooth="yes"/>
      <point x="262" y="652"/>
      <point x="282" y="605"/>
      <point x="345" y="605" type="curve" smooth="yes"/>
      <point x="395" y="605"/>
      <point x="450" y="646"/>
      <point x="470" y="772" type="curve"/>
      <point x="381" y="772" type="line"/>
      <point x="373" y="737"/>
      <point x="362" y="724"/>
      <point x="347" y="724" type="curve" smooth="yes"/>
      <point x="318" y="724"/>
      <point x="297" y="771"/>
      <point x="232" y="771" type="curve" smooth="yes"/>
      <point x="155" y="771"/>
      <point x="127" y="694"/>
    </contour>
  </outline>
</glyph>
<glyph name="hungarumlaut" format="2">
  <advance width="464"/>
  <unicode hex="02DD"/>
  <outline>
    <contour>
      <point x="290" y="618" type="curve"/>
      <point x="287" y="606" type="line"/>
      <point x="374" y="606" type="line"/>
      <point x="424" y="648"/>
      <point x="501" y="720"/>
      <point x="526" y="758" type="curve"/>
      <point x="527" y="766" type="line"/>
      <point x="383" y="766" type="line"/>
      <point x="369" y="741"/>
      <point x="337" y="690"/>
    </contour>
    <contour>
      <point x="113" y="618" type="curve"/>
      <point x="110" y="606" type="line"/>
      <point x="189" y="606" type="line"/>
      <point x="250" y="652"/>
      <point x="327" y="721"/>
      <point x="348" y="758" type="curve"/>
      <point x="350" y="766" type="line"/>
      <point x="206" y="766" type="line"/>
      <point x="193" y="742"/>
      <point x="160" y="691"/>
    </contour>
  </outline>
</glyph>
<glyph name="rhotichookmod" format="2">
  <advance width="210"/>
  <unicode hex="02DE"/>
  <outline>
    <contour>
      <point x="111" y="164" type="curve" smooth="yes"/>
      <point x="152" y="164"/>
      <point x="187" y="182"/>
      <point x="214" y="207" type="curve"/>
      <point x="182" y="295" type="line"/>
      <point x="167" y="283"/>
      <point x="155" y="278"/>
      <point x="136" y="278" type="curve" smooth="yes"/>
      <point x="114" y="278"/>
      <point x="106" y="295"/>
      <point x="98" y="366" type="curve" smooth="yes"/>
      <point x="93" y="412" type="line"/>
      <point x="-90" y="353" type="line"/>
      <point x="-76" y="249" type="line"/>
      <point x="8" y="277" type="line"/>
      <point x="19" y="201"/>
      <point x="53" y="164"/>
    </contour>
  </outline>
</glyph>
<glyph name="dblverticallineabovecomb" format="2">
  <unicode hex="030E"/>
  <anchor x="57" y="530" name="_top"/>
  <anchor x="93" y="776" name="top"/>
  <outline>
    <contour>
      <point x="105" y="596" type="line"/>
      <point x="219" y="596" type="line"/>
      <point x="257" y="776" type="line"/>
      <point x="143" y="776" type="line"/>
    </contour>
    <contour>
      <point x="-76" y="596" type="line"/>
      <point x="38" y="596" type="line"/>
      <point x="76" y="776" type="line"/>
      <point x="-38" y="776" type="line"/>
    </contour>
  </outline>
</glyph>
<glyph name="dblgravecomb" format="2">
  <unicode hex="030F"/>
  <anchor x="-229" y="530" name="_top"/>
  <anchor x="-194" y="766" name="top"/>
  <outline>
    <contour>
      <point x="-104" y="606" type="curve"/>
      <point x="-24" y="606" type="line"/>
      <point x="-21" y="620" type="line"/>
      <point x="-37" y="693"/>
      <point x="-47" y="742"/>
      <point x="-50" y="766" type="curve"/>
      <point x="-195" y="766" type="line"/>
      <point x="-197" y="756" type="line"/>
      <point x="-191" y="723"/>
      <point x="-147" y="655"/>
    </contour>
    <contour>
      <point x="-283" y="606" type="curve"/>
      <point x="-196" y="606" type="line"/>
      <point x="-193" y="620" type="line"/>
      <point x="-206" y="665"/>
      <point x="-219" y="725"/>
      <point x="-223" y="766" type="curve"/>
      <point x="-369" y="766" type="line"/>
      <point x="-371" y="756" type="line"/>
      <point x="-367" y="726"/>
      <point x="-318" y="649"/>
    </contour>
  </outline>
</glyph>
<glyph name="candraBinducomb" format="2">
  <unicode hex="0310"/>
  <anchor x="66" y="530" name="_top"/>
  <anchor x="112" y="853" name="top"/>
  <outline>
    <contour>
      <point x="88" y="606" type="curve" smooth="yes"/>
      <point x="177" y="606"/>
      <point x="253" y="660"/>
      <point x="279" y="785" type="curve"/>
      <point x="201" y="785" type="line"/>
      <point x="184" y="727"/>
      <point x="153" y="691"/>
      <point x="91" y="691" type="curve" smooth="yes"/>
      <point x="43" y="691"/>
      <point x="21" y="727"/>
      <point x="21" y="785" type="curve"/>
      <point x="-56" y="785" type="line"/>
      <point x="-59" y="767"/>
      <point x="-61" y="750"/>
      <point x="-61" y="733" type="curve" smooth="yes"/>
      <point x="-61" y="662"/>
      <point x="-15" y="606"/>
    </contour>
    <contour>
      <point x="102" y="729" type="curve" smooth="yes"/>
      <point x="139" y="729"/>
      <point x="162" y="762"/>
      <point x="162" y="801" type="curve" smooth="yes"/>
      <point x="162" y="838"/>
      <point x="147" y="853"/>
      <point x="117" y="853" type="curve" smooth="yes"/>
      <point x="78" y="853"/>
      <point x="57" y="818"/>
      <point x="57" y="780" type="curve" smooth="yes"/>
      <point x="57" y="744"/>
      <point x="71" y="729"/>
    </contour>
  </outline>
</glyph>
<glyph name="breveinvertedcomb" format="2">
  <unicode hex="0311"/>
  <anchor x="41" y="530" name="_top"/>
  <anchor x="79" y="787" name="top"/>
  <outline>
    <contour>
      <point x="-76" y="606" type="curve"/>
      <point x="23" y="606" type="line"/>
      <point x="35" y="657"/>
      <point x="57" y="675"/>
      <point x="89" y="675" type="curve" smooth="yes"/>
      <point x="119" y="675"/>
      <point x="124" y="645"/>
      <point x="124" y="606" type="curve"/>
      <point x="221" y="606" type="line"/>
      <point x="225" y="629"/>
      <point x="228" y="650"/>
      <point x="228" y="669" type="curve" smooth="yes"/>
      <point x="228" y="738"/>
      <point x="193" y="787"/>
      <point x="98" y="787" type="curve" smooth="yes"/>
      <point x="12" y="787"/>
      <point x="-55" y="723"/>
    </contour>
  </outline>
</glyph>
<glyph name="lefttackbelowcomb" format="2">
  <unicode hex="0318"/>
  <anchor x="-44" y="21" name="_bottom"/>
  <anchor x="-73" y="-217" name="bottom"/>
  <outline>
    <contour>
      <point x="-86" y="-217" type="line"/>
      <point x="-29" y="-217" type="line"/>
      <point x="11" y="-29" type="line"/>
      <point x="-46" y="-29" type="line"/>
      <point x="-60" y="-94" type="line"/>
      <point x="-148" y="-94" type="line"/>
      <point x="-160" y="-152" type="line"/>
      <point x="-72" y="-152" type="line"/>
    </contour>
  </outline>
</glyph>
<glyph name="righttackbelowcomb" format="2">
  <unicode hex="0319"/>
  <anchor x="-44" y="21" name="_bottom"/>
  <anchor x="-73" y="-217" name="bottom"/>
  <outline>
    <contour>
      <point x="-160" y="-217" type="line"/>
      <point x="-103" y="-217" type="line"/>
      <point x="-89" y="-152" type="line"/>
      <point x="-1" y="-152" type="line"/>
      <point x="11" y="-94" type="line"/>
      <point x="-77" y="-94" type="line"/>
      <point x="-63" y="-29" type="line"/>
      <point x="-120" y="-29" type="line"/>
    </contour>
  </outline>
</glyph>
<glyph name="leftangleabovecomb" format="2">
  <unicode hex="031A"/>
  <anchor x="233" y="650" name="_topright"/>
  <outline>
    <contour>
      <point x="186" y="694" type="line"/>
      <point x="243" y="694" type="line"/>
      <point x="291" y="920" type="line"/>
      <point x="55" y="920" type="line"/>
      <point x="43" y="862" type="line"/>
      <point x="222" y="862" type="line"/>
    </contour>
  </outline>
</glyph>
<glyph name="horncomb" format="2">
  <unicode hex="031B"/>
  <anchor x="77" y="613" name="_topright"/>
  <outline>
    <contour>
      <point x="-33" y="613" type="curve"/>
      <point x="-56" y="506" type="line"/>
      <point x="71" y="506"/>
      <point x="154" y="566"/>
      <point x="211" y="749" type="curve"/>
      <point x="209" y="760" type="line"/>
      <point x="59" y="760" type="line"/>
      <point x="44" y="691"/>
      <point x="17" y="615"/>
    </contour>
  </outline>
</glyph>
<glyph name="uptackbelowcomb" format="2">
  <unicode hex="031D"/>
  <anchor x="-66" y="2" name="_bottom"/>
  <anchor x="-91" y="-207" name="bottom"/>
  <outline>
    <contour>
      <point x="-186" y="-207" type="line"/>
      <point x="-12" y="-207" type="line"/>
      <point x="0" y="-149" type="line"/>
      <point x="-56" y="-149" type="line"/>
      <point x="-35" y="-48" type="line"/>
      <point x="-96" y="-48" type="line"/>
      <point x="-118" y="-149" type="line"/>
      <point x="-174" y="-149" type="line"/>
    </contour>
  </outline>
</glyph>
<glyph name="downtackbelowcomb" format="2">
  <unicode hex="031E"/>
  <anchor x="-59" y="0" name="_bottom"/>
  <anchor x="-103" y="-207" name="bottom"/>
  <outline>
    <contour>
      <point x="-135" y="-207" type="line"/>
      <point x="-73" y="-207" type="line"/>
      <point x="-52" y="-106" type="line"/>
      <point x="5" y="-106" type="line"/>
      <point x="17" y="-48" type="line"/>
      <point x="-157" y="-48" type="line"/>
      <point x="-169" y="-106" type="line"/>
      <point x="-113" y="-106" type="line"/>
    </contour>
  </outline>
</glyph>
<glyph name="plusbelowcomb" format="2">
  <unicode hex="031F"/>
  <anchor x="-52" y="12" name="_bottom"/>
  <anchor x="-80" y="-216" name="bottom"/>
  <outline>
    <contour>
      <point x="-131" y="-216" type="line"/>
      <point x="-70" y="-216" type="line"/>
      <point x="-57" y="-156" type="line"/>
      <point x="-2" y="-156" type="line"/>
      <point x="10" y="-98" type="line"/>
      <point x="-44" y="-98" type="line"/>
      <point x="-31" y="-38" type="line"/>
      <point x="-93" y="-38" type="line"/>
      <point x="-106" y="-98" type="line"/>
      <point x="-161" y="-98" type="line"/>
      <point x="-173" y="-156" type="line"/>
      <point x="-118" y="-156" type="line"/>
    </contour>
  </outline>
</glyph>
<glyph name="dotbelowcomb" format="2">
  <unicode hex="0323"/>
  <anchor x="-297" y="0" name="_bottom"/>
  <anchor x="-346" y="-233" name="bottom"/>
  <outline>
    <contour>
      <point x="-340" y="-233" type="curve" smooth="yes"/>
      <point x="-275" y="-233"/>
      <point x="-240" y="-187"/>
      <point x="-240" y="-134" type="curve" smooth="yes"/>
      <point x="-240" y="-88"/>
      <point x="-264" y="-64"/>
      <point x="-317" y="-64" type="curve" smooth="yes"/>
      <point x="-384" y="-64"/>
      <point x="-417" y="-112"/>
      <point x="-417" y="-164" type="curve" smooth="yes"/>
      <point x="-417" y="-206"/>
      <point x="-391" y="-233"/>
    </contour>
  </outline>
</glyph>
<glyph name="commaaccentcomb" format="2">
  <unicode hex="0326"/>
  <anchor x="100" y="0" name="_bottom"/>
  <anchor x="50" y="-221" name="bottom"/>
  <outline>
    <contour>
      <point x="-14" y="-209" type="curve"/>
      <point x="-14" y="-221" type="line"/>
      <point x="95" y="-221" type="line"/>
      <point x="125" y="-179"/>
      <point x="160" y="-119"/>
      <point x="183" y="-70" type="curve"/>
      <point x="183" y="-61" type="line"/>
      <point x="33" y="-61" type="line"/>
      <point x="22" y="-106"/>
      <point x="1" y="-169"/>
    </contour>
  </outline>
</glyph>
